%TF.GenerationSoftware,KiCad,Pcbnew,7.0.8*%
%TF.CreationDate,2023-10-24T16:55:24+02:00*%
%TF.ProjectId,corne-chocolate,636f726e-652d-4636-986f-636f6c617465,2.1*%
%TF.SameCoordinates,Original*%
%TF.FileFunction,Drillmap*%
%TF.FilePolarity,Positive*%
%FSLAX45Y45*%
G04 Gerber Fmt 4.5, Leading zero omitted, Abs format (unit mm)*
G04 Created by KiCad (PCBNEW 7.0.8) date 2023-10-24 16:55:24*
%MOMM*%
%LPD*%
G01*
G04 APERTURE LIST*
%ADD10C,0.150000*%
%ADD11C,0.200000*%
%ADD12C,0.040000*%
%ADD13C,0.070000*%
%ADD14C,0.100000*%
%ADD15C,0.101600*%
%ADD16C,0.140000*%
%ADD17C,0.220000*%
%ADD18C,0.410000*%
G04 APERTURE END LIST*
D10*
X11650000Y-12425000D02*
X6159375Y-12409375D01*
X6109375Y-9434375D02*
X6109375Y-7534375D01*
X6109375Y-9434375D02*
X6109375Y-11334375D01*
X19475000Y-6850000D02*
X19475000Y-12797500D01*
X15500000Y-6525000D02*
X15500000Y-6375000D01*
X19452277Y-12884770D02*
G75*
G03*
X19475000Y-12797500I-147507J85000D01*
G01*
X13600000Y-6275000D02*
X13600000Y-6150000D01*
X6109375Y-7534375D02*
X6109375Y-6834375D01*
X19475000Y-6850000D02*
G75*
G03*
X19425000Y-6800000I-50000J0D01*
G01*
X11750000Y-6325000D02*
X9950000Y-6325000D01*
X9950000Y-6325000D02*
G75*
G03*
X9900000Y-6375000I0J-50000D01*
G01*
X9850000Y-6800000D02*
X6159375Y-6784375D01*
X12739645Y-13885355D02*
G75*
G03*
X12775000Y-13900000I35355J35355D01*
G01*
X17350000Y-6575000D02*
X15550000Y-6575000D01*
X16507500Y-14390000D02*
X17936925Y-15216096D01*
X9850000Y-6800000D02*
G75*
G03*
X9900000Y-6750000I0J50000D01*
G01*
X6109375Y-12359375D02*
G75*
G03*
X6159375Y-12409375I50005J5D01*
G01*
X13550000Y-6100000D02*
X11850000Y-6100000D01*
X15450000Y-6325000D02*
X13650000Y-6325000D01*
X17936928Y-15216091D02*
G75*
G03*
X18129726Y-15178146I77502J114991D01*
G01*
X11685355Y-12439645D02*
X12739645Y-13885355D01*
X15500000Y-6525000D02*
G75*
G03*
X15550000Y-6575000I50000J0D01*
G01*
X13600000Y-6150000D02*
G75*
G03*
X13550000Y-6100000I-50000J0D01*
G01*
X11800000Y-6150000D02*
X11800000Y-6275000D01*
X17400000Y-6625000D02*
G75*
G03*
X17350000Y-6575000I-50000J0D01*
G01*
X12775000Y-13900000D02*
X16442055Y-14377034D01*
X15500000Y-6375000D02*
G75*
G03*
X15450000Y-6325000I-50000J0D01*
G01*
X9900000Y-6375000D02*
X9900000Y-6750000D01*
X18129726Y-15178146D02*
X19452500Y-12885000D01*
X11750000Y-6325000D02*
G75*
G03*
X11800000Y-6275000I0J50000D01*
G01*
X16507500Y-14390000D02*
G75*
G03*
X16442055Y-14377034I-98760J-326840D01*
G01*
X11685355Y-12439645D02*
G75*
G03*
X11650000Y-12425000I-35355J-35355D01*
G01*
X13600000Y-6275000D02*
G75*
G03*
X13650000Y-6325000I50000J0D01*
G01*
X17400000Y-6750000D02*
G75*
G03*
X17450000Y-6800000I50000J0D01*
G01*
X6109375Y-11334375D02*
X6109375Y-12359375D01*
X17400000Y-6625000D02*
X17400000Y-6750000D01*
X11850000Y-6100000D02*
G75*
G03*
X11800000Y-6150000I0J-50000D01*
G01*
X6159375Y-6784375D02*
G75*
G03*
X6109375Y-6834375I-5J-49995D01*
G01*
X19425000Y-6800000D02*
X17450000Y-6800000D01*
D11*
D12*
X6802500Y-8226875D02*
X6842500Y-8266875D01*
X6842500Y-8226875D02*
X6802500Y-8266875D01*
X6802500Y-10126875D02*
X6842500Y-10166875D01*
X6842500Y-10126875D02*
X6802500Y-10166875D01*
X6802500Y-12026875D02*
X6842500Y-12066875D01*
X6842500Y-12026875D02*
X6802500Y-12066875D01*
X7157500Y-8226875D02*
X7197500Y-8266875D01*
X7197500Y-8226875D02*
X7157500Y-8266875D01*
X7157500Y-10126875D02*
X7197500Y-10166875D01*
X7197500Y-10126875D02*
X7157500Y-10166875D01*
X7157500Y-12026875D02*
X7197500Y-12066875D01*
X7197500Y-12026875D02*
X7157500Y-12066875D01*
X8461300Y-9889375D02*
X8501300Y-9929375D01*
X8501300Y-9889375D02*
X8461300Y-9929375D01*
X8586200Y-9889375D02*
X8626200Y-9929375D01*
X8626200Y-9889375D02*
X8586200Y-9929375D01*
X8702500Y-8226875D02*
X8742500Y-8266875D01*
X8742500Y-8226875D02*
X8702500Y-8266875D01*
X8702500Y-10126875D02*
X8742500Y-10166875D01*
X8742500Y-10126875D02*
X8702500Y-10166875D01*
X8702500Y-12026875D02*
X8742500Y-12066875D01*
X8742500Y-12026875D02*
X8702500Y-12066875D01*
X9057500Y-8226875D02*
X9097500Y-8266875D01*
X9097500Y-8226875D02*
X9057500Y-8266875D01*
X9057500Y-10126875D02*
X9097500Y-10166875D01*
X9097500Y-10126875D02*
X9057500Y-10166875D01*
X9057500Y-12026875D02*
X9097500Y-12066875D01*
X9097500Y-12026875D02*
X9057500Y-12066875D01*
X10361300Y-9414375D02*
X10401300Y-9454375D01*
X10401300Y-9414375D02*
X10361300Y-9454375D01*
X10361300Y-9533125D02*
X10401300Y-9573125D01*
X10401300Y-9533125D02*
X10361300Y-9573125D01*
X10486200Y-9414375D02*
X10526200Y-9454375D01*
X10526200Y-9414375D02*
X10486200Y-9454375D01*
X10486200Y-9533125D02*
X10526200Y-9573125D01*
X10526200Y-9533125D02*
X10486200Y-9573125D01*
X10602500Y-7751875D02*
X10642500Y-7791875D01*
X10642500Y-7751875D02*
X10602500Y-7791875D01*
X10602500Y-9651875D02*
X10642500Y-9691875D01*
X10642500Y-9651875D02*
X10602500Y-9691875D01*
X10602500Y-11551875D02*
X10642500Y-11591875D01*
X10642500Y-11551875D02*
X10602500Y-11591875D01*
X10957500Y-7751875D02*
X10997500Y-7791875D01*
X10997500Y-7751875D02*
X10957500Y-7791875D01*
X10957500Y-9651875D02*
X10997500Y-9691875D01*
X10997500Y-9651875D02*
X10957500Y-9691875D01*
X10957500Y-11551875D02*
X10997500Y-11591875D01*
X10997500Y-11551875D02*
X10957500Y-11591875D01*
X12261300Y-7276875D02*
X12301300Y-7316875D01*
X12301300Y-7276875D02*
X12261300Y-7316875D01*
X12261300Y-9176875D02*
X12301300Y-9216875D01*
X12301300Y-9176875D02*
X12261300Y-9216875D01*
X12261300Y-9295625D02*
X12301300Y-9335625D01*
X12301300Y-9295625D02*
X12261300Y-9335625D01*
X12386200Y-7276875D02*
X12426200Y-7316875D01*
X12426200Y-7276875D02*
X12386200Y-7316875D01*
X12386200Y-9176875D02*
X12426200Y-9216875D01*
X12426200Y-9176875D02*
X12386200Y-9216875D01*
X12386200Y-9295625D02*
X12426200Y-9335625D01*
X12426200Y-9295625D02*
X12386200Y-9335625D01*
X12502500Y-7514375D02*
X12542500Y-7554375D01*
X12542500Y-7514375D02*
X12502500Y-7554375D01*
X12502500Y-9414375D02*
X12542500Y-9454375D01*
X12542500Y-9414375D02*
X12502500Y-9454375D01*
X12502500Y-11314375D02*
X12542500Y-11354375D01*
X12542500Y-11314375D02*
X12502500Y-11354375D01*
X12857500Y-7514375D02*
X12897500Y-7554375D01*
X12897500Y-7514375D02*
X12857500Y-7554375D01*
X12857500Y-9414375D02*
X12897500Y-9454375D01*
X12897500Y-9414375D02*
X12857500Y-9454375D01*
X12857500Y-11314375D02*
X12897500Y-11354375D01*
X12897500Y-11314375D02*
X12857500Y-11354375D01*
X13452500Y-13511250D02*
X13492500Y-13551250D01*
X13492500Y-13511250D02*
X13452500Y-13551250D01*
X13807500Y-13511250D02*
X13847500Y-13551250D01*
X13847500Y-13511250D02*
X13807500Y-13551250D01*
X14161300Y-7514375D02*
X14201300Y-7554375D01*
X14201300Y-7514375D02*
X14161300Y-7554375D01*
X14161300Y-7633125D02*
X14201300Y-7673125D01*
X14201300Y-7633125D02*
X14161300Y-7673125D01*
X14161300Y-9414375D02*
X14201300Y-9454375D01*
X14201300Y-9414375D02*
X14161300Y-9454375D01*
X14161300Y-9533125D02*
X14201300Y-9573125D01*
X14201300Y-9533125D02*
X14161300Y-9573125D01*
X14286200Y-7514375D02*
X14326200Y-7554375D01*
X14326200Y-7514375D02*
X14286200Y-7554375D01*
X14286200Y-7633125D02*
X14326200Y-7673125D01*
X14326200Y-7633125D02*
X14286200Y-7673125D01*
X14286200Y-9414375D02*
X14326200Y-9454375D01*
X14326200Y-9414375D02*
X14286200Y-9454375D01*
X14286200Y-9533125D02*
X14326200Y-9573125D01*
X14326200Y-9533125D02*
X14286200Y-9573125D01*
X14402500Y-7751875D02*
X14442500Y-7791875D01*
X14442500Y-7751875D02*
X14402500Y-7791875D01*
X14402500Y-9651875D02*
X14442500Y-9691875D01*
X14442500Y-9651875D02*
X14402500Y-9691875D01*
X14402500Y-11551875D02*
X14442500Y-11591875D01*
X14442500Y-11551875D02*
X14402500Y-11591875D01*
X14757500Y-7751875D02*
X14797500Y-7791875D01*
X14797500Y-7751875D02*
X14757500Y-7791875D01*
X14757500Y-9651875D02*
X14797500Y-9691875D01*
X14797500Y-9651875D02*
X14757500Y-9691875D01*
X14757500Y-11551875D02*
X14797500Y-11591875D01*
X14797500Y-11551875D02*
X14757500Y-11591875D01*
X15358548Y-13762185D02*
X15398548Y-13802185D01*
X15398548Y-13762185D02*
X15358548Y-13802185D01*
X15701452Y-13854065D02*
X15741452Y-13894065D01*
X15741452Y-13854065D02*
X15701452Y-13894065D01*
X16061300Y-7751875D02*
X16101300Y-7791875D01*
X16101300Y-7751875D02*
X16061300Y-7791875D01*
X16061300Y-7870625D02*
X16101300Y-7910625D01*
X16101300Y-7870625D02*
X16061300Y-7910625D01*
X16061300Y-9651875D02*
X16101300Y-9691875D01*
X16101300Y-9651875D02*
X16061300Y-9691875D01*
X16061300Y-9770625D02*
X16101300Y-9810625D01*
X16101300Y-9770625D02*
X16061300Y-9810625D01*
X16061300Y-11551875D02*
X16101300Y-11591875D01*
X16101300Y-11551875D02*
X16061300Y-11591875D01*
X16186200Y-7751875D02*
X16226200Y-7791875D01*
X16226200Y-7751875D02*
X16186200Y-7791875D01*
X16186200Y-7870625D02*
X16226200Y-7910625D01*
X16226200Y-7870625D02*
X16186200Y-7910625D01*
X16186200Y-9651875D02*
X16226200Y-9691875D01*
X16226200Y-9651875D02*
X16186200Y-9691875D01*
X16186200Y-9770625D02*
X16226200Y-9810625D01*
X16226200Y-9770625D02*
X16186200Y-9810625D01*
X16186200Y-11551875D02*
X16226200Y-11591875D01*
X16226200Y-11551875D02*
X16186200Y-11591875D01*
X16302500Y-7989375D02*
X16342500Y-8029375D01*
X16342500Y-7989375D02*
X16302500Y-8029375D01*
X16302500Y-9889375D02*
X16342500Y-9929375D01*
X16342500Y-9889375D02*
X16302500Y-9929375D01*
X16302500Y-11789375D02*
X16342500Y-11829375D01*
X16342500Y-11789375D02*
X16302500Y-11829375D01*
X16657500Y-7989375D02*
X16697500Y-8029375D01*
X16697500Y-7989375D02*
X16657500Y-8029375D01*
X16657500Y-9889375D02*
X16697500Y-9929375D01*
X16697500Y-9889375D02*
X16657500Y-9929375D01*
X16657500Y-11789375D02*
X16697500Y-11829375D01*
X16697500Y-11789375D02*
X16657500Y-11829375D01*
X16955000Y-11667500D02*
X16995000Y-11707500D01*
X16995000Y-11667500D02*
X16955000Y-11707500D01*
X16980000Y-11542500D02*
X17020000Y-11582500D01*
X17020000Y-11542500D02*
X16980000Y-11582500D01*
X17073750Y-9770625D02*
X17113750Y-9810625D01*
X17113750Y-9770625D02*
X17073750Y-9810625D01*
X18040355Y-8094645D02*
X18080355Y-8134645D01*
X18080355Y-8094645D02*
X18040355Y-8134645D01*
X18140043Y-8194645D02*
X18180043Y-8234645D01*
X18180043Y-8194645D02*
X18140043Y-8234645D01*
X18320625Y-8276913D02*
X18360625Y-8316913D01*
X18360625Y-8276913D02*
X18320625Y-8316913D01*
X18350625Y-14080594D02*
X18390625Y-14120594D01*
X18390625Y-14080594D02*
X18350625Y-14120594D01*
X18528125Y-13773155D02*
X18568125Y-13813155D01*
X18568125Y-13773155D02*
X18528125Y-13813155D01*
X18558125Y-8276913D02*
X18598125Y-8316913D01*
X18598125Y-8276913D02*
X18558125Y-8316913D01*
X18640355Y-8794117D02*
X18680355Y-8834117D01*
X18680355Y-8794117D02*
X18640355Y-8834117D01*
X18740355Y-8742500D02*
X18780355Y-8782500D01*
X18780355Y-8742500D02*
X18740355Y-8782500D01*
X18840355Y-9213561D02*
X18880355Y-9253561D01*
X18880355Y-9213561D02*
X18840355Y-9253561D01*
X18939399Y-9008523D02*
X18979399Y-9048523D01*
X18979399Y-9008523D02*
X18939399Y-9048523D01*
X19240355Y-9194645D02*
X19280355Y-9234645D01*
X19280355Y-9194645D02*
X19240355Y-9234645D01*
D13*
X17685000Y-9162500D02*
G75*
G03*
X17685000Y-9162500I-35000J0D01*
G01*
X17685000Y-9362500D02*
G75*
G03*
X17685000Y-9362500I-35000J0D01*
G01*
D14*
X17697375Y-7078625D02*
X17697375Y-7178625D01*
X17647375Y-7128625D02*
X17747375Y-7128625D01*
X17697375Y-7332625D02*
X17697375Y-7432625D01*
X17647375Y-7382625D02*
X17747375Y-7382625D01*
X17697375Y-7586625D02*
X17697375Y-7686625D01*
X17647375Y-7636625D02*
X17747375Y-7636625D01*
X17697375Y-7840625D02*
X17697375Y-7940625D01*
X17647375Y-7890625D02*
X17747375Y-7890625D01*
X17697375Y-8094625D02*
X17697375Y-8194625D01*
X17647375Y-8144625D02*
X17747375Y-8144625D01*
X17697375Y-8348625D02*
X17697375Y-8448625D01*
X17647375Y-8398625D02*
X17747375Y-8398625D01*
X17697375Y-8602625D02*
X17697375Y-8702625D01*
X17647375Y-8652625D02*
X17747375Y-8652625D01*
X19221375Y-7078625D02*
X19221375Y-7178625D01*
X19171375Y-7128625D02*
X19271375Y-7128625D01*
X19221375Y-7332625D02*
X19221375Y-7432625D01*
X19171375Y-7382625D02*
X19271375Y-7382625D01*
X19221375Y-7586625D02*
X19221375Y-7686625D01*
X19171375Y-7636625D02*
X19271375Y-7636625D01*
X19221375Y-7840625D02*
X19221375Y-7940625D01*
X19171375Y-7890625D02*
X19271375Y-7890625D01*
X19221375Y-8094625D02*
X19221375Y-8194625D01*
X19171375Y-8144625D02*
X19271375Y-8144625D01*
X19221375Y-8348625D02*
X19221375Y-8448625D01*
X19171375Y-8398625D02*
X19271375Y-8398625D01*
X19221375Y-8602625D02*
X19221375Y-8702625D01*
X19171375Y-8652625D02*
X19271375Y-8652625D01*
D15*
X18050796Y-7704346D02*
X18050796Y-7632504D01*
X17978954Y-7632504D01*
X17978954Y-7704346D01*
X18050796Y-7704346D01*
X18050796Y-7894846D02*
X18050796Y-7823004D01*
X17978954Y-7823004D01*
X17978954Y-7894846D01*
X18050796Y-7894846D01*
X18368296Y-7069346D02*
X18368296Y-6997504D01*
X18296454Y-6997504D01*
X18296454Y-7069346D01*
X18368296Y-7069346D01*
X18368296Y-7323346D02*
X18368296Y-7251504D01*
X18296454Y-7251504D01*
X18296454Y-7323346D01*
X18368296Y-7323346D01*
X18622296Y-7069346D02*
X18622296Y-6997504D01*
X18550454Y-6997504D01*
X18550454Y-7069346D01*
X18622296Y-7069346D01*
X18622296Y-7323346D02*
X18622296Y-7251504D01*
X18550454Y-7251504D01*
X18550454Y-7323346D01*
X18622296Y-7323346D01*
X18939796Y-7704346D02*
X18939796Y-7632504D01*
X18867954Y-7632504D01*
X18867954Y-7704346D01*
X18939796Y-7704346D01*
X18939796Y-7894846D02*
X18939796Y-7823004D01*
X18867954Y-7823004D01*
X18867954Y-7894846D01*
X18939796Y-7894846D01*
D16*
X6619000Y-7528500D02*
X6689000Y-7458500D01*
X6619000Y-7388500D01*
X6549000Y-7458500D01*
X6619000Y-7528500D01*
X6619000Y-9428500D02*
X6689000Y-9358500D01*
X6619000Y-9288500D01*
X6549000Y-9358500D01*
X6619000Y-9428500D01*
X6619000Y-11328500D02*
X6689000Y-11258500D01*
X6619000Y-11188500D01*
X6549000Y-11258500D01*
X6619000Y-11328500D01*
X6746000Y-7274500D02*
X6816000Y-7204500D01*
X6746000Y-7134500D01*
X6676000Y-7204500D01*
X6746000Y-7274500D01*
X6746000Y-9174500D02*
X6816000Y-9104500D01*
X6746000Y-9034500D01*
X6676000Y-9104500D01*
X6746000Y-9174500D01*
X6746000Y-11074500D02*
X6816000Y-11004500D01*
X6746000Y-10934500D01*
X6676000Y-11004500D01*
X6746000Y-11074500D01*
X7254000Y-7274500D02*
X7324000Y-7204500D01*
X7254000Y-7134500D01*
X7184000Y-7204500D01*
X7254000Y-7274500D01*
X7254000Y-9174500D02*
X7324000Y-9104500D01*
X7254000Y-9034500D01*
X7184000Y-9104500D01*
X7254000Y-9174500D01*
X7254000Y-11074500D02*
X7324000Y-11004500D01*
X7254000Y-10934500D01*
X7184000Y-11004500D01*
X7254000Y-11074500D01*
X7381000Y-7528500D02*
X7451000Y-7458500D01*
X7381000Y-7388500D01*
X7311000Y-7458500D01*
X7381000Y-7528500D01*
X7381000Y-9428500D02*
X7451000Y-9358500D01*
X7381000Y-9288500D01*
X7311000Y-9358500D01*
X7381000Y-9428500D01*
X7381000Y-11328500D02*
X7451000Y-11258500D01*
X7381000Y-11188500D01*
X7311000Y-11258500D01*
X7381000Y-11328500D01*
X8519000Y-7528500D02*
X8589000Y-7458500D01*
X8519000Y-7388500D01*
X8449000Y-7458500D01*
X8519000Y-7528500D01*
X8519000Y-9428500D02*
X8589000Y-9358500D01*
X8519000Y-9288500D01*
X8449000Y-9358500D01*
X8519000Y-9428500D01*
X8519000Y-11328500D02*
X8589000Y-11258500D01*
X8519000Y-11188500D01*
X8449000Y-11258500D01*
X8519000Y-11328500D01*
X8646000Y-7274500D02*
X8716000Y-7204500D01*
X8646000Y-7134500D01*
X8576000Y-7204500D01*
X8646000Y-7274500D01*
X8646000Y-9174500D02*
X8716000Y-9104500D01*
X8646000Y-9034500D01*
X8576000Y-9104500D01*
X8646000Y-9174500D01*
X8646000Y-11074500D02*
X8716000Y-11004500D01*
X8646000Y-10934500D01*
X8576000Y-11004500D01*
X8646000Y-11074500D01*
X9154000Y-7274500D02*
X9224000Y-7204500D01*
X9154000Y-7134500D01*
X9084000Y-7204500D01*
X9154000Y-7274500D01*
X9154000Y-9174500D02*
X9224000Y-9104500D01*
X9154000Y-9034500D01*
X9084000Y-9104500D01*
X9154000Y-9174500D01*
X9154000Y-11074500D02*
X9224000Y-11004500D01*
X9154000Y-10934500D01*
X9084000Y-11004500D01*
X9154000Y-11074500D01*
X9281000Y-7528500D02*
X9351000Y-7458500D01*
X9281000Y-7388500D01*
X9211000Y-7458500D01*
X9281000Y-7528500D01*
X9281000Y-9428500D02*
X9351000Y-9358500D01*
X9281000Y-9288500D01*
X9211000Y-9358500D01*
X9281000Y-9428500D01*
X9281000Y-11328500D02*
X9351000Y-11258500D01*
X9281000Y-11188500D01*
X9211000Y-11258500D01*
X9281000Y-11328500D01*
X10419000Y-7053500D02*
X10489000Y-6983500D01*
X10419000Y-6913500D01*
X10349000Y-6983500D01*
X10419000Y-7053500D01*
X10419000Y-8953500D02*
X10489000Y-8883500D01*
X10419000Y-8813500D01*
X10349000Y-8883500D01*
X10419000Y-8953500D01*
X10419000Y-10853500D02*
X10489000Y-10783500D01*
X10419000Y-10713500D01*
X10349000Y-10783500D01*
X10419000Y-10853500D01*
X10546000Y-6799500D02*
X10616000Y-6729500D01*
X10546000Y-6659500D01*
X10476000Y-6729500D01*
X10546000Y-6799500D01*
X10546000Y-8699500D02*
X10616000Y-8629500D01*
X10546000Y-8559500D01*
X10476000Y-8629500D01*
X10546000Y-8699500D01*
X10546000Y-10599500D02*
X10616000Y-10529500D01*
X10546000Y-10459500D01*
X10476000Y-10529500D01*
X10546000Y-10599500D01*
X11054000Y-6799500D02*
X11124000Y-6729500D01*
X11054000Y-6659500D01*
X10984000Y-6729500D01*
X11054000Y-6799500D01*
X11054000Y-8699500D02*
X11124000Y-8629500D01*
X11054000Y-8559500D01*
X10984000Y-8629500D01*
X11054000Y-8699500D01*
X11054000Y-10599500D02*
X11124000Y-10529500D01*
X11054000Y-10459500D01*
X10984000Y-10529500D01*
X11054000Y-10599500D01*
X11181000Y-7053500D02*
X11251000Y-6983500D01*
X11181000Y-6913500D01*
X11111000Y-6983500D01*
X11181000Y-7053500D01*
X11181000Y-8953500D02*
X11251000Y-8883500D01*
X11181000Y-8813500D01*
X11111000Y-8883500D01*
X11181000Y-8953500D01*
X11181000Y-10853500D02*
X11251000Y-10783500D01*
X11181000Y-10713500D01*
X11111000Y-10783500D01*
X11181000Y-10853500D01*
X12319000Y-6816000D02*
X12389000Y-6746000D01*
X12319000Y-6676000D01*
X12249000Y-6746000D01*
X12319000Y-6816000D01*
X12319000Y-8716000D02*
X12389000Y-8646000D01*
X12319000Y-8576000D01*
X12249000Y-8646000D01*
X12319000Y-8716000D01*
X12319000Y-10616000D02*
X12389000Y-10546000D01*
X12319000Y-10476000D01*
X12249000Y-10546000D01*
X12319000Y-10616000D01*
X12446000Y-6562000D02*
X12516000Y-6492000D01*
X12446000Y-6422000D01*
X12376000Y-6492000D01*
X12446000Y-6562000D01*
X12446000Y-8462000D02*
X12516000Y-8392000D01*
X12446000Y-8322000D01*
X12376000Y-8392000D01*
X12446000Y-8462000D01*
X12446000Y-10362000D02*
X12516000Y-10292000D01*
X12446000Y-10222000D01*
X12376000Y-10292000D01*
X12446000Y-10362000D01*
X12954000Y-6562000D02*
X13024000Y-6492000D01*
X12954000Y-6422000D01*
X12884000Y-6492000D01*
X12954000Y-6562000D01*
X12954000Y-8462000D02*
X13024000Y-8392000D01*
X12954000Y-8322000D01*
X12884000Y-8392000D01*
X12954000Y-8462000D01*
X12954000Y-10362000D02*
X13024000Y-10292000D01*
X12954000Y-10222000D01*
X12884000Y-10292000D01*
X12954000Y-10362000D01*
X13081000Y-6816000D02*
X13151000Y-6746000D01*
X13081000Y-6676000D01*
X13011000Y-6746000D01*
X13081000Y-6816000D01*
X13081000Y-8716000D02*
X13151000Y-8646000D01*
X13081000Y-8576000D01*
X13011000Y-8646000D01*
X13081000Y-8716000D01*
X13081000Y-10616000D02*
X13151000Y-10546000D01*
X13081000Y-10476000D01*
X13011000Y-10546000D01*
X13081000Y-10616000D01*
X13269000Y-12809750D02*
X13339000Y-12739750D01*
X13269000Y-12669750D01*
X13199000Y-12739750D01*
X13269000Y-12809750D01*
X13396000Y-12555750D02*
X13466000Y-12485750D01*
X13396000Y-12415750D01*
X13326000Y-12485750D01*
X13396000Y-12555750D01*
X13904000Y-12555750D02*
X13974000Y-12485750D01*
X13904000Y-12415750D01*
X13834000Y-12485750D01*
X13904000Y-12555750D01*
X14031000Y-12809750D02*
X14101000Y-12739750D01*
X14031000Y-12669750D01*
X13961000Y-12739750D01*
X14031000Y-12809750D01*
X14219000Y-7053500D02*
X14289000Y-6983500D01*
X14219000Y-6913500D01*
X14149000Y-6983500D01*
X14219000Y-7053500D01*
X14219000Y-8953500D02*
X14289000Y-8883500D01*
X14219000Y-8813500D01*
X14149000Y-8883500D01*
X14219000Y-8953500D01*
X14219000Y-10853500D02*
X14289000Y-10783500D01*
X14219000Y-10713500D01*
X14149000Y-10783500D01*
X14219000Y-10853500D01*
X14346000Y-6799500D02*
X14416000Y-6729500D01*
X14346000Y-6659500D01*
X14276000Y-6729500D01*
X14346000Y-6799500D01*
X14346000Y-8699500D02*
X14416000Y-8629500D01*
X14346000Y-8559500D01*
X14276000Y-8629500D01*
X14346000Y-8699500D01*
X14346000Y-10599500D02*
X14416000Y-10529500D01*
X14346000Y-10459500D01*
X14276000Y-10529500D01*
X14346000Y-10599500D01*
X14854000Y-6799500D02*
X14924000Y-6729500D01*
X14854000Y-6659500D01*
X14784000Y-6729500D01*
X14854000Y-6799500D01*
X14854000Y-8699500D02*
X14924000Y-8629500D01*
X14854000Y-8559500D01*
X14784000Y-8629500D01*
X14854000Y-8699500D01*
X14854000Y-10599500D02*
X14924000Y-10529500D01*
X14854000Y-10459500D01*
X14784000Y-10529500D01*
X14854000Y-10599500D01*
X14981000Y-7053500D02*
X15051000Y-6983500D01*
X14981000Y-6913500D01*
X14911000Y-6983500D01*
X14981000Y-7053500D01*
X14981000Y-8953500D02*
X15051000Y-8883500D01*
X14981000Y-8813500D01*
X14911000Y-8883500D01*
X14981000Y-8953500D01*
X14981000Y-10853500D02*
X15051000Y-10783500D01*
X14981000Y-10713500D01*
X14911000Y-10783500D01*
X14981000Y-10853500D01*
X15403972Y-13038545D02*
X15473972Y-12968545D01*
X15403972Y-12898545D01*
X15333972Y-12968545D01*
X15403972Y-13038545D01*
X15592385Y-12826070D02*
X15662385Y-12756070D01*
X15592385Y-12686070D01*
X15522385Y-12756070D01*
X15592385Y-12826070D01*
X16083075Y-12957550D02*
X16153075Y-12887550D01*
X16083075Y-12817550D01*
X16013075Y-12887550D01*
X16083075Y-12957550D01*
X16119000Y-7291000D02*
X16189000Y-7221000D01*
X16119000Y-7151000D01*
X16049000Y-7221000D01*
X16119000Y-7291000D01*
X16119000Y-9191000D02*
X16189000Y-9121000D01*
X16119000Y-9051000D01*
X16049000Y-9121000D01*
X16119000Y-9191000D01*
X16119000Y-11091000D02*
X16189000Y-11021000D01*
X16119000Y-10951000D01*
X16049000Y-11021000D01*
X16119000Y-11091000D01*
X16140008Y-13235765D02*
X16210008Y-13165765D01*
X16140008Y-13095765D01*
X16070008Y-13165765D01*
X16140008Y-13235765D01*
X16246000Y-7037000D02*
X16316000Y-6967000D01*
X16246000Y-6897000D01*
X16176000Y-6967000D01*
X16246000Y-7037000D01*
X16246000Y-8937000D02*
X16316000Y-8867000D01*
X16246000Y-8797000D01*
X16176000Y-8867000D01*
X16246000Y-8937000D01*
X16246000Y-10837000D02*
X16316000Y-10767000D01*
X16246000Y-10697000D01*
X16176000Y-10767000D01*
X16246000Y-10837000D01*
X16754000Y-7037000D02*
X16824000Y-6967000D01*
X16754000Y-6897000D01*
X16684000Y-6967000D01*
X16754000Y-7037000D01*
X16754000Y-8937000D02*
X16824000Y-8867000D01*
X16754000Y-8797000D01*
X16684000Y-8867000D01*
X16754000Y-8937000D01*
X16754000Y-10837000D02*
X16824000Y-10767000D01*
X16754000Y-10697000D01*
X16684000Y-10767000D01*
X16754000Y-10837000D01*
X16881000Y-7291000D02*
X16951000Y-7221000D01*
X16881000Y-7151000D01*
X16811000Y-7221000D01*
X16881000Y-7291000D01*
X16881000Y-9191000D02*
X16951000Y-9121000D01*
X16881000Y-9051000D01*
X16811000Y-9121000D01*
X16881000Y-9191000D01*
X16881000Y-11091000D02*
X16951000Y-11021000D01*
X16881000Y-10951000D01*
X16811000Y-11021000D01*
X16881000Y-11091000D01*
X17426809Y-13685970D02*
X17496809Y-13615970D01*
X17426809Y-13545970D01*
X17356809Y-13615970D01*
X17426809Y-13685970D01*
X17583280Y-13922956D02*
X17653280Y-13852956D01*
X17583280Y-13782956D01*
X17513280Y-13852956D01*
X17583280Y-13922956D01*
X17680809Y-13246029D02*
X17750809Y-13176029D01*
X17680809Y-13106029D01*
X17610809Y-13176029D01*
X17680809Y-13246029D01*
X17964280Y-13263044D02*
X18034280Y-13193044D01*
X17964280Y-13123044D01*
X17894280Y-13193044D01*
X17964280Y-13263044D01*
D17*
X17549375Y-9972800D02*
X17769375Y-10192800D01*
X17769375Y-9972800D02*
X17549375Y-10192800D01*
X17769375Y-10082800D02*
G75*
G03*
X17769375Y-10082800I-110000J0D01*
G01*
X17549375Y-10972800D02*
X17769375Y-11192800D01*
X17769375Y-10972800D02*
X17549375Y-11192800D01*
X17769375Y-11082800D02*
G75*
G03*
X17769375Y-11082800I-110000J0D01*
G01*
X17549375Y-11972800D02*
X17769375Y-12192800D01*
X17769375Y-11972800D02*
X17549375Y-12192800D01*
X17769375Y-12082800D02*
G75*
G03*
X17769375Y-12082800I-110000J0D01*
G01*
X19149375Y-9972800D02*
X19369375Y-10192800D01*
X19369375Y-9972800D02*
X19149375Y-10192800D01*
X19369375Y-10082800D02*
G75*
G03*
X19369375Y-10082800I-110000J0D01*
G01*
X19149375Y-10972800D02*
X19369375Y-11192800D01*
X19369375Y-10972800D02*
X19149375Y-11192800D01*
X19369375Y-11082800D02*
G75*
G03*
X19369375Y-11082800I-110000J0D01*
G01*
X19149375Y-11972800D02*
X19369375Y-12192800D01*
X19369375Y-11972800D02*
X19149375Y-12192800D01*
X19369375Y-12082800D02*
G75*
G03*
X19369375Y-12082800I-110000J0D01*
G01*
D18*
X7746000Y-8470000D02*
X8156000Y-8880000D01*
X8156000Y-8470000D02*
X7746000Y-8880000D01*
X7951000Y-8470000D02*
X7951000Y-8880000D01*
X7746000Y-8675000D02*
X8156000Y-8675000D01*
X7746000Y-10370000D02*
X8156000Y-10780000D01*
X8156000Y-10370000D02*
X7746000Y-10780000D01*
X7951000Y-10370000D02*
X7951000Y-10780000D01*
X7746000Y-10575000D02*
X8156000Y-10575000D01*
X12070000Y-12070000D02*
X12480000Y-12480000D01*
X12480000Y-12070000D02*
X12070000Y-12480000D01*
X12275000Y-12070000D02*
X12275000Y-12480000D01*
X12070000Y-12275000D02*
X12480000Y-12275000D01*
X15346000Y-8095000D02*
X15756000Y-8505000D01*
X15756000Y-8095000D02*
X15346000Y-8505000D01*
X15551000Y-8095000D02*
X15551000Y-8505000D01*
X15346000Y-8300000D02*
X15756000Y-8300000D01*
X16720000Y-12845003D02*
X17130000Y-13255003D01*
X17130000Y-12845003D02*
X16720000Y-13255003D01*
X16925000Y-12845003D02*
X16925000Y-13255003D01*
X16720000Y-13050003D02*
X17130000Y-13050003D01*
D11*
X6362652Y-15558754D02*
X6362652Y-15358754D01*
X6362652Y-15358754D02*
X6410271Y-15358754D01*
X6410271Y-15358754D02*
X6438842Y-15368278D01*
X6438842Y-15368278D02*
X6457890Y-15387325D01*
X6457890Y-15387325D02*
X6467414Y-15406373D01*
X6467414Y-15406373D02*
X6476937Y-15444468D01*
X6476937Y-15444468D02*
X6476937Y-15473040D01*
X6476937Y-15473040D02*
X6467414Y-15511135D01*
X6467414Y-15511135D02*
X6457890Y-15530182D01*
X6457890Y-15530182D02*
X6438842Y-15549230D01*
X6438842Y-15549230D02*
X6410271Y-15558754D01*
X6410271Y-15558754D02*
X6362652Y-15558754D01*
X6562652Y-15558754D02*
X6562652Y-15425420D01*
X6562652Y-15463516D02*
X6572176Y-15444468D01*
X6572176Y-15444468D02*
X6581699Y-15434944D01*
X6581699Y-15434944D02*
X6600747Y-15425420D01*
X6600747Y-15425420D02*
X6619795Y-15425420D01*
X6686461Y-15558754D02*
X6686461Y-15425420D01*
X6686461Y-15358754D02*
X6676937Y-15368278D01*
X6676937Y-15368278D02*
X6686461Y-15377801D01*
X6686461Y-15377801D02*
X6695985Y-15368278D01*
X6695985Y-15368278D02*
X6686461Y-15358754D01*
X6686461Y-15358754D02*
X6686461Y-15377801D01*
X6810271Y-15558754D02*
X6791223Y-15549230D01*
X6791223Y-15549230D02*
X6781699Y-15530182D01*
X6781699Y-15530182D02*
X6781699Y-15358754D01*
X6915033Y-15558754D02*
X6895985Y-15549230D01*
X6895985Y-15549230D02*
X6886461Y-15530182D01*
X6886461Y-15530182D02*
X6886461Y-15358754D01*
X7143604Y-15558754D02*
X7143604Y-15358754D01*
X7143604Y-15358754D02*
X7210271Y-15501611D01*
X7210271Y-15501611D02*
X7276937Y-15358754D01*
X7276937Y-15358754D02*
X7276937Y-15558754D01*
X7457890Y-15558754D02*
X7457890Y-15453992D01*
X7457890Y-15453992D02*
X7448366Y-15434944D01*
X7448366Y-15434944D02*
X7429318Y-15425420D01*
X7429318Y-15425420D02*
X7391223Y-15425420D01*
X7391223Y-15425420D02*
X7372176Y-15434944D01*
X7457890Y-15549230D02*
X7438842Y-15558754D01*
X7438842Y-15558754D02*
X7391223Y-15558754D01*
X7391223Y-15558754D02*
X7372176Y-15549230D01*
X7372176Y-15549230D02*
X7362652Y-15530182D01*
X7362652Y-15530182D02*
X7362652Y-15511135D01*
X7362652Y-15511135D02*
X7372176Y-15492087D01*
X7372176Y-15492087D02*
X7391223Y-15482563D01*
X7391223Y-15482563D02*
X7438842Y-15482563D01*
X7438842Y-15482563D02*
X7457890Y-15473040D01*
X7553128Y-15425420D02*
X7553128Y-15625420D01*
X7553128Y-15434944D02*
X7572176Y-15425420D01*
X7572176Y-15425420D02*
X7610271Y-15425420D01*
X7610271Y-15425420D02*
X7629318Y-15434944D01*
X7629318Y-15434944D02*
X7638842Y-15444468D01*
X7638842Y-15444468D02*
X7648366Y-15463516D01*
X7648366Y-15463516D02*
X7648366Y-15520659D01*
X7648366Y-15520659D02*
X7638842Y-15539706D01*
X7638842Y-15539706D02*
X7629318Y-15549230D01*
X7629318Y-15549230D02*
X7610271Y-15558754D01*
X7610271Y-15558754D02*
X7572176Y-15558754D01*
X7572176Y-15558754D02*
X7553128Y-15549230D01*
X7734080Y-15539706D02*
X7743604Y-15549230D01*
X7743604Y-15549230D02*
X7734080Y-15558754D01*
X7734080Y-15558754D02*
X7724557Y-15549230D01*
X7724557Y-15549230D02*
X7734080Y-15539706D01*
X7734080Y-15539706D02*
X7734080Y-15558754D01*
X7734080Y-15434944D02*
X7743604Y-15444468D01*
X7743604Y-15444468D02*
X7734080Y-15453992D01*
X7734080Y-15453992D02*
X7724557Y-15444468D01*
X7724557Y-15444468D02*
X7734080Y-15434944D01*
X7734080Y-15434944D02*
X7734080Y-15453992D01*
D12*
X6061875Y-15867270D02*
X6101875Y-15907270D01*
X6101875Y-15867270D02*
X6061875Y-15907270D01*
D11*
X6400747Y-15778754D02*
X6419795Y-15778754D01*
X6419795Y-15778754D02*
X6438842Y-15788278D01*
X6438842Y-15788278D02*
X6448366Y-15797801D01*
X6448366Y-15797801D02*
X6457890Y-15816849D01*
X6457890Y-15816849D02*
X6467414Y-15854944D01*
X6467414Y-15854944D02*
X6467414Y-15902563D01*
X6467414Y-15902563D02*
X6457890Y-15940659D01*
X6457890Y-15940659D02*
X6448366Y-15959706D01*
X6448366Y-15959706D02*
X6438842Y-15969230D01*
X6438842Y-15969230D02*
X6419795Y-15978754D01*
X6419795Y-15978754D02*
X6400747Y-15978754D01*
X6400747Y-15978754D02*
X6381699Y-15969230D01*
X6381699Y-15969230D02*
X6372176Y-15959706D01*
X6372176Y-15959706D02*
X6362652Y-15940659D01*
X6362652Y-15940659D02*
X6353128Y-15902563D01*
X6353128Y-15902563D02*
X6353128Y-15854944D01*
X6353128Y-15854944D02*
X6362652Y-15816849D01*
X6362652Y-15816849D02*
X6372176Y-15797801D01*
X6372176Y-15797801D02*
X6381699Y-15788278D01*
X6381699Y-15788278D02*
X6400747Y-15778754D01*
X6553128Y-15959706D02*
X6562652Y-15969230D01*
X6562652Y-15969230D02*
X6553128Y-15978754D01*
X6553128Y-15978754D02*
X6543604Y-15969230D01*
X6543604Y-15969230D02*
X6553128Y-15959706D01*
X6553128Y-15959706D02*
X6553128Y-15978754D01*
X6734080Y-15845420D02*
X6734080Y-15978754D01*
X6686461Y-15769230D02*
X6638842Y-15912087D01*
X6638842Y-15912087D02*
X6762652Y-15912087D01*
X6876937Y-15778754D02*
X6895985Y-15778754D01*
X6895985Y-15778754D02*
X6915033Y-15788278D01*
X6915033Y-15788278D02*
X6924557Y-15797801D01*
X6924557Y-15797801D02*
X6934080Y-15816849D01*
X6934080Y-15816849D02*
X6943604Y-15854944D01*
X6943604Y-15854944D02*
X6943604Y-15902563D01*
X6943604Y-15902563D02*
X6934080Y-15940659D01*
X6934080Y-15940659D02*
X6924557Y-15959706D01*
X6924557Y-15959706D02*
X6915033Y-15969230D01*
X6915033Y-15969230D02*
X6895985Y-15978754D01*
X6895985Y-15978754D02*
X6876937Y-15978754D01*
X6876937Y-15978754D02*
X6857890Y-15969230D01*
X6857890Y-15969230D02*
X6848366Y-15959706D01*
X6848366Y-15959706D02*
X6838842Y-15940659D01*
X6838842Y-15940659D02*
X6829318Y-15902563D01*
X6829318Y-15902563D02*
X6829318Y-15854944D01*
X6829318Y-15854944D02*
X6838842Y-15816849D01*
X6838842Y-15816849D02*
X6848366Y-15797801D01*
X6848366Y-15797801D02*
X6857890Y-15788278D01*
X6857890Y-15788278D02*
X6876937Y-15778754D01*
X7067414Y-15778754D02*
X7086461Y-15778754D01*
X7086461Y-15778754D02*
X7105509Y-15788278D01*
X7105509Y-15788278D02*
X7115033Y-15797801D01*
X7115033Y-15797801D02*
X7124557Y-15816849D01*
X7124557Y-15816849D02*
X7134080Y-15854944D01*
X7134080Y-15854944D02*
X7134080Y-15902563D01*
X7134080Y-15902563D02*
X7124557Y-15940659D01*
X7124557Y-15940659D02*
X7115033Y-15959706D01*
X7115033Y-15959706D02*
X7105509Y-15969230D01*
X7105509Y-15969230D02*
X7086461Y-15978754D01*
X7086461Y-15978754D02*
X7067414Y-15978754D01*
X7067414Y-15978754D02*
X7048366Y-15969230D01*
X7048366Y-15969230D02*
X7038842Y-15959706D01*
X7038842Y-15959706D02*
X7029318Y-15940659D01*
X7029318Y-15940659D02*
X7019795Y-15902563D01*
X7019795Y-15902563D02*
X7019795Y-15854944D01*
X7019795Y-15854944D02*
X7029318Y-15816849D01*
X7029318Y-15816849D02*
X7038842Y-15797801D01*
X7038842Y-15797801D02*
X7048366Y-15788278D01*
X7048366Y-15788278D02*
X7067414Y-15778754D01*
X7219795Y-15978754D02*
X7219795Y-15845420D01*
X7219795Y-15864468D02*
X7229318Y-15854944D01*
X7229318Y-15854944D02*
X7248366Y-15845420D01*
X7248366Y-15845420D02*
X7276938Y-15845420D01*
X7276938Y-15845420D02*
X7295985Y-15854944D01*
X7295985Y-15854944D02*
X7305509Y-15873992D01*
X7305509Y-15873992D02*
X7305509Y-15978754D01*
X7305509Y-15873992D02*
X7315033Y-15854944D01*
X7315033Y-15854944D02*
X7334080Y-15845420D01*
X7334080Y-15845420D02*
X7362652Y-15845420D01*
X7362652Y-15845420D02*
X7381699Y-15854944D01*
X7381699Y-15854944D02*
X7391223Y-15873992D01*
X7391223Y-15873992D02*
X7391223Y-15978754D01*
X7486461Y-15978754D02*
X7486461Y-15845420D01*
X7486461Y-15864468D02*
X7495985Y-15854944D01*
X7495985Y-15854944D02*
X7515033Y-15845420D01*
X7515033Y-15845420D02*
X7543604Y-15845420D01*
X7543604Y-15845420D02*
X7562652Y-15854944D01*
X7562652Y-15854944D02*
X7572176Y-15873992D01*
X7572176Y-15873992D02*
X7572176Y-15978754D01*
X7572176Y-15873992D02*
X7581699Y-15854944D01*
X7581699Y-15854944D02*
X7600747Y-15845420D01*
X7600747Y-15845420D02*
X7629318Y-15845420D01*
X7629318Y-15845420D02*
X7648366Y-15854944D01*
X7648366Y-15854944D02*
X7657890Y-15873992D01*
X7657890Y-15873992D02*
X7657890Y-15978754D01*
X8048366Y-15769230D02*
X7876938Y-16026373D01*
X8305509Y-15778754D02*
X8324557Y-15778754D01*
X8324557Y-15778754D02*
X8343604Y-15788278D01*
X8343604Y-15788278D02*
X8353128Y-15797801D01*
X8353128Y-15797801D02*
X8362652Y-15816849D01*
X8362652Y-15816849D02*
X8372176Y-15854944D01*
X8372176Y-15854944D02*
X8372176Y-15902563D01*
X8372176Y-15902563D02*
X8362652Y-15940659D01*
X8362652Y-15940659D02*
X8353128Y-15959706D01*
X8353128Y-15959706D02*
X8343604Y-15969230D01*
X8343604Y-15969230D02*
X8324557Y-15978754D01*
X8324557Y-15978754D02*
X8305509Y-15978754D01*
X8305509Y-15978754D02*
X8286461Y-15969230D01*
X8286461Y-15969230D02*
X8276938Y-15959706D01*
X8276938Y-15959706D02*
X8267414Y-15940659D01*
X8267414Y-15940659D02*
X8257890Y-15902563D01*
X8257890Y-15902563D02*
X8257890Y-15854944D01*
X8257890Y-15854944D02*
X8267414Y-15816849D01*
X8267414Y-15816849D02*
X8276938Y-15797801D01*
X8276938Y-15797801D02*
X8286461Y-15788278D01*
X8286461Y-15788278D02*
X8305509Y-15778754D01*
X8457890Y-15959706D02*
X8467414Y-15969230D01*
X8467414Y-15969230D02*
X8457890Y-15978754D01*
X8457890Y-15978754D02*
X8448366Y-15969230D01*
X8448366Y-15969230D02*
X8457890Y-15959706D01*
X8457890Y-15959706D02*
X8457890Y-15978754D01*
X8591223Y-15778754D02*
X8610271Y-15778754D01*
X8610271Y-15778754D02*
X8629319Y-15788278D01*
X8629319Y-15788278D02*
X8638843Y-15797801D01*
X8638843Y-15797801D02*
X8648366Y-15816849D01*
X8648366Y-15816849D02*
X8657890Y-15854944D01*
X8657890Y-15854944D02*
X8657890Y-15902563D01*
X8657890Y-15902563D02*
X8648366Y-15940659D01*
X8648366Y-15940659D02*
X8638843Y-15959706D01*
X8638843Y-15959706D02*
X8629319Y-15969230D01*
X8629319Y-15969230D02*
X8610271Y-15978754D01*
X8610271Y-15978754D02*
X8591223Y-15978754D01*
X8591223Y-15978754D02*
X8572176Y-15969230D01*
X8572176Y-15969230D02*
X8562652Y-15959706D01*
X8562652Y-15959706D02*
X8553128Y-15940659D01*
X8553128Y-15940659D02*
X8543604Y-15902563D01*
X8543604Y-15902563D02*
X8543604Y-15854944D01*
X8543604Y-15854944D02*
X8553128Y-15816849D01*
X8553128Y-15816849D02*
X8562652Y-15797801D01*
X8562652Y-15797801D02*
X8572176Y-15788278D01*
X8572176Y-15788278D02*
X8591223Y-15778754D01*
X8848366Y-15978754D02*
X8734081Y-15978754D01*
X8791223Y-15978754D02*
X8791223Y-15778754D01*
X8791223Y-15778754D02*
X8772176Y-15807325D01*
X8772176Y-15807325D02*
X8753128Y-15826373D01*
X8753128Y-15826373D02*
X8734081Y-15835897D01*
X9029319Y-15778754D02*
X8934081Y-15778754D01*
X8934081Y-15778754D02*
X8924557Y-15873992D01*
X8924557Y-15873992D02*
X8934081Y-15864468D01*
X8934081Y-15864468D02*
X8953128Y-15854944D01*
X8953128Y-15854944D02*
X9000747Y-15854944D01*
X9000747Y-15854944D02*
X9019795Y-15864468D01*
X9019795Y-15864468D02*
X9029319Y-15873992D01*
X9029319Y-15873992D02*
X9038843Y-15893040D01*
X9038843Y-15893040D02*
X9038843Y-15940659D01*
X9038843Y-15940659D02*
X9029319Y-15959706D01*
X9029319Y-15959706D02*
X9019795Y-15969230D01*
X9019795Y-15969230D02*
X9000747Y-15978754D01*
X9000747Y-15978754D02*
X8953128Y-15978754D01*
X8953128Y-15978754D02*
X8934081Y-15969230D01*
X8934081Y-15969230D02*
X8924557Y-15959706D01*
X9105509Y-15778754D02*
X9238843Y-15778754D01*
X9238843Y-15778754D02*
X9153128Y-15978754D01*
X9305509Y-15778754D02*
X9305509Y-15816849D01*
X9381700Y-15778754D02*
X9381700Y-15816849D01*
X9676938Y-16054944D02*
X9667414Y-16045420D01*
X9667414Y-16045420D02*
X9648366Y-16016849D01*
X9648366Y-16016849D02*
X9638843Y-15997801D01*
X9638843Y-15997801D02*
X9629319Y-15969230D01*
X9629319Y-15969230D02*
X9619795Y-15921611D01*
X9619795Y-15921611D02*
X9619795Y-15883516D01*
X9619795Y-15883516D02*
X9629319Y-15835897D01*
X9629319Y-15835897D02*
X9638843Y-15807325D01*
X9638843Y-15807325D02*
X9648366Y-15788278D01*
X9648366Y-15788278D02*
X9667414Y-15759706D01*
X9667414Y-15759706D02*
X9676938Y-15750182D01*
X9781700Y-15864468D02*
X9762652Y-15854944D01*
X9762652Y-15854944D02*
X9753128Y-15845420D01*
X9753128Y-15845420D02*
X9743605Y-15826373D01*
X9743605Y-15826373D02*
X9743605Y-15816849D01*
X9743605Y-15816849D02*
X9753128Y-15797801D01*
X9753128Y-15797801D02*
X9762652Y-15788278D01*
X9762652Y-15788278D02*
X9781700Y-15778754D01*
X9781700Y-15778754D02*
X9819795Y-15778754D01*
X9819795Y-15778754D02*
X9838843Y-15788278D01*
X9838843Y-15788278D02*
X9848366Y-15797801D01*
X9848366Y-15797801D02*
X9857890Y-15816849D01*
X9857890Y-15816849D02*
X9857890Y-15826373D01*
X9857890Y-15826373D02*
X9848366Y-15845420D01*
X9848366Y-15845420D02*
X9838843Y-15854944D01*
X9838843Y-15854944D02*
X9819795Y-15864468D01*
X9819795Y-15864468D02*
X9781700Y-15864468D01*
X9781700Y-15864468D02*
X9762652Y-15873992D01*
X9762652Y-15873992D02*
X9753128Y-15883516D01*
X9753128Y-15883516D02*
X9743605Y-15902563D01*
X9743605Y-15902563D02*
X9743605Y-15940659D01*
X9743605Y-15940659D02*
X9753128Y-15959706D01*
X9753128Y-15959706D02*
X9762652Y-15969230D01*
X9762652Y-15969230D02*
X9781700Y-15978754D01*
X9781700Y-15978754D02*
X9819795Y-15978754D01*
X9819795Y-15978754D02*
X9838843Y-15969230D01*
X9838843Y-15969230D02*
X9848366Y-15959706D01*
X9848366Y-15959706D02*
X9857890Y-15940659D01*
X9857890Y-15940659D02*
X9857890Y-15902563D01*
X9857890Y-15902563D02*
X9848366Y-15883516D01*
X9848366Y-15883516D02*
X9838843Y-15873992D01*
X9838843Y-15873992D02*
X9819795Y-15864468D01*
X10029319Y-15845420D02*
X10029319Y-15978754D01*
X9981700Y-15769230D02*
X9934081Y-15912087D01*
X9934081Y-15912087D02*
X10057890Y-15912087D01*
X10286462Y-15978754D02*
X10286462Y-15778754D01*
X10372176Y-15978754D02*
X10372176Y-15873992D01*
X10372176Y-15873992D02*
X10362652Y-15854944D01*
X10362652Y-15854944D02*
X10343605Y-15845420D01*
X10343605Y-15845420D02*
X10315033Y-15845420D01*
X10315033Y-15845420D02*
X10295986Y-15854944D01*
X10295986Y-15854944D02*
X10286462Y-15864468D01*
X10495986Y-15978754D02*
X10476938Y-15969230D01*
X10476938Y-15969230D02*
X10467414Y-15959706D01*
X10467414Y-15959706D02*
X10457890Y-15940659D01*
X10457890Y-15940659D02*
X10457890Y-15883516D01*
X10457890Y-15883516D02*
X10467414Y-15864468D01*
X10467414Y-15864468D02*
X10476938Y-15854944D01*
X10476938Y-15854944D02*
X10495986Y-15845420D01*
X10495986Y-15845420D02*
X10524557Y-15845420D01*
X10524557Y-15845420D02*
X10543605Y-15854944D01*
X10543605Y-15854944D02*
X10553128Y-15864468D01*
X10553128Y-15864468D02*
X10562652Y-15883516D01*
X10562652Y-15883516D02*
X10562652Y-15940659D01*
X10562652Y-15940659D02*
X10553128Y-15959706D01*
X10553128Y-15959706D02*
X10543605Y-15969230D01*
X10543605Y-15969230D02*
X10524557Y-15978754D01*
X10524557Y-15978754D02*
X10495986Y-15978754D01*
X10676938Y-15978754D02*
X10657890Y-15969230D01*
X10657890Y-15969230D02*
X10648367Y-15950182D01*
X10648367Y-15950182D02*
X10648367Y-15778754D01*
X10829319Y-15969230D02*
X10810271Y-15978754D01*
X10810271Y-15978754D02*
X10772176Y-15978754D01*
X10772176Y-15978754D02*
X10753128Y-15969230D01*
X10753128Y-15969230D02*
X10743605Y-15950182D01*
X10743605Y-15950182D02*
X10743605Y-15873992D01*
X10743605Y-15873992D02*
X10753128Y-15854944D01*
X10753128Y-15854944D02*
X10772176Y-15845420D01*
X10772176Y-15845420D02*
X10810271Y-15845420D01*
X10810271Y-15845420D02*
X10829319Y-15854944D01*
X10829319Y-15854944D02*
X10838843Y-15873992D01*
X10838843Y-15873992D02*
X10838843Y-15893040D01*
X10838843Y-15893040D02*
X10743605Y-15912087D01*
X10915033Y-15969230D02*
X10934081Y-15978754D01*
X10934081Y-15978754D02*
X10972176Y-15978754D01*
X10972176Y-15978754D02*
X10991224Y-15969230D01*
X10991224Y-15969230D02*
X11000748Y-15950182D01*
X11000748Y-15950182D02*
X11000748Y-15940659D01*
X11000748Y-15940659D02*
X10991224Y-15921611D01*
X10991224Y-15921611D02*
X10972176Y-15912087D01*
X10972176Y-15912087D02*
X10943605Y-15912087D01*
X10943605Y-15912087D02*
X10924557Y-15902563D01*
X10924557Y-15902563D02*
X10915033Y-15883516D01*
X10915033Y-15883516D02*
X10915033Y-15873992D01*
X10915033Y-15873992D02*
X10924557Y-15854944D01*
X10924557Y-15854944D02*
X10943605Y-15845420D01*
X10943605Y-15845420D02*
X10972176Y-15845420D01*
X10972176Y-15845420D02*
X10991224Y-15854944D01*
X11067414Y-16054944D02*
X11076938Y-16045420D01*
X11076938Y-16045420D02*
X11095986Y-16016849D01*
X11095986Y-16016849D02*
X11105509Y-15997801D01*
X11105509Y-15997801D02*
X11115033Y-15969230D01*
X11115033Y-15969230D02*
X11124557Y-15921611D01*
X11124557Y-15921611D02*
X11124557Y-15883516D01*
X11124557Y-15883516D02*
X11115033Y-15835897D01*
X11115033Y-15835897D02*
X11105509Y-15807325D01*
X11105509Y-15807325D02*
X11095986Y-15788278D01*
X11095986Y-15788278D02*
X11076938Y-15759706D01*
X11076938Y-15759706D02*
X11067414Y-15750182D01*
D13*
X6101875Y-16151270D02*
G75*
G03*
X6101875Y-16151270I-35000J0D01*
G01*
D11*
X6400747Y-16042754D02*
X6419795Y-16042754D01*
X6419795Y-16042754D02*
X6438842Y-16052278D01*
X6438842Y-16052278D02*
X6448366Y-16061801D01*
X6448366Y-16061801D02*
X6457890Y-16080849D01*
X6457890Y-16080849D02*
X6467414Y-16118944D01*
X6467414Y-16118944D02*
X6467414Y-16166563D01*
X6467414Y-16166563D02*
X6457890Y-16204659D01*
X6457890Y-16204659D02*
X6448366Y-16223706D01*
X6448366Y-16223706D02*
X6438842Y-16233230D01*
X6438842Y-16233230D02*
X6419795Y-16242754D01*
X6419795Y-16242754D02*
X6400747Y-16242754D01*
X6400747Y-16242754D02*
X6381699Y-16233230D01*
X6381699Y-16233230D02*
X6372176Y-16223706D01*
X6372176Y-16223706D02*
X6362652Y-16204659D01*
X6362652Y-16204659D02*
X6353128Y-16166563D01*
X6353128Y-16166563D02*
X6353128Y-16118944D01*
X6353128Y-16118944D02*
X6362652Y-16080849D01*
X6362652Y-16080849D02*
X6372176Y-16061801D01*
X6372176Y-16061801D02*
X6381699Y-16052278D01*
X6381699Y-16052278D02*
X6400747Y-16042754D01*
X6553128Y-16223706D02*
X6562652Y-16233230D01*
X6562652Y-16233230D02*
X6553128Y-16242754D01*
X6553128Y-16242754D02*
X6543604Y-16233230D01*
X6543604Y-16233230D02*
X6553128Y-16223706D01*
X6553128Y-16223706D02*
X6553128Y-16242754D01*
X6629318Y-16042754D02*
X6762652Y-16042754D01*
X6762652Y-16042754D02*
X6676937Y-16242754D01*
X6876937Y-16042754D02*
X6895985Y-16042754D01*
X6895985Y-16042754D02*
X6915033Y-16052278D01*
X6915033Y-16052278D02*
X6924557Y-16061801D01*
X6924557Y-16061801D02*
X6934080Y-16080849D01*
X6934080Y-16080849D02*
X6943604Y-16118944D01*
X6943604Y-16118944D02*
X6943604Y-16166563D01*
X6943604Y-16166563D02*
X6934080Y-16204659D01*
X6934080Y-16204659D02*
X6924557Y-16223706D01*
X6924557Y-16223706D02*
X6915033Y-16233230D01*
X6915033Y-16233230D02*
X6895985Y-16242754D01*
X6895985Y-16242754D02*
X6876937Y-16242754D01*
X6876937Y-16242754D02*
X6857890Y-16233230D01*
X6857890Y-16233230D02*
X6848366Y-16223706D01*
X6848366Y-16223706D02*
X6838842Y-16204659D01*
X6838842Y-16204659D02*
X6829318Y-16166563D01*
X6829318Y-16166563D02*
X6829318Y-16118944D01*
X6829318Y-16118944D02*
X6838842Y-16080849D01*
X6838842Y-16080849D02*
X6848366Y-16061801D01*
X6848366Y-16061801D02*
X6857890Y-16052278D01*
X6857890Y-16052278D02*
X6876937Y-16042754D01*
X7067414Y-16042754D02*
X7086461Y-16042754D01*
X7086461Y-16042754D02*
X7105509Y-16052278D01*
X7105509Y-16052278D02*
X7115033Y-16061801D01*
X7115033Y-16061801D02*
X7124557Y-16080849D01*
X7124557Y-16080849D02*
X7134080Y-16118944D01*
X7134080Y-16118944D02*
X7134080Y-16166563D01*
X7134080Y-16166563D02*
X7124557Y-16204659D01*
X7124557Y-16204659D02*
X7115033Y-16223706D01*
X7115033Y-16223706D02*
X7105509Y-16233230D01*
X7105509Y-16233230D02*
X7086461Y-16242754D01*
X7086461Y-16242754D02*
X7067414Y-16242754D01*
X7067414Y-16242754D02*
X7048366Y-16233230D01*
X7048366Y-16233230D02*
X7038842Y-16223706D01*
X7038842Y-16223706D02*
X7029318Y-16204659D01*
X7029318Y-16204659D02*
X7019795Y-16166563D01*
X7019795Y-16166563D02*
X7019795Y-16118944D01*
X7019795Y-16118944D02*
X7029318Y-16080849D01*
X7029318Y-16080849D02*
X7038842Y-16061801D01*
X7038842Y-16061801D02*
X7048366Y-16052278D01*
X7048366Y-16052278D02*
X7067414Y-16042754D01*
X7219795Y-16242754D02*
X7219795Y-16109420D01*
X7219795Y-16128468D02*
X7229318Y-16118944D01*
X7229318Y-16118944D02*
X7248366Y-16109420D01*
X7248366Y-16109420D02*
X7276938Y-16109420D01*
X7276938Y-16109420D02*
X7295985Y-16118944D01*
X7295985Y-16118944D02*
X7305509Y-16137992D01*
X7305509Y-16137992D02*
X7305509Y-16242754D01*
X7305509Y-16137992D02*
X7315033Y-16118944D01*
X7315033Y-16118944D02*
X7334080Y-16109420D01*
X7334080Y-16109420D02*
X7362652Y-16109420D01*
X7362652Y-16109420D02*
X7381699Y-16118944D01*
X7381699Y-16118944D02*
X7391223Y-16137992D01*
X7391223Y-16137992D02*
X7391223Y-16242754D01*
X7486461Y-16242754D02*
X7486461Y-16109420D01*
X7486461Y-16128468D02*
X7495985Y-16118944D01*
X7495985Y-16118944D02*
X7515033Y-16109420D01*
X7515033Y-16109420D02*
X7543604Y-16109420D01*
X7543604Y-16109420D02*
X7562652Y-16118944D01*
X7562652Y-16118944D02*
X7572176Y-16137992D01*
X7572176Y-16137992D02*
X7572176Y-16242754D01*
X7572176Y-16137992D02*
X7581699Y-16118944D01*
X7581699Y-16118944D02*
X7600747Y-16109420D01*
X7600747Y-16109420D02*
X7629318Y-16109420D01*
X7629318Y-16109420D02*
X7648366Y-16118944D01*
X7648366Y-16118944D02*
X7657890Y-16137992D01*
X7657890Y-16137992D02*
X7657890Y-16242754D01*
X8048366Y-16033230D02*
X7876938Y-16290373D01*
X8305509Y-16042754D02*
X8324557Y-16042754D01*
X8324557Y-16042754D02*
X8343604Y-16052278D01*
X8343604Y-16052278D02*
X8353128Y-16061801D01*
X8353128Y-16061801D02*
X8362652Y-16080849D01*
X8362652Y-16080849D02*
X8372176Y-16118944D01*
X8372176Y-16118944D02*
X8372176Y-16166563D01*
X8372176Y-16166563D02*
X8362652Y-16204659D01*
X8362652Y-16204659D02*
X8353128Y-16223706D01*
X8353128Y-16223706D02*
X8343604Y-16233230D01*
X8343604Y-16233230D02*
X8324557Y-16242754D01*
X8324557Y-16242754D02*
X8305509Y-16242754D01*
X8305509Y-16242754D02*
X8286461Y-16233230D01*
X8286461Y-16233230D02*
X8276938Y-16223706D01*
X8276938Y-16223706D02*
X8267414Y-16204659D01*
X8267414Y-16204659D02*
X8257890Y-16166563D01*
X8257890Y-16166563D02*
X8257890Y-16118944D01*
X8257890Y-16118944D02*
X8267414Y-16080849D01*
X8267414Y-16080849D02*
X8276938Y-16061801D01*
X8276938Y-16061801D02*
X8286461Y-16052278D01*
X8286461Y-16052278D02*
X8305509Y-16042754D01*
X8457890Y-16223706D02*
X8467414Y-16233230D01*
X8467414Y-16233230D02*
X8457890Y-16242754D01*
X8457890Y-16242754D02*
X8448366Y-16233230D01*
X8448366Y-16233230D02*
X8457890Y-16223706D01*
X8457890Y-16223706D02*
X8457890Y-16242754D01*
X8591223Y-16042754D02*
X8610271Y-16042754D01*
X8610271Y-16042754D02*
X8629319Y-16052278D01*
X8629319Y-16052278D02*
X8638843Y-16061801D01*
X8638843Y-16061801D02*
X8648366Y-16080849D01*
X8648366Y-16080849D02*
X8657890Y-16118944D01*
X8657890Y-16118944D02*
X8657890Y-16166563D01*
X8657890Y-16166563D02*
X8648366Y-16204659D01*
X8648366Y-16204659D02*
X8638843Y-16223706D01*
X8638843Y-16223706D02*
X8629319Y-16233230D01*
X8629319Y-16233230D02*
X8610271Y-16242754D01*
X8610271Y-16242754D02*
X8591223Y-16242754D01*
X8591223Y-16242754D02*
X8572176Y-16233230D01*
X8572176Y-16233230D02*
X8562652Y-16223706D01*
X8562652Y-16223706D02*
X8553128Y-16204659D01*
X8553128Y-16204659D02*
X8543604Y-16166563D01*
X8543604Y-16166563D02*
X8543604Y-16118944D01*
X8543604Y-16118944D02*
X8553128Y-16080849D01*
X8553128Y-16080849D02*
X8562652Y-16061801D01*
X8562652Y-16061801D02*
X8572176Y-16052278D01*
X8572176Y-16052278D02*
X8591223Y-16042754D01*
X8734081Y-16061801D02*
X8743604Y-16052278D01*
X8743604Y-16052278D02*
X8762652Y-16042754D01*
X8762652Y-16042754D02*
X8810271Y-16042754D01*
X8810271Y-16042754D02*
X8829319Y-16052278D01*
X8829319Y-16052278D02*
X8838843Y-16061801D01*
X8838843Y-16061801D02*
X8848366Y-16080849D01*
X8848366Y-16080849D02*
X8848366Y-16099897D01*
X8848366Y-16099897D02*
X8838843Y-16128468D01*
X8838843Y-16128468D02*
X8724557Y-16242754D01*
X8724557Y-16242754D02*
X8848366Y-16242754D01*
X8915033Y-16042754D02*
X9048366Y-16042754D01*
X9048366Y-16042754D02*
X8962652Y-16242754D01*
X9210271Y-16042754D02*
X9172176Y-16042754D01*
X9172176Y-16042754D02*
X9153128Y-16052278D01*
X9153128Y-16052278D02*
X9143604Y-16061801D01*
X9143604Y-16061801D02*
X9124557Y-16090373D01*
X9124557Y-16090373D02*
X9115033Y-16128468D01*
X9115033Y-16128468D02*
X9115033Y-16204659D01*
X9115033Y-16204659D02*
X9124557Y-16223706D01*
X9124557Y-16223706D02*
X9134081Y-16233230D01*
X9134081Y-16233230D02*
X9153128Y-16242754D01*
X9153128Y-16242754D02*
X9191224Y-16242754D01*
X9191224Y-16242754D02*
X9210271Y-16233230D01*
X9210271Y-16233230D02*
X9219795Y-16223706D01*
X9219795Y-16223706D02*
X9229319Y-16204659D01*
X9229319Y-16204659D02*
X9229319Y-16157040D01*
X9229319Y-16157040D02*
X9219795Y-16137992D01*
X9219795Y-16137992D02*
X9210271Y-16128468D01*
X9210271Y-16128468D02*
X9191224Y-16118944D01*
X9191224Y-16118944D02*
X9153128Y-16118944D01*
X9153128Y-16118944D02*
X9134081Y-16128468D01*
X9134081Y-16128468D02*
X9124557Y-16137992D01*
X9124557Y-16137992D02*
X9115033Y-16157040D01*
X9305509Y-16042754D02*
X9305509Y-16080849D01*
X9381700Y-16042754D02*
X9381700Y-16080849D01*
X9676938Y-16318944D02*
X9667414Y-16309420D01*
X9667414Y-16309420D02*
X9648366Y-16280849D01*
X9648366Y-16280849D02*
X9638843Y-16261801D01*
X9638843Y-16261801D02*
X9629319Y-16233230D01*
X9629319Y-16233230D02*
X9619795Y-16185611D01*
X9619795Y-16185611D02*
X9619795Y-16147516D01*
X9619795Y-16147516D02*
X9629319Y-16099897D01*
X9629319Y-16099897D02*
X9638843Y-16071325D01*
X9638843Y-16071325D02*
X9648366Y-16052278D01*
X9648366Y-16052278D02*
X9667414Y-16023706D01*
X9667414Y-16023706D02*
X9676938Y-16014182D01*
X9743605Y-16061801D02*
X9753128Y-16052278D01*
X9753128Y-16052278D02*
X9772176Y-16042754D01*
X9772176Y-16042754D02*
X9819795Y-16042754D01*
X9819795Y-16042754D02*
X9838843Y-16052278D01*
X9838843Y-16052278D02*
X9848366Y-16061801D01*
X9848366Y-16061801D02*
X9857890Y-16080849D01*
X9857890Y-16080849D02*
X9857890Y-16099897D01*
X9857890Y-16099897D02*
X9848366Y-16128468D01*
X9848366Y-16128468D02*
X9734081Y-16242754D01*
X9734081Y-16242754D02*
X9857890Y-16242754D01*
X10095986Y-16242754D02*
X10095986Y-16042754D01*
X10181700Y-16242754D02*
X10181700Y-16137992D01*
X10181700Y-16137992D02*
X10172176Y-16118944D01*
X10172176Y-16118944D02*
X10153128Y-16109420D01*
X10153128Y-16109420D02*
X10124557Y-16109420D01*
X10124557Y-16109420D02*
X10105509Y-16118944D01*
X10105509Y-16118944D02*
X10095986Y-16128468D01*
X10305509Y-16242754D02*
X10286462Y-16233230D01*
X10286462Y-16233230D02*
X10276938Y-16223706D01*
X10276938Y-16223706D02*
X10267414Y-16204659D01*
X10267414Y-16204659D02*
X10267414Y-16147516D01*
X10267414Y-16147516D02*
X10276938Y-16128468D01*
X10276938Y-16128468D02*
X10286462Y-16118944D01*
X10286462Y-16118944D02*
X10305509Y-16109420D01*
X10305509Y-16109420D02*
X10334081Y-16109420D01*
X10334081Y-16109420D02*
X10353128Y-16118944D01*
X10353128Y-16118944D02*
X10362652Y-16128468D01*
X10362652Y-16128468D02*
X10372176Y-16147516D01*
X10372176Y-16147516D02*
X10372176Y-16204659D01*
X10372176Y-16204659D02*
X10362652Y-16223706D01*
X10362652Y-16223706D02*
X10353128Y-16233230D01*
X10353128Y-16233230D02*
X10334081Y-16242754D01*
X10334081Y-16242754D02*
X10305509Y-16242754D01*
X10486462Y-16242754D02*
X10467414Y-16233230D01*
X10467414Y-16233230D02*
X10457890Y-16214182D01*
X10457890Y-16214182D02*
X10457890Y-16042754D01*
X10638843Y-16233230D02*
X10619795Y-16242754D01*
X10619795Y-16242754D02*
X10581700Y-16242754D01*
X10581700Y-16242754D02*
X10562652Y-16233230D01*
X10562652Y-16233230D02*
X10553128Y-16214182D01*
X10553128Y-16214182D02*
X10553128Y-16137992D01*
X10553128Y-16137992D02*
X10562652Y-16118944D01*
X10562652Y-16118944D02*
X10581700Y-16109420D01*
X10581700Y-16109420D02*
X10619795Y-16109420D01*
X10619795Y-16109420D02*
X10638843Y-16118944D01*
X10638843Y-16118944D02*
X10648367Y-16137992D01*
X10648367Y-16137992D02*
X10648367Y-16157040D01*
X10648367Y-16157040D02*
X10553128Y-16176087D01*
X10724557Y-16233230D02*
X10743605Y-16242754D01*
X10743605Y-16242754D02*
X10781700Y-16242754D01*
X10781700Y-16242754D02*
X10800748Y-16233230D01*
X10800748Y-16233230D02*
X10810271Y-16214182D01*
X10810271Y-16214182D02*
X10810271Y-16204659D01*
X10810271Y-16204659D02*
X10800748Y-16185611D01*
X10800748Y-16185611D02*
X10781700Y-16176087D01*
X10781700Y-16176087D02*
X10753128Y-16176087D01*
X10753128Y-16176087D02*
X10734081Y-16166563D01*
X10734081Y-16166563D02*
X10724557Y-16147516D01*
X10724557Y-16147516D02*
X10724557Y-16137992D01*
X10724557Y-16137992D02*
X10734081Y-16118944D01*
X10734081Y-16118944D02*
X10753128Y-16109420D01*
X10753128Y-16109420D02*
X10781700Y-16109420D01*
X10781700Y-16109420D02*
X10800748Y-16118944D01*
X10876938Y-16318944D02*
X10886462Y-16309420D01*
X10886462Y-16309420D02*
X10905509Y-16280849D01*
X10905509Y-16280849D02*
X10915033Y-16261801D01*
X10915033Y-16261801D02*
X10924557Y-16233230D01*
X10924557Y-16233230D02*
X10934081Y-16185611D01*
X10934081Y-16185611D02*
X10934081Y-16147516D01*
X10934081Y-16147516D02*
X10924557Y-16099897D01*
X10924557Y-16099897D02*
X10915033Y-16071325D01*
X10915033Y-16071325D02*
X10905509Y-16052278D01*
X10905509Y-16052278D02*
X10886462Y-16023706D01*
X10886462Y-16023706D02*
X10876938Y-16014182D01*
D14*
X6051875Y-16365270D02*
X6051875Y-16465270D01*
X6001875Y-16415270D02*
X6101875Y-16415270D01*
D11*
X6467414Y-16506754D02*
X6353128Y-16506754D01*
X6410271Y-16506754D02*
X6410271Y-16306754D01*
X6410271Y-16306754D02*
X6391223Y-16335325D01*
X6391223Y-16335325D02*
X6372176Y-16354373D01*
X6372176Y-16354373D02*
X6353128Y-16363897D01*
X6553128Y-16487706D02*
X6562652Y-16497230D01*
X6562652Y-16497230D02*
X6553128Y-16506754D01*
X6553128Y-16506754D02*
X6543604Y-16497230D01*
X6543604Y-16497230D02*
X6553128Y-16487706D01*
X6553128Y-16487706D02*
X6553128Y-16506754D01*
X6686461Y-16306754D02*
X6705509Y-16306754D01*
X6705509Y-16306754D02*
X6724557Y-16316278D01*
X6724557Y-16316278D02*
X6734080Y-16325801D01*
X6734080Y-16325801D02*
X6743604Y-16344849D01*
X6743604Y-16344849D02*
X6753128Y-16382944D01*
X6753128Y-16382944D02*
X6753128Y-16430563D01*
X6753128Y-16430563D02*
X6743604Y-16468659D01*
X6743604Y-16468659D02*
X6734080Y-16487706D01*
X6734080Y-16487706D02*
X6724557Y-16497230D01*
X6724557Y-16497230D02*
X6705509Y-16506754D01*
X6705509Y-16506754D02*
X6686461Y-16506754D01*
X6686461Y-16506754D02*
X6667414Y-16497230D01*
X6667414Y-16497230D02*
X6657890Y-16487706D01*
X6657890Y-16487706D02*
X6648366Y-16468659D01*
X6648366Y-16468659D02*
X6638842Y-16430563D01*
X6638842Y-16430563D02*
X6638842Y-16382944D01*
X6638842Y-16382944D02*
X6648366Y-16344849D01*
X6648366Y-16344849D02*
X6657890Y-16325801D01*
X6657890Y-16325801D02*
X6667414Y-16316278D01*
X6667414Y-16316278D02*
X6686461Y-16306754D01*
X6876937Y-16306754D02*
X6895985Y-16306754D01*
X6895985Y-16306754D02*
X6915033Y-16316278D01*
X6915033Y-16316278D02*
X6924557Y-16325801D01*
X6924557Y-16325801D02*
X6934080Y-16344849D01*
X6934080Y-16344849D02*
X6943604Y-16382944D01*
X6943604Y-16382944D02*
X6943604Y-16430563D01*
X6943604Y-16430563D02*
X6934080Y-16468659D01*
X6934080Y-16468659D02*
X6924557Y-16487706D01*
X6924557Y-16487706D02*
X6915033Y-16497230D01*
X6915033Y-16497230D02*
X6895985Y-16506754D01*
X6895985Y-16506754D02*
X6876937Y-16506754D01*
X6876937Y-16506754D02*
X6857890Y-16497230D01*
X6857890Y-16497230D02*
X6848366Y-16487706D01*
X6848366Y-16487706D02*
X6838842Y-16468659D01*
X6838842Y-16468659D02*
X6829318Y-16430563D01*
X6829318Y-16430563D02*
X6829318Y-16382944D01*
X6829318Y-16382944D02*
X6838842Y-16344849D01*
X6838842Y-16344849D02*
X6848366Y-16325801D01*
X6848366Y-16325801D02*
X6857890Y-16316278D01*
X6857890Y-16316278D02*
X6876937Y-16306754D01*
X7067414Y-16306754D02*
X7086461Y-16306754D01*
X7086461Y-16306754D02*
X7105509Y-16316278D01*
X7105509Y-16316278D02*
X7115033Y-16325801D01*
X7115033Y-16325801D02*
X7124557Y-16344849D01*
X7124557Y-16344849D02*
X7134080Y-16382944D01*
X7134080Y-16382944D02*
X7134080Y-16430563D01*
X7134080Y-16430563D02*
X7124557Y-16468659D01*
X7124557Y-16468659D02*
X7115033Y-16487706D01*
X7115033Y-16487706D02*
X7105509Y-16497230D01*
X7105509Y-16497230D02*
X7086461Y-16506754D01*
X7086461Y-16506754D02*
X7067414Y-16506754D01*
X7067414Y-16506754D02*
X7048366Y-16497230D01*
X7048366Y-16497230D02*
X7038842Y-16487706D01*
X7038842Y-16487706D02*
X7029318Y-16468659D01*
X7029318Y-16468659D02*
X7019795Y-16430563D01*
X7019795Y-16430563D02*
X7019795Y-16382944D01*
X7019795Y-16382944D02*
X7029318Y-16344849D01*
X7029318Y-16344849D02*
X7038842Y-16325801D01*
X7038842Y-16325801D02*
X7048366Y-16316278D01*
X7048366Y-16316278D02*
X7067414Y-16306754D01*
X7219795Y-16506754D02*
X7219795Y-16373420D01*
X7219795Y-16392468D02*
X7229318Y-16382944D01*
X7229318Y-16382944D02*
X7248366Y-16373420D01*
X7248366Y-16373420D02*
X7276938Y-16373420D01*
X7276938Y-16373420D02*
X7295985Y-16382944D01*
X7295985Y-16382944D02*
X7305509Y-16401992D01*
X7305509Y-16401992D02*
X7305509Y-16506754D01*
X7305509Y-16401992D02*
X7315033Y-16382944D01*
X7315033Y-16382944D02*
X7334080Y-16373420D01*
X7334080Y-16373420D02*
X7362652Y-16373420D01*
X7362652Y-16373420D02*
X7381699Y-16382944D01*
X7381699Y-16382944D02*
X7391223Y-16401992D01*
X7391223Y-16401992D02*
X7391223Y-16506754D01*
X7486461Y-16506754D02*
X7486461Y-16373420D01*
X7486461Y-16392468D02*
X7495985Y-16382944D01*
X7495985Y-16382944D02*
X7515033Y-16373420D01*
X7515033Y-16373420D02*
X7543604Y-16373420D01*
X7543604Y-16373420D02*
X7562652Y-16382944D01*
X7562652Y-16382944D02*
X7572176Y-16401992D01*
X7572176Y-16401992D02*
X7572176Y-16506754D01*
X7572176Y-16401992D02*
X7581699Y-16382944D01*
X7581699Y-16382944D02*
X7600747Y-16373420D01*
X7600747Y-16373420D02*
X7629318Y-16373420D01*
X7629318Y-16373420D02*
X7648366Y-16382944D01*
X7648366Y-16382944D02*
X7657890Y-16401992D01*
X7657890Y-16401992D02*
X7657890Y-16506754D01*
X8048366Y-16297230D02*
X7876938Y-16554373D01*
X8305509Y-16306754D02*
X8324557Y-16306754D01*
X8324557Y-16306754D02*
X8343604Y-16316278D01*
X8343604Y-16316278D02*
X8353128Y-16325801D01*
X8353128Y-16325801D02*
X8362652Y-16344849D01*
X8362652Y-16344849D02*
X8372176Y-16382944D01*
X8372176Y-16382944D02*
X8372176Y-16430563D01*
X8372176Y-16430563D02*
X8362652Y-16468659D01*
X8362652Y-16468659D02*
X8353128Y-16487706D01*
X8353128Y-16487706D02*
X8343604Y-16497230D01*
X8343604Y-16497230D02*
X8324557Y-16506754D01*
X8324557Y-16506754D02*
X8305509Y-16506754D01*
X8305509Y-16506754D02*
X8286461Y-16497230D01*
X8286461Y-16497230D02*
X8276938Y-16487706D01*
X8276938Y-16487706D02*
X8267414Y-16468659D01*
X8267414Y-16468659D02*
X8257890Y-16430563D01*
X8257890Y-16430563D02*
X8257890Y-16382944D01*
X8257890Y-16382944D02*
X8267414Y-16344849D01*
X8267414Y-16344849D02*
X8276938Y-16325801D01*
X8276938Y-16325801D02*
X8286461Y-16316278D01*
X8286461Y-16316278D02*
X8305509Y-16306754D01*
X8457890Y-16487706D02*
X8467414Y-16497230D01*
X8467414Y-16497230D02*
X8457890Y-16506754D01*
X8457890Y-16506754D02*
X8448366Y-16497230D01*
X8448366Y-16497230D02*
X8457890Y-16487706D01*
X8457890Y-16487706D02*
X8457890Y-16506754D01*
X8591223Y-16306754D02*
X8610271Y-16306754D01*
X8610271Y-16306754D02*
X8629319Y-16316278D01*
X8629319Y-16316278D02*
X8638843Y-16325801D01*
X8638843Y-16325801D02*
X8648366Y-16344849D01*
X8648366Y-16344849D02*
X8657890Y-16382944D01*
X8657890Y-16382944D02*
X8657890Y-16430563D01*
X8657890Y-16430563D02*
X8648366Y-16468659D01*
X8648366Y-16468659D02*
X8638843Y-16487706D01*
X8638843Y-16487706D02*
X8629319Y-16497230D01*
X8629319Y-16497230D02*
X8610271Y-16506754D01*
X8610271Y-16506754D02*
X8591223Y-16506754D01*
X8591223Y-16506754D02*
X8572176Y-16497230D01*
X8572176Y-16497230D02*
X8562652Y-16487706D01*
X8562652Y-16487706D02*
X8553128Y-16468659D01*
X8553128Y-16468659D02*
X8543604Y-16430563D01*
X8543604Y-16430563D02*
X8543604Y-16382944D01*
X8543604Y-16382944D02*
X8553128Y-16344849D01*
X8553128Y-16344849D02*
X8562652Y-16325801D01*
X8562652Y-16325801D02*
X8572176Y-16316278D01*
X8572176Y-16316278D02*
X8591223Y-16306754D01*
X8724557Y-16306754D02*
X8848366Y-16306754D01*
X8848366Y-16306754D02*
X8781700Y-16382944D01*
X8781700Y-16382944D02*
X8810271Y-16382944D01*
X8810271Y-16382944D02*
X8829319Y-16392468D01*
X8829319Y-16392468D02*
X8838843Y-16401992D01*
X8838843Y-16401992D02*
X8848366Y-16421040D01*
X8848366Y-16421040D02*
X8848366Y-16468659D01*
X8848366Y-16468659D02*
X8838843Y-16487706D01*
X8838843Y-16487706D02*
X8829319Y-16497230D01*
X8829319Y-16497230D02*
X8810271Y-16506754D01*
X8810271Y-16506754D02*
X8753128Y-16506754D01*
X8753128Y-16506754D02*
X8734081Y-16497230D01*
X8734081Y-16497230D02*
X8724557Y-16487706D01*
X8943604Y-16506754D02*
X8981700Y-16506754D01*
X8981700Y-16506754D02*
X9000747Y-16497230D01*
X9000747Y-16497230D02*
X9010271Y-16487706D01*
X9010271Y-16487706D02*
X9029319Y-16459135D01*
X9029319Y-16459135D02*
X9038843Y-16421040D01*
X9038843Y-16421040D02*
X9038843Y-16344849D01*
X9038843Y-16344849D02*
X9029319Y-16325801D01*
X9029319Y-16325801D02*
X9019795Y-16316278D01*
X9019795Y-16316278D02*
X9000747Y-16306754D01*
X9000747Y-16306754D02*
X8962652Y-16306754D01*
X8962652Y-16306754D02*
X8943604Y-16316278D01*
X8943604Y-16316278D02*
X8934081Y-16325801D01*
X8934081Y-16325801D02*
X8924557Y-16344849D01*
X8924557Y-16344849D02*
X8924557Y-16392468D01*
X8924557Y-16392468D02*
X8934081Y-16411516D01*
X8934081Y-16411516D02*
X8943604Y-16421040D01*
X8943604Y-16421040D02*
X8962652Y-16430563D01*
X8962652Y-16430563D02*
X9000747Y-16430563D01*
X9000747Y-16430563D02*
X9019795Y-16421040D01*
X9019795Y-16421040D02*
X9029319Y-16411516D01*
X9029319Y-16411516D02*
X9038843Y-16392468D01*
X9210271Y-16373420D02*
X9210271Y-16506754D01*
X9162652Y-16297230D02*
X9115033Y-16440087D01*
X9115033Y-16440087D02*
X9238843Y-16440087D01*
X9305509Y-16306754D02*
X9305509Y-16344849D01*
X9381700Y-16306754D02*
X9381700Y-16344849D01*
X9676938Y-16582944D02*
X9667414Y-16573420D01*
X9667414Y-16573420D02*
X9648366Y-16544849D01*
X9648366Y-16544849D02*
X9638843Y-16525801D01*
X9638843Y-16525801D02*
X9629319Y-16497230D01*
X9629319Y-16497230D02*
X9619795Y-16449611D01*
X9619795Y-16449611D02*
X9619795Y-16411516D01*
X9619795Y-16411516D02*
X9629319Y-16363897D01*
X9629319Y-16363897D02*
X9638843Y-16335325D01*
X9638843Y-16335325D02*
X9648366Y-16316278D01*
X9648366Y-16316278D02*
X9667414Y-16287706D01*
X9667414Y-16287706D02*
X9676938Y-16278182D01*
X9857890Y-16506754D02*
X9743605Y-16506754D01*
X9800747Y-16506754D02*
X9800747Y-16306754D01*
X9800747Y-16306754D02*
X9781700Y-16335325D01*
X9781700Y-16335325D02*
X9762652Y-16354373D01*
X9762652Y-16354373D02*
X9743605Y-16363897D01*
X10029319Y-16373420D02*
X10029319Y-16506754D01*
X9981700Y-16297230D02*
X9934081Y-16440087D01*
X9934081Y-16440087D02*
X10057890Y-16440087D01*
X10286462Y-16506754D02*
X10286462Y-16306754D01*
X10372176Y-16506754D02*
X10372176Y-16401992D01*
X10372176Y-16401992D02*
X10362652Y-16382944D01*
X10362652Y-16382944D02*
X10343605Y-16373420D01*
X10343605Y-16373420D02*
X10315033Y-16373420D01*
X10315033Y-16373420D02*
X10295986Y-16382944D01*
X10295986Y-16382944D02*
X10286462Y-16392468D01*
X10495986Y-16506754D02*
X10476938Y-16497230D01*
X10476938Y-16497230D02*
X10467414Y-16487706D01*
X10467414Y-16487706D02*
X10457890Y-16468659D01*
X10457890Y-16468659D02*
X10457890Y-16411516D01*
X10457890Y-16411516D02*
X10467414Y-16392468D01*
X10467414Y-16392468D02*
X10476938Y-16382944D01*
X10476938Y-16382944D02*
X10495986Y-16373420D01*
X10495986Y-16373420D02*
X10524557Y-16373420D01*
X10524557Y-16373420D02*
X10543605Y-16382944D01*
X10543605Y-16382944D02*
X10553128Y-16392468D01*
X10553128Y-16392468D02*
X10562652Y-16411516D01*
X10562652Y-16411516D02*
X10562652Y-16468659D01*
X10562652Y-16468659D02*
X10553128Y-16487706D01*
X10553128Y-16487706D02*
X10543605Y-16497230D01*
X10543605Y-16497230D02*
X10524557Y-16506754D01*
X10524557Y-16506754D02*
X10495986Y-16506754D01*
X10676938Y-16506754D02*
X10657890Y-16497230D01*
X10657890Y-16497230D02*
X10648367Y-16478182D01*
X10648367Y-16478182D02*
X10648367Y-16306754D01*
X10829319Y-16497230D02*
X10810271Y-16506754D01*
X10810271Y-16506754D02*
X10772176Y-16506754D01*
X10772176Y-16506754D02*
X10753128Y-16497230D01*
X10753128Y-16497230D02*
X10743605Y-16478182D01*
X10743605Y-16478182D02*
X10743605Y-16401992D01*
X10743605Y-16401992D02*
X10753128Y-16382944D01*
X10753128Y-16382944D02*
X10772176Y-16373420D01*
X10772176Y-16373420D02*
X10810271Y-16373420D01*
X10810271Y-16373420D02*
X10829319Y-16382944D01*
X10829319Y-16382944D02*
X10838843Y-16401992D01*
X10838843Y-16401992D02*
X10838843Y-16421040D01*
X10838843Y-16421040D02*
X10743605Y-16440087D01*
X10915033Y-16497230D02*
X10934081Y-16506754D01*
X10934081Y-16506754D02*
X10972176Y-16506754D01*
X10972176Y-16506754D02*
X10991224Y-16497230D01*
X10991224Y-16497230D02*
X11000748Y-16478182D01*
X11000748Y-16478182D02*
X11000748Y-16468659D01*
X11000748Y-16468659D02*
X10991224Y-16449611D01*
X10991224Y-16449611D02*
X10972176Y-16440087D01*
X10972176Y-16440087D02*
X10943605Y-16440087D01*
X10943605Y-16440087D02*
X10924557Y-16430563D01*
X10924557Y-16430563D02*
X10915033Y-16411516D01*
X10915033Y-16411516D02*
X10915033Y-16401992D01*
X10915033Y-16401992D02*
X10924557Y-16382944D01*
X10924557Y-16382944D02*
X10943605Y-16373420D01*
X10943605Y-16373420D02*
X10972176Y-16373420D01*
X10972176Y-16373420D02*
X10991224Y-16382944D01*
X11067414Y-16582944D02*
X11076938Y-16573420D01*
X11076938Y-16573420D02*
X11095986Y-16544849D01*
X11095986Y-16544849D02*
X11105509Y-16525801D01*
X11105509Y-16525801D02*
X11115033Y-16497230D01*
X11115033Y-16497230D02*
X11124557Y-16449611D01*
X11124557Y-16449611D02*
X11124557Y-16411516D01*
X11124557Y-16411516D02*
X11115033Y-16363897D01*
X11115033Y-16363897D02*
X11105509Y-16335325D01*
X11105509Y-16335325D02*
X11095986Y-16316278D01*
X11095986Y-16316278D02*
X11076938Y-16287706D01*
X11076938Y-16287706D02*
X11067414Y-16278182D01*
D15*
X6086996Y-16715191D02*
X6086996Y-16643349D01*
X6015154Y-16643349D01*
X6015154Y-16715191D01*
X6086996Y-16715191D01*
D11*
X6467414Y-16770754D02*
X6353128Y-16770754D01*
X6410271Y-16770754D02*
X6410271Y-16570754D01*
X6410271Y-16570754D02*
X6391223Y-16599325D01*
X6391223Y-16599325D02*
X6372176Y-16618373D01*
X6372176Y-16618373D02*
X6353128Y-16627897D01*
X6553128Y-16751706D02*
X6562652Y-16761230D01*
X6562652Y-16761230D02*
X6553128Y-16770754D01*
X6553128Y-16770754D02*
X6543604Y-16761230D01*
X6543604Y-16761230D02*
X6553128Y-16751706D01*
X6553128Y-16751706D02*
X6553128Y-16770754D01*
X6686461Y-16570754D02*
X6705509Y-16570754D01*
X6705509Y-16570754D02*
X6724557Y-16580278D01*
X6724557Y-16580278D02*
X6734080Y-16589801D01*
X6734080Y-16589801D02*
X6743604Y-16608849D01*
X6743604Y-16608849D02*
X6753128Y-16646944D01*
X6753128Y-16646944D02*
X6753128Y-16694563D01*
X6753128Y-16694563D02*
X6743604Y-16732659D01*
X6743604Y-16732659D02*
X6734080Y-16751706D01*
X6734080Y-16751706D02*
X6724557Y-16761230D01*
X6724557Y-16761230D02*
X6705509Y-16770754D01*
X6705509Y-16770754D02*
X6686461Y-16770754D01*
X6686461Y-16770754D02*
X6667414Y-16761230D01*
X6667414Y-16761230D02*
X6657890Y-16751706D01*
X6657890Y-16751706D02*
X6648366Y-16732659D01*
X6648366Y-16732659D02*
X6638842Y-16694563D01*
X6638842Y-16694563D02*
X6638842Y-16646944D01*
X6638842Y-16646944D02*
X6648366Y-16608849D01*
X6648366Y-16608849D02*
X6657890Y-16589801D01*
X6657890Y-16589801D02*
X6667414Y-16580278D01*
X6667414Y-16580278D02*
X6686461Y-16570754D01*
X6943604Y-16770754D02*
X6829318Y-16770754D01*
X6886461Y-16770754D02*
X6886461Y-16570754D01*
X6886461Y-16570754D02*
X6867414Y-16599325D01*
X6867414Y-16599325D02*
X6848366Y-16618373D01*
X6848366Y-16618373D02*
X6829318Y-16627897D01*
X7115033Y-16570754D02*
X7076937Y-16570754D01*
X7076937Y-16570754D02*
X7057890Y-16580278D01*
X7057890Y-16580278D02*
X7048366Y-16589801D01*
X7048366Y-16589801D02*
X7029318Y-16618373D01*
X7029318Y-16618373D02*
X7019795Y-16656468D01*
X7019795Y-16656468D02*
X7019795Y-16732659D01*
X7019795Y-16732659D02*
X7029318Y-16751706D01*
X7029318Y-16751706D02*
X7038842Y-16761230D01*
X7038842Y-16761230D02*
X7057890Y-16770754D01*
X7057890Y-16770754D02*
X7095985Y-16770754D01*
X7095985Y-16770754D02*
X7115033Y-16761230D01*
X7115033Y-16761230D02*
X7124557Y-16751706D01*
X7124557Y-16751706D02*
X7134080Y-16732659D01*
X7134080Y-16732659D02*
X7134080Y-16685040D01*
X7134080Y-16685040D02*
X7124557Y-16665992D01*
X7124557Y-16665992D02*
X7115033Y-16656468D01*
X7115033Y-16656468D02*
X7095985Y-16646944D01*
X7095985Y-16646944D02*
X7057890Y-16646944D01*
X7057890Y-16646944D02*
X7038842Y-16656468D01*
X7038842Y-16656468D02*
X7029318Y-16665992D01*
X7029318Y-16665992D02*
X7019795Y-16685040D01*
X7219795Y-16770754D02*
X7219795Y-16637420D01*
X7219795Y-16656468D02*
X7229318Y-16646944D01*
X7229318Y-16646944D02*
X7248366Y-16637420D01*
X7248366Y-16637420D02*
X7276938Y-16637420D01*
X7276938Y-16637420D02*
X7295985Y-16646944D01*
X7295985Y-16646944D02*
X7305509Y-16665992D01*
X7305509Y-16665992D02*
X7305509Y-16770754D01*
X7305509Y-16665992D02*
X7315033Y-16646944D01*
X7315033Y-16646944D02*
X7334080Y-16637420D01*
X7334080Y-16637420D02*
X7362652Y-16637420D01*
X7362652Y-16637420D02*
X7381699Y-16646944D01*
X7381699Y-16646944D02*
X7391223Y-16665992D01*
X7391223Y-16665992D02*
X7391223Y-16770754D01*
X7486461Y-16770754D02*
X7486461Y-16637420D01*
X7486461Y-16656468D02*
X7495985Y-16646944D01*
X7495985Y-16646944D02*
X7515033Y-16637420D01*
X7515033Y-16637420D02*
X7543604Y-16637420D01*
X7543604Y-16637420D02*
X7562652Y-16646944D01*
X7562652Y-16646944D02*
X7572176Y-16665992D01*
X7572176Y-16665992D02*
X7572176Y-16770754D01*
X7572176Y-16665992D02*
X7581699Y-16646944D01*
X7581699Y-16646944D02*
X7600747Y-16637420D01*
X7600747Y-16637420D02*
X7629318Y-16637420D01*
X7629318Y-16637420D02*
X7648366Y-16646944D01*
X7648366Y-16646944D02*
X7657890Y-16665992D01*
X7657890Y-16665992D02*
X7657890Y-16770754D01*
X8048366Y-16561230D02*
X7876938Y-16818373D01*
X8305509Y-16570754D02*
X8324557Y-16570754D01*
X8324557Y-16570754D02*
X8343604Y-16580278D01*
X8343604Y-16580278D02*
X8353128Y-16589801D01*
X8353128Y-16589801D02*
X8362652Y-16608849D01*
X8362652Y-16608849D02*
X8372176Y-16646944D01*
X8372176Y-16646944D02*
X8372176Y-16694563D01*
X8372176Y-16694563D02*
X8362652Y-16732659D01*
X8362652Y-16732659D02*
X8353128Y-16751706D01*
X8353128Y-16751706D02*
X8343604Y-16761230D01*
X8343604Y-16761230D02*
X8324557Y-16770754D01*
X8324557Y-16770754D02*
X8305509Y-16770754D01*
X8305509Y-16770754D02*
X8286461Y-16761230D01*
X8286461Y-16761230D02*
X8276938Y-16751706D01*
X8276938Y-16751706D02*
X8267414Y-16732659D01*
X8267414Y-16732659D02*
X8257890Y-16694563D01*
X8257890Y-16694563D02*
X8257890Y-16646944D01*
X8257890Y-16646944D02*
X8267414Y-16608849D01*
X8267414Y-16608849D02*
X8276938Y-16589801D01*
X8276938Y-16589801D02*
X8286461Y-16580278D01*
X8286461Y-16580278D02*
X8305509Y-16570754D01*
X8457890Y-16751706D02*
X8467414Y-16761230D01*
X8467414Y-16761230D02*
X8457890Y-16770754D01*
X8457890Y-16770754D02*
X8448366Y-16761230D01*
X8448366Y-16761230D02*
X8457890Y-16751706D01*
X8457890Y-16751706D02*
X8457890Y-16770754D01*
X8591223Y-16570754D02*
X8610271Y-16570754D01*
X8610271Y-16570754D02*
X8629319Y-16580278D01*
X8629319Y-16580278D02*
X8638843Y-16589801D01*
X8638843Y-16589801D02*
X8648366Y-16608849D01*
X8648366Y-16608849D02*
X8657890Y-16646944D01*
X8657890Y-16646944D02*
X8657890Y-16694563D01*
X8657890Y-16694563D02*
X8648366Y-16732659D01*
X8648366Y-16732659D02*
X8638843Y-16751706D01*
X8638843Y-16751706D02*
X8629319Y-16761230D01*
X8629319Y-16761230D02*
X8610271Y-16770754D01*
X8610271Y-16770754D02*
X8591223Y-16770754D01*
X8591223Y-16770754D02*
X8572176Y-16761230D01*
X8572176Y-16761230D02*
X8562652Y-16751706D01*
X8562652Y-16751706D02*
X8553128Y-16732659D01*
X8553128Y-16732659D02*
X8543604Y-16694563D01*
X8543604Y-16694563D02*
X8543604Y-16646944D01*
X8543604Y-16646944D02*
X8553128Y-16608849D01*
X8553128Y-16608849D02*
X8562652Y-16589801D01*
X8562652Y-16589801D02*
X8572176Y-16580278D01*
X8572176Y-16580278D02*
X8591223Y-16570754D01*
X8829319Y-16637420D02*
X8829319Y-16770754D01*
X8781700Y-16561230D02*
X8734081Y-16704087D01*
X8734081Y-16704087D02*
X8857890Y-16704087D01*
X8972176Y-16570754D02*
X8991224Y-16570754D01*
X8991224Y-16570754D02*
X9010271Y-16580278D01*
X9010271Y-16580278D02*
X9019795Y-16589801D01*
X9019795Y-16589801D02*
X9029319Y-16608849D01*
X9029319Y-16608849D02*
X9038843Y-16646944D01*
X9038843Y-16646944D02*
X9038843Y-16694563D01*
X9038843Y-16694563D02*
X9029319Y-16732659D01*
X9029319Y-16732659D02*
X9019795Y-16751706D01*
X9019795Y-16751706D02*
X9010271Y-16761230D01*
X9010271Y-16761230D02*
X8991224Y-16770754D01*
X8991224Y-16770754D02*
X8972176Y-16770754D01*
X8972176Y-16770754D02*
X8953128Y-16761230D01*
X8953128Y-16761230D02*
X8943604Y-16751706D01*
X8943604Y-16751706D02*
X8934081Y-16732659D01*
X8934081Y-16732659D02*
X8924557Y-16694563D01*
X8924557Y-16694563D02*
X8924557Y-16646944D01*
X8924557Y-16646944D02*
X8934081Y-16608849D01*
X8934081Y-16608849D02*
X8943604Y-16589801D01*
X8943604Y-16589801D02*
X8953128Y-16580278D01*
X8953128Y-16580278D02*
X8972176Y-16570754D01*
X9162652Y-16570754D02*
X9181700Y-16570754D01*
X9181700Y-16570754D02*
X9200747Y-16580278D01*
X9200747Y-16580278D02*
X9210271Y-16589801D01*
X9210271Y-16589801D02*
X9219795Y-16608849D01*
X9219795Y-16608849D02*
X9229319Y-16646944D01*
X9229319Y-16646944D02*
X9229319Y-16694563D01*
X9229319Y-16694563D02*
X9219795Y-16732659D01*
X9219795Y-16732659D02*
X9210271Y-16751706D01*
X9210271Y-16751706D02*
X9200747Y-16761230D01*
X9200747Y-16761230D02*
X9181700Y-16770754D01*
X9181700Y-16770754D02*
X9162652Y-16770754D01*
X9162652Y-16770754D02*
X9143604Y-16761230D01*
X9143604Y-16761230D02*
X9134081Y-16751706D01*
X9134081Y-16751706D02*
X9124557Y-16732659D01*
X9124557Y-16732659D02*
X9115033Y-16694563D01*
X9115033Y-16694563D02*
X9115033Y-16646944D01*
X9115033Y-16646944D02*
X9124557Y-16608849D01*
X9124557Y-16608849D02*
X9134081Y-16589801D01*
X9134081Y-16589801D02*
X9143604Y-16580278D01*
X9143604Y-16580278D02*
X9162652Y-16570754D01*
X9305509Y-16570754D02*
X9305509Y-16608849D01*
X9381700Y-16570754D02*
X9381700Y-16608849D01*
X9676938Y-16846944D02*
X9667414Y-16837421D01*
X9667414Y-16837421D02*
X9648366Y-16808849D01*
X9648366Y-16808849D02*
X9638843Y-16789802D01*
X9638843Y-16789802D02*
X9629319Y-16761230D01*
X9629319Y-16761230D02*
X9619795Y-16713611D01*
X9619795Y-16713611D02*
X9619795Y-16675516D01*
X9619795Y-16675516D02*
X9629319Y-16627897D01*
X9629319Y-16627897D02*
X9638843Y-16599325D01*
X9638843Y-16599325D02*
X9648366Y-16580278D01*
X9648366Y-16580278D02*
X9667414Y-16551706D01*
X9667414Y-16551706D02*
X9676938Y-16542182D01*
X9781700Y-16656468D02*
X9762652Y-16646944D01*
X9762652Y-16646944D02*
X9753128Y-16637420D01*
X9753128Y-16637420D02*
X9743605Y-16618373D01*
X9743605Y-16618373D02*
X9743605Y-16608849D01*
X9743605Y-16608849D02*
X9753128Y-16589801D01*
X9753128Y-16589801D02*
X9762652Y-16580278D01*
X9762652Y-16580278D02*
X9781700Y-16570754D01*
X9781700Y-16570754D02*
X9819795Y-16570754D01*
X9819795Y-16570754D02*
X9838843Y-16580278D01*
X9838843Y-16580278D02*
X9848366Y-16589801D01*
X9848366Y-16589801D02*
X9857890Y-16608849D01*
X9857890Y-16608849D02*
X9857890Y-16618373D01*
X9857890Y-16618373D02*
X9848366Y-16637420D01*
X9848366Y-16637420D02*
X9838843Y-16646944D01*
X9838843Y-16646944D02*
X9819795Y-16656468D01*
X9819795Y-16656468D02*
X9781700Y-16656468D01*
X9781700Y-16656468D02*
X9762652Y-16665992D01*
X9762652Y-16665992D02*
X9753128Y-16675516D01*
X9753128Y-16675516D02*
X9743605Y-16694563D01*
X9743605Y-16694563D02*
X9743605Y-16732659D01*
X9743605Y-16732659D02*
X9753128Y-16751706D01*
X9753128Y-16751706D02*
X9762652Y-16761230D01*
X9762652Y-16761230D02*
X9781700Y-16770754D01*
X9781700Y-16770754D02*
X9819795Y-16770754D01*
X9819795Y-16770754D02*
X9838843Y-16761230D01*
X9838843Y-16761230D02*
X9848366Y-16751706D01*
X9848366Y-16751706D02*
X9857890Y-16732659D01*
X9857890Y-16732659D02*
X9857890Y-16694563D01*
X9857890Y-16694563D02*
X9848366Y-16675516D01*
X9848366Y-16675516D02*
X9838843Y-16665992D01*
X9838843Y-16665992D02*
X9819795Y-16656468D01*
X10095986Y-16770754D02*
X10095986Y-16570754D01*
X10181700Y-16770754D02*
X10181700Y-16665992D01*
X10181700Y-16665992D02*
X10172176Y-16646944D01*
X10172176Y-16646944D02*
X10153128Y-16637420D01*
X10153128Y-16637420D02*
X10124557Y-16637420D01*
X10124557Y-16637420D02*
X10105509Y-16646944D01*
X10105509Y-16646944D02*
X10095986Y-16656468D01*
X10305509Y-16770754D02*
X10286462Y-16761230D01*
X10286462Y-16761230D02*
X10276938Y-16751706D01*
X10276938Y-16751706D02*
X10267414Y-16732659D01*
X10267414Y-16732659D02*
X10267414Y-16675516D01*
X10267414Y-16675516D02*
X10276938Y-16656468D01*
X10276938Y-16656468D02*
X10286462Y-16646944D01*
X10286462Y-16646944D02*
X10305509Y-16637420D01*
X10305509Y-16637420D02*
X10334081Y-16637420D01*
X10334081Y-16637420D02*
X10353128Y-16646944D01*
X10353128Y-16646944D02*
X10362652Y-16656468D01*
X10362652Y-16656468D02*
X10372176Y-16675516D01*
X10372176Y-16675516D02*
X10372176Y-16732659D01*
X10372176Y-16732659D02*
X10362652Y-16751706D01*
X10362652Y-16751706D02*
X10353128Y-16761230D01*
X10353128Y-16761230D02*
X10334081Y-16770754D01*
X10334081Y-16770754D02*
X10305509Y-16770754D01*
X10486462Y-16770754D02*
X10467414Y-16761230D01*
X10467414Y-16761230D02*
X10457890Y-16742182D01*
X10457890Y-16742182D02*
X10457890Y-16570754D01*
X10638843Y-16761230D02*
X10619795Y-16770754D01*
X10619795Y-16770754D02*
X10581700Y-16770754D01*
X10581700Y-16770754D02*
X10562652Y-16761230D01*
X10562652Y-16761230D02*
X10553128Y-16742182D01*
X10553128Y-16742182D02*
X10553128Y-16665992D01*
X10553128Y-16665992D02*
X10562652Y-16646944D01*
X10562652Y-16646944D02*
X10581700Y-16637420D01*
X10581700Y-16637420D02*
X10619795Y-16637420D01*
X10619795Y-16637420D02*
X10638843Y-16646944D01*
X10638843Y-16646944D02*
X10648367Y-16665992D01*
X10648367Y-16665992D02*
X10648367Y-16685040D01*
X10648367Y-16685040D02*
X10553128Y-16704087D01*
X10724557Y-16761230D02*
X10743605Y-16770754D01*
X10743605Y-16770754D02*
X10781700Y-16770754D01*
X10781700Y-16770754D02*
X10800748Y-16761230D01*
X10800748Y-16761230D02*
X10810271Y-16742182D01*
X10810271Y-16742182D02*
X10810271Y-16732659D01*
X10810271Y-16732659D02*
X10800748Y-16713611D01*
X10800748Y-16713611D02*
X10781700Y-16704087D01*
X10781700Y-16704087D02*
X10753128Y-16704087D01*
X10753128Y-16704087D02*
X10734081Y-16694563D01*
X10734081Y-16694563D02*
X10724557Y-16675516D01*
X10724557Y-16675516D02*
X10724557Y-16665992D01*
X10724557Y-16665992D02*
X10734081Y-16646944D01*
X10734081Y-16646944D02*
X10753128Y-16637420D01*
X10753128Y-16637420D02*
X10781700Y-16637420D01*
X10781700Y-16637420D02*
X10800748Y-16646944D01*
X10876938Y-16846944D02*
X10886462Y-16837421D01*
X10886462Y-16837421D02*
X10905509Y-16808849D01*
X10905509Y-16808849D02*
X10915033Y-16789802D01*
X10915033Y-16789802D02*
X10924557Y-16761230D01*
X10924557Y-16761230D02*
X10934081Y-16713611D01*
X10934081Y-16713611D02*
X10934081Y-16675516D01*
X10934081Y-16675516D02*
X10924557Y-16627897D01*
X10924557Y-16627897D02*
X10915033Y-16599325D01*
X10915033Y-16599325D02*
X10905509Y-16580278D01*
X10905509Y-16580278D02*
X10886462Y-16551706D01*
X10886462Y-16551706D02*
X10876938Y-16542182D01*
D16*
X6031875Y-17013270D02*
X6101875Y-16943270D01*
X6031875Y-16873270D01*
X5961875Y-16943270D01*
X6031875Y-17013270D01*
D11*
X6467414Y-17034754D02*
X6353128Y-17034754D01*
X6410271Y-17034754D02*
X6410271Y-16834754D01*
X6410271Y-16834754D02*
X6391223Y-16863325D01*
X6391223Y-16863325D02*
X6372176Y-16882373D01*
X6372176Y-16882373D02*
X6353128Y-16891897D01*
X6553128Y-17015706D02*
X6562652Y-17025230D01*
X6562652Y-17025230D02*
X6553128Y-17034754D01*
X6553128Y-17034754D02*
X6543604Y-17025230D01*
X6543604Y-17025230D02*
X6553128Y-17015706D01*
X6553128Y-17015706D02*
X6553128Y-17034754D01*
X6734080Y-16901421D02*
X6734080Y-17034754D01*
X6686461Y-16825230D02*
X6638842Y-16968087D01*
X6638842Y-16968087D02*
X6762652Y-16968087D01*
X6876937Y-16834754D02*
X6895985Y-16834754D01*
X6895985Y-16834754D02*
X6915033Y-16844278D01*
X6915033Y-16844278D02*
X6924557Y-16853802D01*
X6924557Y-16853802D02*
X6934080Y-16872849D01*
X6934080Y-16872849D02*
X6943604Y-16910944D01*
X6943604Y-16910944D02*
X6943604Y-16958563D01*
X6943604Y-16958563D02*
X6934080Y-16996659D01*
X6934080Y-16996659D02*
X6924557Y-17015706D01*
X6924557Y-17015706D02*
X6915033Y-17025230D01*
X6915033Y-17025230D02*
X6895985Y-17034754D01*
X6895985Y-17034754D02*
X6876937Y-17034754D01*
X6876937Y-17034754D02*
X6857890Y-17025230D01*
X6857890Y-17025230D02*
X6848366Y-17015706D01*
X6848366Y-17015706D02*
X6838842Y-16996659D01*
X6838842Y-16996659D02*
X6829318Y-16958563D01*
X6829318Y-16958563D02*
X6829318Y-16910944D01*
X6829318Y-16910944D02*
X6838842Y-16872849D01*
X6838842Y-16872849D02*
X6848366Y-16853802D01*
X6848366Y-16853802D02*
X6857890Y-16844278D01*
X6857890Y-16844278D02*
X6876937Y-16834754D01*
X7067414Y-16834754D02*
X7086461Y-16834754D01*
X7086461Y-16834754D02*
X7105509Y-16844278D01*
X7105509Y-16844278D02*
X7115033Y-16853802D01*
X7115033Y-16853802D02*
X7124557Y-16872849D01*
X7124557Y-16872849D02*
X7134080Y-16910944D01*
X7134080Y-16910944D02*
X7134080Y-16958563D01*
X7134080Y-16958563D02*
X7124557Y-16996659D01*
X7124557Y-16996659D02*
X7115033Y-17015706D01*
X7115033Y-17015706D02*
X7105509Y-17025230D01*
X7105509Y-17025230D02*
X7086461Y-17034754D01*
X7086461Y-17034754D02*
X7067414Y-17034754D01*
X7067414Y-17034754D02*
X7048366Y-17025230D01*
X7048366Y-17025230D02*
X7038842Y-17015706D01*
X7038842Y-17015706D02*
X7029318Y-16996659D01*
X7029318Y-16996659D02*
X7019795Y-16958563D01*
X7019795Y-16958563D02*
X7019795Y-16910944D01*
X7019795Y-16910944D02*
X7029318Y-16872849D01*
X7029318Y-16872849D02*
X7038842Y-16853802D01*
X7038842Y-16853802D02*
X7048366Y-16844278D01*
X7048366Y-16844278D02*
X7067414Y-16834754D01*
X7219795Y-17034754D02*
X7219795Y-16901421D01*
X7219795Y-16920468D02*
X7229318Y-16910944D01*
X7229318Y-16910944D02*
X7248366Y-16901421D01*
X7248366Y-16901421D02*
X7276938Y-16901421D01*
X7276938Y-16901421D02*
X7295985Y-16910944D01*
X7295985Y-16910944D02*
X7305509Y-16929992D01*
X7305509Y-16929992D02*
X7305509Y-17034754D01*
X7305509Y-16929992D02*
X7315033Y-16910944D01*
X7315033Y-16910944D02*
X7334080Y-16901421D01*
X7334080Y-16901421D02*
X7362652Y-16901421D01*
X7362652Y-16901421D02*
X7381699Y-16910944D01*
X7381699Y-16910944D02*
X7391223Y-16929992D01*
X7391223Y-16929992D02*
X7391223Y-17034754D01*
X7486461Y-17034754D02*
X7486461Y-16901421D01*
X7486461Y-16920468D02*
X7495985Y-16910944D01*
X7495985Y-16910944D02*
X7515033Y-16901421D01*
X7515033Y-16901421D02*
X7543604Y-16901421D01*
X7543604Y-16901421D02*
X7562652Y-16910944D01*
X7562652Y-16910944D02*
X7572176Y-16929992D01*
X7572176Y-16929992D02*
X7572176Y-17034754D01*
X7572176Y-16929992D02*
X7581699Y-16910944D01*
X7581699Y-16910944D02*
X7600747Y-16901421D01*
X7600747Y-16901421D02*
X7629318Y-16901421D01*
X7629318Y-16901421D02*
X7648366Y-16910944D01*
X7648366Y-16910944D02*
X7657890Y-16929992D01*
X7657890Y-16929992D02*
X7657890Y-17034754D01*
X8048366Y-16825230D02*
X7876938Y-17082373D01*
X8305509Y-16834754D02*
X8324557Y-16834754D01*
X8324557Y-16834754D02*
X8343604Y-16844278D01*
X8343604Y-16844278D02*
X8353128Y-16853802D01*
X8353128Y-16853802D02*
X8362652Y-16872849D01*
X8362652Y-16872849D02*
X8372176Y-16910944D01*
X8372176Y-16910944D02*
X8372176Y-16958563D01*
X8372176Y-16958563D02*
X8362652Y-16996659D01*
X8362652Y-16996659D02*
X8353128Y-17015706D01*
X8353128Y-17015706D02*
X8343604Y-17025230D01*
X8343604Y-17025230D02*
X8324557Y-17034754D01*
X8324557Y-17034754D02*
X8305509Y-17034754D01*
X8305509Y-17034754D02*
X8286461Y-17025230D01*
X8286461Y-17025230D02*
X8276938Y-17015706D01*
X8276938Y-17015706D02*
X8267414Y-16996659D01*
X8267414Y-16996659D02*
X8257890Y-16958563D01*
X8257890Y-16958563D02*
X8257890Y-16910944D01*
X8257890Y-16910944D02*
X8267414Y-16872849D01*
X8267414Y-16872849D02*
X8276938Y-16853802D01*
X8276938Y-16853802D02*
X8286461Y-16844278D01*
X8286461Y-16844278D02*
X8305509Y-16834754D01*
X8457890Y-17015706D02*
X8467414Y-17025230D01*
X8467414Y-17025230D02*
X8457890Y-17034754D01*
X8457890Y-17034754D02*
X8448366Y-17025230D01*
X8448366Y-17025230D02*
X8457890Y-17015706D01*
X8457890Y-17015706D02*
X8457890Y-17034754D01*
X8591223Y-16834754D02*
X8610271Y-16834754D01*
X8610271Y-16834754D02*
X8629319Y-16844278D01*
X8629319Y-16844278D02*
X8638843Y-16853802D01*
X8638843Y-16853802D02*
X8648366Y-16872849D01*
X8648366Y-16872849D02*
X8657890Y-16910944D01*
X8657890Y-16910944D02*
X8657890Y-16958563D01*
X8657890Y-16958563D02*
X8648366Y-16996659D01*
X8648366Y-16996659D02*
X8638843Y-17015706D01*
X8638843Y-17015706D02*
X8629319Y-17025230D01*
X8629319Y-17025230D02*
X8610271Y-17034754D01*
X8610271Y-17034754D02*
X8591223Y-17034754D01*
X8591223Y-17034754D02*
X8572176Y-17025230D01*
X8572176Y-17025230D02*
X8562652Y-17015706D01*
X8562652Y-17015706D02*
X8553128Y-16996659D01*
X8553128Y-16996659D02*
X8543604Y-16958563D01*
X8543604Y-16958563D02*
X8543604Y-16910944D01*
X8543604Y-16910944D02*
X8553128Y-16872849D01*
X8553128Y-16872849D02*
X8562652Y-16853802D01*
X8562652Y-16853802D02*
X8572176Y-16844278D01*
X8572176Y-16844278D02*
X8591223Y-16834754D01*
X8838843Y-16834754D02*
X8743604Y-16834754D01*
X8743604Y-16834754D02*
X8734081Y-16929992D01*
X8734081Y-16929992D02*
X8743604Y-16920468D01*
X8743604Y-16920468D02*
X8762652Y-16910944D01*
X8762652Y-16910944D02*
X8810271Y-16910944D01*
X8810271Y-16910944D02*
X8829319Y-16920468D01*
X8829319Y-16920468D02*
X8838843Y-16929992D01*
X8838843Y-16929992D02*
X8848366Y-16949040D01*
X8848366Y-16949040D02*
X8848366Y-16996659D01*
X8848366Y-16996659D02*
X8838843Y-17015706D01*
X8838843Y-17015706D02*
X8829319Y-17025230D01*
X8829319Y-17025230D02*
X8810271Y-17034754D01*
X8810271Y-17034754D02*
X8762652Y-17034754D01*
X8762652Y-17034754D02*
X8743604Y-17025230D01*
X8743604Y-17025230D02*
X8734081Y-17015706D01*
X9029319Y-16834754D02*
X8934081Y-16834754D01*
X8934081Y-16834754D02*
X8924557Y-16929992D01*
X8924557Y-16929992D02*
X8934081Y-16920468D01*
X8934081Y-16920468D02*
X8953128Y-16910944D01*
X8953128Y-16910944D02*
X9000747Y-16910944D01*
X9000747Y-16910944D02*
X9019795Y-16920468D01*
X9019795Y-16920468D02*
X9029319Y-16929992D01*
X9029319Y-16929992D02*
X9038843Y-16949040D01*
X9038843Y-16949040D02*
X9038843Y-16996659D01*
X9038843Y-16996659D02*
X9029319Y-17015706D01*
X9029319Y-17015706D02*
X9019795Y-17025230D01*
X9019795Y-17025230D02*
X9000747Y-17034754D01*
X9000747Y-17034754D02*
X8953128Y-17034754D01*
X8953128Y-17034754D02*
X8934081Y-17025230D01*
X8934081Y-17025230D02*
X8924557Y-17015706D01*
X9229319Y-17034754D02*
X9115033Y-17034754D01*
X9172176Y-17034754D02*
X9172176Y-16834754D01*
X9172176Y-16834754D02*
X9153128Y-16863325D01*
X9153128Y-16863325D02*
X9134081Y-16882373D01*
X9134081Y-16882373D02*
X9115033Y-16891897D01*
X9305509Y-16834754D02*
X9305509Y-16872849D01*
X9381700Y-16834754D02*
X9381700Y-16872849D01*
X9676938Y-17110944D02*
X9667414Y-17101421D01*
X9667414Y-17101421D02*
X9648366Y-17072849D01*
X9648366Y-17072849D02*
X9638843Y-17053802D01*
X9638843Y-17053802D02*
X9629319Y-17025230D01*
X9629319Y-17025230D02*
X9619795Y-16977611D01*
X9619795Y-16977611D02*
X9619795Y-16939516D01*
X9619795Y-16939516D02*
X9629319Y-16891897D01*
X9629319Y-16891897D02*
X9638843Y-16863325D01*
X9638843Y-16863325D02*
X9648366Y-16844278D01*
X9648366Y-16844278D02*
X9667414Y-16815706D01*
X9667414Y-16815706D02*
X9676938Y-16806182D01*
X9781700Y-16920468D02*
X9762652Y-16910944D01*
X9762652Y-16910944D02*
X9753128Y-16901421D01*
X9753128Y-16901421D02*
X9743605Y-16882373D01*
X9743605Y-16882373D02*
X9743605Y-16872849D01*
X9743605Y-16872849D02*
X9753128Y-16853802D01*
X9753128Y-16853802D02*
X9762652Y-16844278D01*
X9762652Y-16844278D02*
X9781700Y-16834754D01*
X9781700Y-16834754D02*
X9819795Y-16834754D01*
X9819795Y-16834754D02*
X9838843Y-16844278D01*
X9838843Y-16844278D02*
X9848366Y-16853802D01*
X9848366Y-16853802D02*
X9857890Y-16872849D01*
X9857890Y-16872849D02*
X9857890Y-16882373D01*
X9857890Y-16882373D02*
X9848366Y-16901421D01*
X9848366Y-16901421D02*
X9838843Y-16910944D01*
X9838843Y-16910944D02*
X9819795Y-16920468D01*
X9819795Y-16920468D02*
X9781700Y-16920468D01*
X9781700Y-16920468D02*
X9762652Y-16929992D01*
X9762652Y-16929992D02*
X9753128Y-16939516D01*
X9753128Y-16939516D02*
X9743605Y-16958563D01*
X9743605Y-16958563D02*
X9743605Y-16996659D01*
X9743605Y-16996659D02*
X9753128Y-17015706D01*
X9753128Y-17015706D02*
X9762652Y-17025230D01*
X9762652Y-17025230D02*
X9781700Y-17034754D01*
X9781700Y-17034754D02*
X9819795Y-17034754D01*
X9819795Y-17034754D02*
X9838843Y-17025230D01*
X9838843Y-17025230D02*
X9848366Y-17015706D01*
X9848366Y-17015706D02*
X9857890Y-16996659D01*
X9857890Y-16996659D02*
X9857890Y-16958563D01*
X9857890Y-16958563D02*
X9848366Y-16939516D01*
X9848366Y-16939516D02*
X9838843Y-16929992D01*
X9838843Y-16929992D02*
X9819795Y-16920468D01*
X10029319Y-16901421D02*
X10029319Y-17034754D01*
X9981700Y-16825230D02*
X9934081Y-16968087D01*
X9934081Y-16968087D02*
X10057890Y-16968087D01*
X10286462Y-17034754D02*
X10286462Y-16834754D01*
X10372176Y-17034754D02*
X10372176Y-16929992D01*
X10372176Y-16929992D02*
X10362652Y-16910944D01*
X10362652Y-16910944D02*
X10343605Y-16901421D01*
X10343605Y-16901421D02*
X10315033Y-16901421D01*
X10315033Y-16901421D02*
X10295986Y-16910944D01*
X10295986Y-16910944D02*
X10286462Y-16920468D01*
X10495986Y-17034754D02*
X10476938Y-17025230D01*
X10476938Y-17025230D02*
X10467414Y-17015706D01*
X10467414Y-17015706D02*
X10457890Y-16996659D01*
X10457890Y-16996659D02*
X10457890Y-16939516D01*
X10457890Y-16939516D02*
X10467414Y-16920468D01*
X10467414Y-16920468D02*
X10476938Y-16910944D01*
X10476938Y-16910944D02*
X10495986Y-16901421D01*
X10495986Y-16901421D02*
X10524557Y-16901421D01*
X10524557Y-16901421D02*
X10543605Y-16910944D01*
X10543605Y-16910944D02*
X10553128Y-16920468D01*
X10553128Y-16920468D02*
X10562652Y-16939516D01*
X10562652Y-16939516D02*
X10562652Y-16996659D01*
X10562652Y-16996659D02*
X10553128Y-17015706D01*
X10553128Y-17015706D02*
X10543605Y-17025230D01*
X10543605Y-17025230D02*
X10524557Y-17034754D01*
X10524557Y-17034754D02*
X10495986Y-17034754D01*
X10676938Y-17034754D02*
X10657890Y-17025230D01*
X10657890Y-17025230D02*
X10648367Y-17006182D01*
X10648367Y-17006182D02*
X10648367Y-16834754D01*
X10829319Y-17025230D02*
X10810271Y-17034754D01*
X10810271Y-17034754D02*
X10772176Y-17034754D01*
X10772176Y-17034754D02*
X10753128Y-17025230D01*
X10753128Y-17025230D02*
X10743605Y-17006182D01*
X10743605Y-17006182D02*
X10743605Y-16929992D01*
X10743605Y-16929992D02*
X10753128Y-16910944D01*
X10753128Y-16910944D02*
X10772176Y-16901421D01*
X10772176Y-16901421D02*
X10810271Y-16901421D01*
X10810271Y-16901421D02*
X10829319Y-16910944D01*
X10829319Y-16910944D02*
X10838843Y-16929992D01*
X10838843Y-16929992D02*
X10838843Y-16949040D01*
X10838843Y-16949040D02*
X10743605Y-16968087D01*
X10915033Y-17025230D02*
X10934081Y-17034754D01*
X10934081Y-17034754D02*
X10972176Y-17034754D01*
X10972176Y-17034754D02*
X10991224Y-17025230D01*
X10991224Y-17025230D02*
X11000748Y-17006182D01*
X11000748Y-17006182D02*
X11000748Y-16996659D01*
X11000748Y-16996659D02*
X10991224Y-16977611D01*
X10991224Y-16977611D02*
X10972176Y-16968087D01*
X10972176Y-16968087D02*
X10943605Y-16968087D01*
X10943605Y-16968087D02*
X10924557Y-16958563D01*
X10924557Y-16958563D02*
X10915033Y-16939516D01*
X10915033Y-16939516D02*
X10915033Y-16929992D01*
X10915033Y-16929992D02*
X10924557Y-16910944D01*
X10924557Y-16910944D02*
X10943605Y-16901421D01*
X10943605Y-16901421D02*
X10972176Y-16901421D01*
X10972176Y-16901421D02*
X10991224Y-16910944D01*
X11067414Y-17110944D02*
X11076938Y-17101421D01*
X11076938Y-17101421D02*
X11095986Y-17072849D01*
X11095986Y-17072849D02*
X11105509Y-17053802D01*
X11105509Y-17053802D02*
X11115033Y-17025230D01*
X11115033Y-17025230D02*
X11124557Y-16977611D01*
X11124557Y-16977611D02*
X11124557Y-16939516D01*
X11124557Y-16939516D02*
X11115033Y-16891897D01*
X11115033Y-16891897D02*
X11105509Y-16863325D01*
X11105509Y-16863325D02*
X11095986Y-16844278D01*
X11095986Y-16844278D02*
X11076938Y-16815706D01*
X11076938Y-16815706D02*
X11067414Y-16806182D01*
X5901875Y-17107270D02*
X6101875Y-17307270D01*
X6101875Y-17107270D02*
X5901875Y-17307270D01*
X6101875Y-17207270D02*
G75*
G03*
X6101875Y-17207270I-100000J0D01*
G01*
X6353128Y-17117802D02*
X6362652Y-17108278D01*
X6362652Y-17108278D02*
X6381699Y-17098754D01*
X6381699Y-17098754D02*
X6429318Y-17098754D01*
X6429318Y-17098754D02*
X6448366Y-17108278D01*
X6448366Y-17108278D02*
X6457890Y-17117802D01*
X6457890Y-17117802D02*
X6467414Y-17136849D01*
X6467414Y-17136849D02*
X6467414Y-17155897D01*
X6467414Y-17155897D02*
X6457890Y-17184468D01*
X6457890Y-17184468D02*
X6343604Y-17298754D01*
X6343604Y-17298754D02*
X6467414Y-17298754D01*
X6553128Y-17279706D02*
X6562652Y-17289230D01*
X6562652Y-17289230D02*
X6553128Y-17298754D01*
X6553128Y-17298754D02*
X6543604Y-17289230D01*
X6543604Y-17289230D02*
X6553128Y-17279706D01*
X6553128Y-17279706D02*
X6553128Y-17298754D01*
X6638842Y-17117802D02*
X6648366Y-17108278D01*
X6648366Y-17108278D02*
X6667414Y-17098754D01*
X6667414Y-17098754D02*
X6715033Y-17098754D01*
X6715033Y-17098754D02*
X6734080Y-17108278D01*
X6734080Y-17108278D02*
X6743604Y-17117802D01*
X6743604Y-17117802D02*
X6753128Y-17136849D01*
X6753128Y-17136849D02*
X6753128Y-17155897D01*
X6753128Y-17155897D02*
X6743604Y-17184468D01*
X6743604Y-17184468D02*
X6629318Y-17298754D01*
X6629318Y-17298754D02*
X6753128Y-17298754D01*
X6876937Y-17098754D02*
X6895985Y-17098754D01*
X6895985Y-17098754D02*
X6915033Y-17108278D01*
X6915033Y-17108278D02*
X6924557Y-17117802D01*
X6924557Y-17117802D02*
X6934080Y-17136849D01*
X6934080Y-17136849D02*
X6943604Y-17174944D01*
X6943604Y-17174944D02*
X6943604Y-17222563D01*
X6943604Y-17222563D02*
X6934080Y-17260659D01*
X6934080Y-17260659D02*
X6924557Y-17279706D01*
X6924557Y-17279706D02*
X6915033Y-17289230D01*
X6915033Y-17289230D02*
X6895985Y-17298754D01*
X6895985Y-17298754D02*
X6876937Y-17298754D01*
X6876937Y-17298754D02*
X6857890Y-17289230D01*
X6857890Y-17289230D02*
X6848366Y-17279706D01*
X6848366Y-17279706D02*
X6838842Y-17260659D01*
X6838842Y-17260659D02*
X6829318Y-17222563D01*
X6829318Y-17222563D02*
X6829318Y-17174944D01*
X6829318Y-17174944D02*
X6838842Y-17136849D01*
X6838842Y-17136849D02*
X6848366Y-17117802D01*
X6848366Y-17117802D02*
X6857890Y-17108278D01*
X6857890Y-17108278D02*
X6876937Y-17098754D01*
X7067414Y-17098754D02*
X7086461Y-17098754D01*
X7086461Y-17098754D02*
X7105509Y-17108278D01*
X7105509Y-17108278D02*
X7115033Y-17117802D01*
X7115033Y-17117802D02*
X7124557Y-17136849D01*
X7124557Y-17136849D02*
X7134080Y-17174944D01*
X7134080Y-17174944D02*
X7134080Y-17222563D01*
X7134080Y-17222563D02*
X7124557Y-17260659D01*
X7124557Y-17260659D02*
X7115033Y-17279706D01*
X7115033Y-17279706D02*
X7105509Y-17289230D01*
X7105509Y-17289230D02*
X7086461Y-17298754D01*
X7086461Y-17298754D02*
X7067414Y-17298754D01*
X7067414Y-17298754D02*
X7048366Y-17289230D01*
X7048366Y-17289230D02*
X7038842Y-17279706D01*
X7038842Y-17279706D02*
X7029318Y-17260659D01*
X7029318Y-17260659D02*
X7019795Y-17222563D01*
X7019795Y-17222563D02*
X7019795Y-17174944D01*
X7019795Y-17174944D02*
X7029318Y-17136849D01*
X7029318Y-17136849D02*
X7038842Y-17117802D01*
X7038842Y-17117802D02*
X7048366Y-17108278D01*
X7048366Y-17108278D02*
X7067414Y-17098754D01*
X7219795Y-17298754D02*
X7219795Y-17165421D01*
X7219795Y-17184468D02*
X7229318Y-17174944D01*
X7229318Y-17174944D02*
X7248366Y-17165421D01*
X7248366Y-17165421D02*
X7276938Y-17165421D01*
X7276938Y-17165421D02*
X7295985Y-17174944D01*
X7295985Y-17174944D02*
X7305509Y-17193992D01*
X7305509Y-17193992D02*
X7305509Y-17298754D01*
X7305509Y-17193992D02*
X7315033Y-17174944D01*
X7315033Y-17174944D02*
X7334080Y-17165421D01*
X7334080Y-17165421D02*
X7362652Y-17165421D01*
X7362652Y-17165421D02*
X7381699Y-17174944D01*
X7381699Y-17174944D02*
X7391223Y-17193992D01*
X7391223Y-17193992D02*
X7391223Y-17298754D01*
X7486461Y-17298754D02*
X7486461Y-17165421D01*
X7486461Y-17184468D02*
X7495985Y-17174944D01*
X7495985Y-17174944D02*
X7515033Y-17165421D01*
X7515033Y-17165421D02*
X7543604Y-17165421D01*
X7543604Y-17165421D02*
X7562652Y-17174944D01*
X7562652Y-17174944D02*
X7572176Y-17193992D01*
X7572176Y-17193992D02*
X7572176Y-17298754D01*
X7572176Y-17193992D02*
X7581699Y-17174944D01*
X7581699Y-17174944D02*
X7600747Y-17165421D01*
X7600747Y-17165421D02*
X7629318Y-17165421D01*
X7629318Y-17165421D02*
X7648366Y-17174944D01*
X7648366Y-17174944D02*
X7657890Y-17193992D01*
X7657890Y-17193992D02*
X7657890Y-17298754D01*
X8048366Y-17089230D02*
X7876938Y-17346373D01*
X8305509Y-17098754D02*
X8324557Y-17098754D01*
X8324557Y-17098754D02*
X8343604Y-17108278D01*
X8343604Y-17108278D02*
X8353128Y-17117802D01*
X8353128Y-17117802D02*
X8362652Y-17136849D01*
X8362652Y-17136849D02*
X8372176Y-17174944D01*
X8372176Y-17174944D02*
X8372176Y-17222563D01*
X8372176Y-17222563D02*
X8362652Y-17260659D01*
X8362652Y-17260659D02*
X8353128Y-17279706D01*
X8353128Y-17279706D02*
X8343604Y-17289230D01*
X8343604Y-17289230D02*
X8324557Y-17298754D01*
X8324557Y-17298754D02*
X8305509Y-17298754D01*
X8305509Y-17298754D02*
X8286461Y-17289230D01*
X8286461Y-17289230D02*
X8276938Y-17279706D01*
X8276938Y-17279706D02*
X8267414Y-17260659D01*
X8267414Y-17260659D02*
X8257890Y-17222563D01*
X8257890Y-17222563D02*
X8257890Y-17174944D01*
X8257890Y-17174944D02*
X8267414Y-17136849D01*
X8267414Y-17136849D02*
X8276938Y-17117802D01*
X8276938Y-17117802D02*
X8286461Y-17108278D01*
X8286461Y-17108278D02*
X8305509Y-17098754D01*
X8457890Y-17279706D02*
X8467414Y-17289230D01*
X8467414Y-17289230D02*
X8457890Y-17298754D01*
X8457890Y-17298754D02*
X8448366Y-17289230D01*
X8448366Y-17289230D02*
X8457890Y-17279706D01*
X8457890Y-17279706D02*
X8457890Y-17298754D01*
X8591223Y-17098754D02*
X8610271Y-17098754D01*
X8610271Y-17098754D02*
X8629319Y-17108278D01*
X8629319Y-17108278D02*
X8638843Y-17117802D01*
X8638843Y-17117802D02*
X8648366Y-17136849D01*
X8648366Y-17136849D02*
X8657890Y-17174944D01*
X8657890Y-17174944D02*
X8657890Y-17222563D01*
X8657890Y-17222563D02*
X8648366Y-17260659D01*
X8648366Y-17260659D02*
X8638843Y-17279706D01*
X8638843Y-17279706D02*
X8629319Y-17289230D01*
X8629319Y-17289230D02*
X8610271Y-17298754D01*
X8610271Y-17298754D02*
X8591223Y-17298754D01*
X8591223Y-17298754D02*
X8572176Y-17289230D01*
X8572176Y-17289230D02*
X8562652Y-17279706D01*
X8562652Y-17279706D02*
X8553128Y-17260659D01*
X8553128Y-17260659D02*
X8543604Y-17222563D01*
X8543604Y-17222563D02*
X8543604Y-17174944D01*
X8543604Y-17174944D02*
X8553128Y-17136849D01*
X8553128Y-17136849D02*
X8562652Y-17117802D01*
X8562652Y-17117802D02*
X8572176Y-17108278D01*
X8572176Y-17108278D02*
X8591223Y-17098754D01*
X8772176Y-17184468D02*
X8753128Y-17174944D01*
X8753128Y-17174944D02*
X8743604Y-17165421D01*
X8743604Y-17165421D02*
X8734081Y-17146373D01*
X8734081Y-17146373D02*
X8734081Y-17136849D01*
X8734081Y-17136849D02*
X8743604Y-17117802D01*
X8743604Y-17117802D02*
X8753128Y-17108278D01*
X8753128Y-17108278D02*
X8772176Y-17098754D01*
X8772176Y-17098754D02*
X8810271Y-17098754D01*
X8810271Y-17098754D02*
X8829319Y-17108278D01*
X8829319Y-17108278D02*
X8838843Y-17117802D01*
X8838843Y-17117802D02*
X8848366Y-17136849D01*
X8848366Y-17136849D02*
X8848366Y-17146373D01*
X8848366Y-17146373D02*
X8838843Y-17165421D01*
X8838843Y-17165421D02*
X8829319Y-17174944D01*
X8829319Y-17174944D02*
X8810271Y-17184468D01*
X8810271Y-17184468D02*
X8772176Y-17184468D01*
X8772176Y-17184468D02*
X8753128Y-17193992D01*
X8753128Y-17193992D02*
X8743604Y-17203516D01*
X8743604Y-17203516D02*
X8734081Y-17222563D01*
X8734081Y-17222563D02*
X8734081Y-17260659D01*
X8734081Y-17260659D02*
X8743604Y-17279706D01*
X8743604Y-17279706D02*
X8753128Y-17289230D01*
X8753128Y-17289230D02*
X8772176Y-17298754D01*
X8772176Y-17298754D02*
X8810271Y-17298754D01*
X8810271Y-17298754D02*
X8829319Y-17289230D01*
X8829319Y-17289230D02*
X8838843Y-17279706D01*
X8838843Y-17279706D02*
X8848366Y-17260659D01*
X8848366Y-17260659D02*
X8848366Y-17222563D01*
X8848366Y-17222563D02*
X8838843Y-17203516D01*
X8838843Y-17203516D02*
X8829319Y-17193992D01*
X8829319Y-17193992D02*
X8810271Y-17184468D01*
X9019795Y-17098754D02*
X8981700Y-17098754D01*
X8981700Y-17098754D02*
X8962652Y-17108278D01*
X8962652Y-17108278D02*
X8953128Y-17117802D01*
X8953128Y-17117802D02*
X8934081Y-17146373D01*
X8934081Y-17146373D02*
X8924557Y-17184468D01*
X8924557Y-17184468D02*
X8924557Y-17260659D01*
X8924557Y-17260659D02*
X8934081Y-17279706D01*
X8934081Y-17279706D02*
X8943604Y-17289230D01*
X8943604Y-17289230D02*
X8962652Y-17298754D01*
X8962652Y-17298754D02*
X9000747Y-17298754D01*
X9000747Y-17298754D02*
X9019795Y-17289230D01*
X9019795Y-17289230D02*
X9029319Y-17279706D01*
X9029319Y-17279706D02*
X9038843Y-17260659D01*
X9038843Y-17260659D02*
X9038843Y-17213040D01*
X9038843Y-17213040D02*
X9029319Y-17193992D01*
X9029319Y-17193992D02*
X9019795Y-17184468D01*
X9019795Y-17184468D02*
X9000747Y-17174944D01*
X9000747Y-17174944D02*
X8962652Y-17174944D01*
X8962652Y-17174944D02*
X8943604Y-17184468D01*
X8943604Y-17184468D02*
X8934081Y-17193992D01*
X8934081Y-17193992D02*
X8924557Y-17213040D01*
X9210271Y-17098754D02*
X9172176Y-17098754D01*
X9172176Y-17098754D02*
X9153128Y-17108278D01*
X9153128Y-17108278D02*
X9143604Y-17117802D01*
X9143604Y-17117802D02*
X9124557Y-17146373D01*
X9124557Y-17146373D02*
X9115033Y-17184468D01*
X9115033Y-17184468D02*
X9115033Y-17260659D01*
X9115033Y-17260659D02*
X9124557Y-17279706D01*
X9124557Y-17279706D02*
X9134081Y-17289230D01*
X9134081Y-17289230D02*
X9153128Y-17298754D01*
X9153128Y-17298754D02*
X9191224Y-17298754D01*
X9191224Y-17298754D02*
X9210271Y-17289230D01*
X9210271Y-17289230D02*
X9219795Y-17279706D01*
X9219795Y-17279706D02*
X9229319Y-17260659D01*
X9229319Y-17260659D02*
X9229319Y-17213040D01*
X9229319Y-17213040D02*
X9219795Y-17193992D01*
X9219795Y-17193992D02*
X9210271Y-17184468D01*
X9210271Y-17184468D02*
X9191224Y-17174944D01*
X9191224Y-17174944D02*
X9153128Y-17174944D01*
X9153128Y-17174944D02*
X9134081Y-17184468D01*
X9134081Y-17184468D02*
X9124557Y-17193992D01*
X9124557Y-17193992D02*
X9115033Y-17213040D01*
X9305509Y-17098754D02*
X9305509Y-17136849D01*
X9381700Y-17098754D02*
X9381700Y-17136849D01*
X9676938Y-17374944D02*
X9667414Y-17365421D01*
X9667414Y-17365421D02*
X9648366Y-17336849D01*
X9648366Y-17336849D02*
X9638843Y-17317802D01*
X9638843Y-17317802D02*
X9629319Y-17289230D01*
X9629319Y-17289230D02*
X9619795Y-17241611D01*
X9619795Y-17241611D02*
X9619795Y-17203516D01*
X9619795Y-17203516D02*
X9629319Y-17155897D01*
X9629319Y-17155897D02*
X9638843Y-17127325D01*
X9638843Y-17127325D02*
X9648366Y-17108278D01*
X9648366Y-17108278D02*
X9667414Y-17079706D01*
X9667414Y-17079706D02*
X9676938Y-17070182D01*
X9838843Y-17098754D02*
X9800747Y-17098754D01*
X9800747Y-17098754D02*
X9781700Y-17108278D01*
X9781700Y-17108278D02*
X9772176Y-17117802D01*
X9772176Y-17117802D02*
X9753128Y-17146373D01*
X9753128Y-17146373D02*
X9743605Y-17184468D01*
X9743605Y-17184468D02*
X9743605Y-17260659D01*
X9743605Y-17260659D02*
X9753128Y-17279706D01*
X9753128Y-17279706D02*
X9762652Y-17289230D01*
X9762652Y-17289230D02*
X9781700Y-17298754D01*
X9781700Y-17298754D02*
X9819795Y-17298754D01*
X9819795Y-17298754D02*
X9838843Y-17289230D01*
X9838843Y-17289230D02*
X9848366Y-17279706D01*
X9848366Y-17279706D02*
X9857890Y-17260659D01*
X9857890Y-17260659D02*
X9857890Y-17213040D01*
X9857890Y-17213040D02*
X9848366Y-17193992D01*
X9848366Y-17193992D02*
X9838843Y-17184468D01*
X9838843Y-17184468D02*
X9819795Y-17174944D01*
X9819795Y-17174944D02*
X9781700Y-17174944D01*
X9781700Y-17174944D02*
X9762652Y-17184468D01*
X9762652Y-17184468D02*
X9753128Y-17193992D01*
X9753128Y-17193992D02*
X9743605Y-17213040D01*
X10095986Y-17298754D02*
X10095986Y-17098754D01*
X10181700Y-17298754D02*
X10181700Y-17193992D01*
X10181700Y-17193992D02*
X10172176Y-17174944D01*
X10172176Y-17174944D02*
X10153128Y-17165421D01*
X10153128Y-17165421D02*
X10124557Y-17165421D01*
X10124557Y-17165421D02*
X10105509Y-17174944D01*
X10105509Y-17174944D02*
X10095986Y-17184468D01*
X10305509Y-17298754D02*
X10286462Y-17289230D01*
X10286462Y-17289230D02*
X10276938Y-17279706D01*
X10276938Y-17279706D02*
X10267414Y-17260659D01*
X10267414Y-17260659D02*
X10267414Y-17203516D01*
X10267414Y-17203516D02*
X10276938Y-17184468D01*
X10276938Y-17184468D02*
X10286462Y-17174944D01*
X10286462Y-17174944D02*
X10305509Y-17165421D01*
X10305509Y-17165421D02*
X10334081Y-17165421D01*
X10334081Y-17165421D02*
X10353128Y-17174944D01*
X10353128Y-17174944D02*
X10362652Y-17184468D01*
X10362652Y-17184468D02*
X10372176Y-17203516D01*
X10372176Y-17203516D02*
X10372176Y-17260659D01*
X10372176Y-17260659D02*
X10362652Y-17279706D01*
X10362652Y-17279706D02*
X10353128Y-17289230D01*
X10353128Y-17289230D02*
X10334081Y-17298754D01*
X10334081Y-17298754D02*
X10305509Y-17298754D01*
X10486462Y-17298754D02*
X10467414Y-17289230D01*
X10467414Y-17289230D02*
X10457890Y-17270182D01*
X10457890Y-17270182D02*
X10457890Y-17098754D01*
X10638843Y-17289230D02*
X10619795Y-17298754D01*
X10619795Y-17298754D02*
X10581700Y-17298754D01*
X10581700Y-17298754D02*
X10562652Y-17289230D01*
X10562652Y-17289230D02*
X10553128Y-17270182D01*
X10553128Y-17270182D02*
X10553128Y-17193992D01*
X10553128Y-17193992D02*
X10562652Y-17174944D01*
X10562652Y-17174944D02*
X10581700Y-17165421D01*
X10581700Y-17165421D02*
X10619795Y-17165421D01*
X10619795Y-17165421D02*
X10638843Y-17174944D01*
X10638843Y-17174944D02*
X10648367Y-17193992D01*
X10648367Y-17193992D02*
X10648367Y-17213040D01*
X10648367Y-17213040D02*
X10553128Y-17232087D01*
X10724557Y-17289230D02*
X10743605Y-17298754D01*
X10743605Y-17298754D02*
X10781700Y-17298754D01*
X10781700Y-17298754D02*
X10800748Y-17289230D01*
X10800748Y-17289230D02*
X10810271Y-17270182D01*
X10810271Y-17270182D02*
X10810271Y-17260659D01*
X10810271Y-17260659D02*
X10800748Y-17241611D01*
X10800748Y-17241611D02*
X10781700Y-17232087D01*
X10781700Y-17232087D02*
X10753128Y-17232087D01*
X10753128Y-17232087D02*
X10734081Y-17222563D01*
X10734081Y-17222563D02*
X10724557Y-17203516D01*
X10724557Y-17203516D02*
X10724557Y-17193992D01*
X10724557Y-17193992D02*
X10734081Y-17174944D01*
X10734081Y-17174944D02*
X10753128Y-17165421D01*
X10753128Y-17165421D02*
X10781700Y-17165421D01*
X10781700Y-17165421D02*
X10800748Y-17174944D01*
X10876938Y-17374944D02*
X10886462Y-17365421D01*
X10886462Y-17365421D02*
X10905509Y-17336849D01*
X10905509Y-17336849D02*
X10915033Y-17317802D01*
X10915033Y-17317802D02*
X10924557Y-17289230D01*
X10924557Y-17289230D02*
X10934081Y-17241611D01*
X10934081Y-17241611D02*
X10934081Y-17203516D01*
X10934081Y-17203516D02*
X10924557Y-17155897D01*
X10924557Y-17155897D02*
X10915033Y-17127325D01*
X10915033Y-17127325D02*
X10905509Y-17108278D01*
X10905509Y-17108278D02*
X10886462Y-17079706D01*
X10886462Y-17079706D02*
X10876938Y-17070182D01*
X5901875Y-17427270D02*
X6101875Y-17627270D01*
X6101875Y-17427270D02*
X5901875Y-17627270D01*
X6001875Y-17427270D02*
X6001875Y-17627270D01*
X5901875Y-17527270D02*
X6101875Y-17527270D01*
X6448366Y-17485421D02*
X6448366Y-17618754D01*
X6400747Y-17409230D02*
X6353128Y-17552087D01*
X6353128Y-17552087D02*
X6476937Y-17552087D01*
X6553128Y-17599706D02*
X6562652Y-17609230D01*
X6562652Y-17609230D02*
X6553128Y-17618754D01*
X6553128Y-17618754D02*
X6543604Y-17609230D01*
X6543604Y-17609230D02*
X6553128Y-17599706D01*
X6553128Y-17599706D02*
X6553128Y-17618754D01*
X6753128Y-17618754D02*
X6638842Y-17618754D01*
X6695985Y-17618754D02*
X6695985Y-17418754D01*
X6695985Y-17418754D02*
X6676937Y-17447325D01*
X6676937Y-17447325D02*
X6657890Y-17466373D01*
X6657890Y-17466373D02*
X6638842Y-17475897D01*
X6876937Y-17418754D02*
X6895985Y-17418754D01*
X6895985Y-17418754D02*
X6915033Y-17428278D01*
X6915033Y-17428278D02*
X6924557Y-17437802D01*
X6924557Y-17437802D02*
X6934080Y-17456849D01*
X6934080Y-17456849D02*
X6943604Y-17494944D01*
X6943604Y-17494944D02*
X6943604Y-17542563D01*
X6943604Y-17542563D02*
X6934080Y-17580659D01*
X6934080Y-17580659D02*
X6924557Y-17599706D01*
X6924557Y-17599706D02*
X6915033Y-17609230D01*
X6915033Y-17609230D02*
X6895985Y-17618754D01*
X6895985Y-17618754D02*
X6876937Y-17618754D01*
X6876937Y-17618754D02*
X6857890Y-17609230D01*
X6857890Y-17609230D02*
X6848366Y-17599706D01*
X6848366Y-17599706D02*
X6838842Y-17580659D01*
X6838842Y-17580659D02*
X6829318Y-17542563D01*
X6829318Y-17542563D02*
X6829318Y-17494944D01*
X6829318Y-17494944D02*
X6838842Y-17456849D01*
X6838842Y-17456849D02*
X6848366Y-17437802D01*
X6848366Y-17437802D02*
X6857890Y-17428278D01*
X6857890Y-17428278D02*
X6876937Y-17418754D01*
X7067414Y-17418754D02*
X7086461Y-17418754D01*
X7086461Y-17418754D02*
X7105509Y-17428278D01*
X7105509Y-17428278D02*
X7115033Y-17437802D01*
X7115033Y-17437802D02*
X7124557Y-17456849D01*
X7124557Y-17456849D02*
X7134080Y-17494944D01*
X7134080Y-17494944D02*
X7134080Y-17542563D01*
X7134080Y-17542563D02*
X7124557Y-17580659D01*
X7124557Y-17580659D02*
X7115033Y-17599706D01*
X7115033Y-17599706D02*
X7105509Y-17609230D01*
X7105509Y-17609230D02*
X7086461Y-17618754D01*
X7086461Y-17618754D02*
X7067414Y-17618754D01*
X7067414Y-17618754D02*
X7048366Y-17609230D01*
X7048366Y-17609230D02*
X7038842Y-17599706D01*
X7038842Y-17599706D02*
X7029318Y-17580659D01*
X7029318Y-17580659D02*
X7019795Y-17542563D01*
X7019795Y-17542563D02*
X7019795Y-17494944D01*
X7019795Y-17494944D02*
X7029318Y-17456849D01*
X7029318Y-17456849D02*
X7038842Y-17437802D01*
X7038842Y-17437802D02*
X7048366Y-17428278D01*
X7048366Y-17428278D02*
X7067414Y-17418754D01*
X7219795Y-17618754D02*
X7219795Y-17485421D01*
X7219795Y-17504468D02*
X7229318Y-17494944D01*
X7229318Y-17494944D02*
X7248366Y-17485421D01*
X7248366Y-17485421D02*
X7276938Y-17485421D01*
X7276938Y-17485421D02*
X7295985Y-17494944D01*
X7295985Y-17494944D02*
X7305509Y-17513992D01*
X7305509Y-17513992D02*
X7305509Y-17618754D01*
X7305509Y-17513992D02*
X7315033Y-17494944D01*
X7315033Y-17494944D02*
X7334080Y-17485421D01*
X7334080Y-17485421D02*
X7362652Y-17485421D01*
X7362652Y-17485421D02*
X7381699Y-17494944D01*
X7381699Y-17494944D02*
X7391223Y-17513992D01*
X7391223Y-17513992D02*
X7391223Y-17618754D01*
X7486461Y-17618754D02*
X7486461Y-17485421D01*
X7486461Y-17504468D02*
X7495985Y-17494944D01*
X7495985Y-17494944D02*
X7515033Y-17485421D01*
X7515033Y-17485421D02*
X7543604Y-17485421D01*
X7543604Y-17485421D02*
X7562652Y-17494944D01*
X7562652Y-17494944D02*
X7572176Y-17513992D01*
X7572176Y-17513992D02*
X7572176Y-17618754D01*
X7572176Y-17513992D02*
X7581699Y-17494944D01*
X7581699Y-17494944D02*
X7600747Y-17485421D01*
X7600747Y-17485421D02*
X7629318Y-17485421D01*
X7629318Y-17485421D02*
X7648366Y-17494944D01*
X7648366Y-17494944D02*
X7657890Y-17513992D01*
X7657890Y-17513992D02*
X7657890Y-17618754D01*
X8048366Y-17409230D02*
X7876938Y-17666373D01*
X8305509Y-17418754D02*
X8324557Y-17418754D01*
X8324557Y-17418754D02*
X8343604Y-17428278D01*
X8343604Y-17428278D02*
X8353128Y-17437802D01*
X8353128Y-17437802D02*
X8362652Y-17456849D01*
X8362652Y-17456849D02*
X8372176Y-17494944D01*
X8372176Y-17494944D02*
X8372176Y-17542563D01*
X8372176Y-17542563D02*
X8362652Y-17580659D01*
X8362652Y-17580659D02*
X8353128Y-17599706D01*
X8353128Y-17599706D02*
X8343604Y-17609230D01*
X8343604Y-17609230D02*
X8324557Y-17618754D01*
X8324557Y-17618754D02*
X8305509Y-17618754D01*
X8305509Y-17618754D02*
X8286461Y-17609230D01*
X8286461Y-17609230D02*
X8276938Y-17599706D01*
X8276938Y-17599706D02*
X8267414Y-17580659D01*
X8267414Y-17580659D02*
X8257890Y-17542563D01*
X8257890Y-17542563D02*
X8257890Y-17494944D01*
X8257890Y-17494944D02*
X8267414Y-17456849D01*
X8267414Y-17456849D02*
X8276938Y-17437802D01*
X8276938Y-17437802D02*
X8286461Y-17428278D01*
X8286461Y-17428278D02*
X8305509Y-17418754D01*
X8457890Y-17599706D02*
X8467414Y-17609230D01*
X8467414Y-17609230D02*
X8457890Y-17618754D01*
X8457890Y-17618754D02*
X8448366Y-17609230D01*
X8448366Y-17609230D02*
X8457890Y-17599706D01*
X8457890Y-17599706D02*
X8457890Y-17618754D01*
X8657890Y-17618754D02*
X8543604Y-17618754D01*
X8600747Y-17618754D02*
X8600747Y-17418754D01*
X8600747Y-17418754D02*
X8581700Y-17447325D01*
X8581700Y-17447325D02*
X8562652Y-17466373D01*
X8562652Y-17466373D02*
X8543604Y-17475897D01*
X8829319Y-17418754D02*
X8791223Y-17418754D01*
X8791223Y-17418754D02*
X8772176Y-17428278D01*
X8772176Y-17428278D02*
X8762652Y-17437802D01*
X8762652Y-17437802D02*
X8743604Y-17466373D01*
X8743604Y-17466373D02*
X8734081Y-17504468D01*
X8734081Y-17504468D02*
X8734081Y-17580659D01*
X8734081Y-17580659D02*
X8743604Y-17599706D01*
X8743604Y-17599706D02*
X8753128Y-17609230D01*
X8753128Y-17609230D02*
X8772176Y-17618754D01*
X8772176Y-17618754D02*
X8810271Y-17618754D01*
X8810271Y-17618754D02*
X8829319Y-17609230D01*
X8829319Y-17609230D02*
X8838843Y-17599706D01*
X8838843Y-17599706D02*
X8848366Y-17580659D01*
X8848366Y-17580659D02*
X8848366Y-17533040D01*
X8848366Y-17533040D02*
X8838843Y-17513992D01*
X8838843Y-17513992D02*
X8829319Y-17504468D01*
X8829319Y-17504468D02*
X8810271Y-17494944D01*
X8810271Y-17494944D02*
X8772176Y-17494944D01*
X8772176Y-17494944D02*
X8753128Y-17504468D01*
X8753128Y-17504468D02*
X8743604Y-17513992D01*
X8743604Y-17513992D02*
X8734081Y-17533040D01*
X9038843Y-17618754D02*
X8924557Y-17618754D01*
X8981700Y-17618754D02*
X8981700Y-17418754D01*
X8981700Y-17418754D02*
X8962652Y-17447325D01*
X8962652Y-17447325D02*
X8943604Y-17466373D01*
X8943604Y-17466373D02*
X8924557Y-17475897D01*
X9210271Y-17485421D02*
X9210271Y-17618754D01*
X9162652Y-17409230D02*
X9115033Y-17552087D01*
X9115033Y-17552087D02*
X9238843Y-17552087D01*
X9305509Y-17418754D02*
X9305509Y-17456849D01*
X9381700Y-17418754D02*
X9381700Y-17456849D01*
X9676938Y-17694944D02*
X9667414Y-17685421D01*
X9667414Y-17685421D02*
X9648366Y-17656849D01*
X9648366Y-17656849D02*
X9638843Y-17637802D01*
X9638843Y-17637802D02*
X9629319Y-17609230D01*
X9629319Y-17609230D02*
X9619795Y-17561611D01*
X9619795Y-17561611D02*
X9619795Y-17523516D01*
X9619795Y-17523516D02*
X9629319Y-17475897D01*
X9629319Y-17475897D02*
X9638843Y-17447325D01*
X9638843Y-17447325D02*
X9648366Y-17428278D01*
X9648366Y-17428278D02*
X9667414Y-17399706D01*
X9667414Y-17399706D02*
X9676938Y-17390182D01*
X9848366Y-17418754D02*
X9753128Y-17418754D01*
X9753128Y-17418754D02*
X9743605Y-17513992D01*
X9743605Y-17513992D02*
X9753128Y-17504468D01*
X9753128Y-17504468D02*
X9772176Y-17494944D01*
X9772176Y-17494944D02*
X9819795Y-17494944D01*
X9819795Y-17494944D02*
X9838843Y-17504468D01*
X9838843Y-17504468D02*
X9848366Y-17513992D01*
X9848366Y-17513992D02*
X9857890Y-17533040D01*
X9857890Y-17533040D02*
X9857890Y-17580659D01*
X9857890Y-17580659D02*
X9848366Y-17599706D01*
X9848366Y-17599706D02*
X9838843Y-17609230D01*
X9838843Y-17609230D02*
X9819795Y-17618754D01*
X9819795Y-17618754D02*
X9772176Y-17618754D01*
X9772176Y-17618754D02*
X9753128Y-17609230D01*
X9753128Y-17609230D02*
X9743605Y-17599706D01*
X10095986Y-17618754D02*
X10095986Y-17418754D01*
X10181700Y-17618754D02*
X10181700Y-17513992D01*
X10181700Y-17513992D02*
X10172176Y-17494944D01*
X10172176Y-17494944D02*
X10153128Y-17485421D01*
X10153128Y-17485421D02*
X10124557Y-17485421D01*
X10124557Y-17485421D02*
X10105509Y-17494944D01*
X10105509Y-17494944D02*
X10095986Y-17504468D01*
X10305509Y-17618754D02*
X10286462Y-17609230D01*
X10286462Y-17609230D02*
X10276938Y-17599706D01*
X10276938Y-17599706D02*
X10267414Y-17580659D01*
X10267414Y-17580659D02*
X10267414Y-17523516D01*
X10267414Y-17523516D02*
X10276938Y-17504468D01*
X10276938Y-17504468D02*
X10286462Y-17494944D01*
X10286462Y-17494944D02*
X10305509Y-17485421D01*
X10305509Y-17485421D02*
X10334081Y-17485421D01*
X10334081Y-17485421D02*
X10353128Y-17494944D01*
X10353128Y-17494944D02*
X10362652Y-17504468D01*
X10362652Y-17504468D02*
X10372176Y-17523516D01*
X10372176Y-17523516D02*
X10372176Y-17580659D01*
X10372176Y-17580659D02*
X10362652Y-17599706D01*
X10362652Y-17599706D02*
X10353128Y-17609230D01*
X10353128Y-17609230D02*
X10334081Y-17618754D01*
X10334081Y-17618754D02*
X10305509Y-17618754D01*
X10486462Y-17618754D02*
X10467414Y-17609230D01*
X10467414Y-17609230D02*
X10457890Y-17590182D01*
X10457890Y-17590182D02*
X10457890Y-17418754D01*
X10638843Y-17609230D02*
X10619795Y-17618754D01*
X10619795Y-17618754D02*
X10581700Y-17618754D01*
X10581700Y-17618754D02*
X10562652Y-17609230D01*
X10562652Y-17609230D02*
X10553128Y-17590182D01*
X10553128Y-17590182D02*
X10553128Y-17513992D01*
X10553128Y-17513992D02*
X10562652Y-17494944D01*
X10562652Y-17494944D02*
X10581700Y-17485421D01*
X10581700Y-17485421D02*
X10619795Y-17485421D01*
X10619795Y-17485421D02*
X10638843Y-17494944D01*
X10638843Y-17494944D02*
X10648367Y-17513992D01*
X10648367Y-17513992D02*
X10648367Y-17533040D01*
X10648367Y-17533040D02*
X10553128Y-17552087D01*
X10724557Y-17609230D02*
X10743605Y-17618754D01*
X10743605Y-17618754D02*
X10781700Y-17618754D01*
X10781700Y-17618754D02*
X10800748Y-17609230D01*
X10800748Y-17609230D02*
X10810271Y-17590182D01*
X10810271Y-17590182D02*
X10810271Y-17580659D01*
X10810271Y-17580659D02*
X10800748Y-17561611D01*
X10800748Y-17561611D02*
X10781700Y-17552087D01*
X10781700Y-17552087D02*
X10753128Y-17552087D01*
X10753128Y-17552087D02*
X10734081Y-17542563D01*
X10734081Y-17542563D02*
X10724557Y-17523516D01*
X10724557Y-17523516D02*
X10724557Y-17513992D01*
X10724557Y-17513992D02*
X10734081Y-17494944D01*
X10734081Y-17494944D02*
X10753128Y-17485421D01*
X10753128Y-17485421D02*
X10781700Y-17485421D01*
X10781700Y-17485421D02*
X10800748Y-17494944D01*
X10876938Y-17694944D02*
X10886462Y-17685421D01*
X10886462Y-17685421D02*
X10905509Y-17656849D01*
X10905509Y-17656849D02*
X10915033Y-17637802D01*
X10915033Y-17637802D02*
X10924557Y-17609230D01*
X10924557Y-17609230D02*
X10934081Y-17561611D01*
X10934081Y-17561611D02*
X10934081Y-17523516D01*
X10934081Y-17523516D02*
X10924557Y-17475897D01*
X10924557Y-17475897D02*
X10915033Y-17447325D01*
X10915033Y-17447325D02*
X10905509Y-17428278D01*
X10905509Y-17428278D02*
X10886462Y-17399706D01*
X10886462Y-17399706D02*
X10876938Y-17390182D01*
M02*
