%TF.GenerationSoftware,KiCad,Pcbnew,7.0.8*%
%TF.CreationDate,2023-10-24T16:55:24+02:00*%
%TF.ProjectId,corne-chocolate,636f726e-652d-4636-986f-636f6c617465,2.1*%
%TF.SameCoordinates,Original*%
%TF.FileFunction,Drillmap*%
%TF.FilePolarity,Positive*%
%FSLAX45Y45*%
G04 Gerber Fmt 4.5, Leading zero omitted, Abs format (unit mm)*
G04 Created by KiCad (PCBNEW 7.0.8) date 2023-10-24 16:55:24*
%MOMM*%
%LPD*%
G01*
G04 APERTURE LIST*
%ADD10C,0.150000*%
%ADD11C,0.200000*%
%ADD12C,0.090000*%
%ADD13C,0.170000*%
%ADD14C,0.400000*%
G04 APERTURE END LIST*
D10*
X11650000Y-12425000D02*
X6159375Y-12409375D01*
X6109375Y-9434375D02*
X6109375Y-7534375D01*
X6109375Y-9434375D02*
X6109375Y-11334375D01*
X19475000Y-6850000D02*
X19475000Y-12797500D01*
X15500000Y-6525000D02*
X15500000Y-6375000D01*
X19452277Y-12884770D02*
G75*
G03*
X19475000Y-12797500I-147507J85000D01*
G01*
X13600000Y-6275000D02*
X13600000Y-6150000D01*
X6109375Y-7534375D02*
X6109375Y-6834375D01*
X19475000Y-6850000D02*
G75*
G03*
X19425000Y-6800000I-50000J0D01*
G01*
X11750000Y-6325000D02*
X9950000Y-6325000D01*
X9950000Y-6325000D02*
G75*
G03*
X9900000Y-6375000I0J-50000D01*
G01*
X9850000Y-6800000D02*
X6159375Y-6784375D01*
X12739645Y-13885355D02*
G75*
G03*
X12775000Y-13900000I35355J35355D01*
G01*
X17350000Y-6575000D02*
X15550000Y-6575000D01*
X16507500Y-14390000D02*
X17936925Y-15216096D01*
X9850000Y-6800000D02*
G75*
G03*
X9900000Y-6750000I0J50000D01*
G01*
X6109375Y-12359375D02*
G75*
G03*
X6159375Y-12409375I50005J5D01*
G01*
X13550000Y-6100000D02*
X11850000Y-6100000D01*
X15450000Y-6325000D02*
X13650000Y-6325000D01*
X17936928Y-15216091D02*
G75*
G03*
X18129726Y-15178146I77502J114991D01*
G01*
X11685355Y-12439645D02*
X12739645Y-13885355D01*
X15500000Y-6525000D02*
G75*
G03*
X15550000Y-6575000I50000J0D01*
G01*
X13600000Y-6150000D02*
G75*
G03*
X13550000Y-6100000I-50000J0D01*
G01*
X11800000Y-6150000D02*
X11800000Y-6275000D01*
X17400000Y-6625000D02*
G75*
G03*
X17350000Y-6575000I-50000J0D01*
G01*
X12775000Y-13900000D02*
X16442055Y-14377034D01*
X15500000Y-6375000D02*
G75*
G03*
X15450000Y-6325000I-50000J0D01*
G01*
X9900000Y-6375000D02*
X9900000Y-6750000D01*
X18129726Y-15178146D02*
X19452500Y-12885000D01*
X11750000Y-6325000D02*
G75*
G03*
X11800000Y-6275000I0J50000D01*
G01*
X16507500Y-14390000D02*
G75*
G03*
X16442055Y-14377034I-98760J-326840D01*
G01*
X11685355Y-12439645D02*
G75*
G03*
X11650000Y-12425000I-35355J-35355D01*
G01*
X13600000Y-6275000D02*
G75*
G03*
X13650000Y-6325000I50000J0D01*
G01*
X17400000Y-6750000D02*
G75*
G03*
X17450000Y-6800000I50000J0D01*
G01*
X6109375Y-11334375D02*
X6109375Y-12359375D01*
X17400000Y-6625000D02*
X17400000Y-6750000D01*
X11850000Y-6100000D02*
G75*
G03*
X11800000Y-6150000I0J-50000D01*
G01*
X6159375Y-6784375D02*
G75*
G03*
X6109375Y-6834375I-5J-49995D01*
G01*
X19425000Y-6800000D02*
X17450000Y-6800000D01*
D11*
D12*
X19245000Y-9032500D02*
X19335000Y-9122500D01*
X19335000Y-9032500D02*
X19245000Y-9122500D01*
X19245000Y-9032500D02*
X19335000Y-9122500D01*
X19335000Y-9032500D02*
X19245000Y-9122500D01*
X19245000Y-9332500D02*
X19335000Y-9422500D01*
X19335000Y-9332500D02*
X19245000Y-9422500D01*
X19245000Y-9332500D02*
X19335000Y-9422500D01*
X19335000Y-9332500D02*
X19245000Y-9422500D01*
D13*
X6577000Y-7712500D02*
G75*
G03*
X6577000Y-7712500I-85000J0D01*
G01*
X6577000Y-9612500D02*
G75*
G03*
X6577000Y-9612500I-85000J0D01*
G01*
X6577000Y-11512500D02*
G75*
G03*
X6577000Y-11512500I-85000J0D01*
G01*
X7593000Y-7712500D02*
G75*
G03*
X7593000Y-7712500I-85000J0D01*
G01*
X7593000Y-9612500D02*
G75*
G03*
X7593000Y-9612500I-85000J0D01*
G01*
X7593000Y-11512500D02*
G75*
G03*
X7593000Y-11512500I-85000J0D01*
G01*
X8477000Y-7712500D02*
G75*
G03*
X8477000Y-7712500I-85000J0D01*
G01*
X8477000Y-9612500D02*
G75*
G03*
X8477000Y-9612500I-85000J0D01*
G01*
X8477000Y-11512500D02*
G75*
G03*
X8477000Y-11512500I-85000J0D01*
G01*
X9493000Y-7712500D02*
G75*
G03*
X9493000Y-7712500I-85000J0D01*
G01*
X9493000Y-9612500D02*
G75*
G03*
X9493000Y-9612500I-85000J0D01*
G01*
X9493000Y-11512500D02*
G75*
G03*
X9493000Y-11512500I-85000J0D01*
G01*
X10377000Y-7237500D02*
G75*
G03*
X10377000Y-7237500I-85000J0D01*
G01*
X10377000Y-9137500D02*
G75*
G03*
X10377000Y-9137500I-85000J0D01*
G01*
X10377000Y-11037500D02*
G75*
G03*
X10377000Y-11037500I-85000J0D01*
G01*
X11393000Y-7237500D02*
G75*
G03*
X11393000Y-7237500I-85000J0D01*
G01*
X11393000Y-9137500D02*
G75*
G03*
X11393000Y-9137500I-85000J0D01*
G01*
X11393000Y-11037500D02*
G75*
G03*
X11393000Y-11037500I-85000J0D01*
G01*
X12277000Y-7000000D02*
G75*
G03*
X12277000Y-7000000I-85000J0D01*
G01*
X12277000Y-8900000D02*
G75*
G03*
X12277000Y-8900000I-85000J0D01*
G01*
X12277000Y-10800000D02*
G75*
G03*
X12277000Y-10800000I-85000J0D01*
G01*
X13227000Y-12993750D02*
G75*
G03*
X13227000Y-12993750I-85000J0D01*
G01*
X13293000Y-7000000D02*
G75*
G03*
X13293000Y-7000000I-85000J0D01*
G01*
X13293000Y-8900000D02*
G75*
G03*
X13293000Y-8900000I-85000J0D01*
G01*
X13293000Y-10800000D02*
G75*
G03*
X13293000Y-10800000I-85000J0D01*
G01*
X14177000Y-7237500D02*
G75*
G03*
X14177000Y-7237500I-85000J0D01*
G01*
X14177000Y-9137500D02*
G75*
G03*
X14177000Y-9137500I-85000J0D01*
G01*
X14177000Y-11037500D02*
G75*
G03*
X14177000Y-11037500I-85000J0D01*
G01*
X14243000Y-12993750D02*
G75*
G03*
X14243000Y-12993750I-85000J0D01*
G01*
X15193000Y-7237500D02*
G75*
G03*
X15193000Y-7237500I-85000J0D01*
G01*
X15193000Y-9137500D02*
G75*
G03*
X15193000Y-9137500I-85000J0D01*
G01*
X15193000Y-11037500D02*
G75*
G03*
X15193000Y-11037500I-85000J0D01*
G01*
X15300560Y-13181020D02*
G75*
G03*
X15300560Y-13181020I-85000J0D01*
G01*
X16077000Y-7475000D02*
G75*
G03*
X16077000Y-7475000I-85000J0D01*
G01*
X16077000Y-9375000D02*
G75*
G03*
X16077000Y-9375000I-85000J0D01*
G01*
X16077000Y-11275000D02*
G75*
G03*
X16077000Y-11275000I-85000J0D01*
G01*
X16281940Y-13443980D02*
G75*
G03*
X16281940Y-13443980I-85000J0D01*
G01*
X17093000Y-7475000D02*
G75*
G03*
X17093000Y-7475000I-85000J0D01*
G01*
X17093000Y-9375000D02*
G75*
G03*
X17093000Y-9375000I-85000J0D01*
G01*
X17093000Y-11275000D02*
G75*
G03*
X17093000Y-11275000I-85000J0D01*
G01*
X17824750Y-14089941D02*
G75*
G03*
X17824750Y-14089941I-85000J0D01*
G01*
X18332750Y-13210059D02*
G75*
G03*
X18332750Y-13210059I-85000J0D01*
G01*
D14*
X7000000Y-7512500D02*
X7000000Y-7912500D01*
X6800000Y-7712500D02*
X7200000Y-7712500D01*
X7000000Y-9412500D02*
X7000000Y-9812500D01*
X6800000Y-9612500D02*
X7200000Y-9612500D01*
X7000000Y-11312500D02*
X7000000Y-11712500D01*
X6800000Y-11512500D02*
X7200000Y-11512500D01*
X8900000Y-7512500D02*
X8900000Y-7912500D01*
X8700000Y-7712500D02*
X9100000Y-7712500D01*
X8900000Y-9412500D02*
X8900000Y-9812500D01*
X8700000Y-9612500D02*
X9100000Y-9612500D01*
X8900000Y-11312500D02*
X8900000Y-11712500D01*
X8700000Y-11512500D02*
X9100000Y-11512500D01*
X10800000Y-7037500D02*
X10800000Y-7437500D01*
X10600000Y-7237500D02*
X11000000Y-7237500D01*
X10800000Y-8937500D02*
X10800000Y-9337500D01*
X10600000Y-9137500D02*
X11000000Y-9137500D01*
X10800000Y-10837500D02*
X10800000Y-11237500D01*
X10600000Y-11037500D02*
X11000000Y-11037500D01*
X12700000Y-6800000D02*
X12700000Y-7200000D01*
X12500000Y-7000000D02*
X12900000Y-7000000D01*
X12700000Y-8700000D02*
X12700000Y-9100000D01*
X12500000Y-8900000D02*
X12900000Y-8900000D01*
X12700000Y-10600000D02*
X12700000Y-11000000D01*
X12500000Y-10800000D02*
X12900000Y-10800000D01*
X13650000Y-12793750D02*
X13650000Y-13193750D01*
X13450000Y-12993750D02*
X13850000Y-12993750D01*
X14600000Y-7037500D02*
X14600000Y-7437500D01*
X14400000Y-7237500D02*
X14800000Y-7237500D01*
X14600000Y-8937500D02*
X14600000Y-9337500D01*
X14400000Y-9137500D02*
X14800000Y-9137500D01*
X14600000Y-10837500D02*
X14600000Y-11237500D01*
X14400000Y-11037500D02*
X14800000Y-11037500D01*
X15706250Y-13112500D02*
X15706250Y-13512500D01*
X15506250Y-13312500D02*
X15906250Y-13312500D01*
X16500000Y-7275000D02*
X16500000Y-7675000D01*
X16300000Y-7475000D02*
X16700000Y-7475000D01*
X16500000Y-9175000D02*
X16500000Y-9575000D01*
X16300000Y-9375000D02*
X16700000Y-9375000D01*
X16500000Y-11075000D02*
X16500000Y-11475000D01*
X16300000Y-11275000D02*
X16700000Y-11275000D01*
X17993750Y-13450000D02*
X17993750Y-13850000D01*
X17793750Y-13650000D02*
X18193750Y-13650000D01*
D11*
X6362652Y-15558754D02*
X6362652Y-15358754D01*
X6362652Y-15358754D02*
X6410271Y-15358754D01*
X6410271Y-15358754D02*
X6438842Y-15368278D01*
X6438842Y-15368278D02*
X6457890Y-15387325D01*
X6457890Y-15387325D02*
X6467414Y-15406373D01*
X6467414Y-15406373D02*
X6476937Y-15444468D01*
X6476937Y-15444468D02*
X6476937Y-15473040D01*
X6476937Y-15473040D02*
X6467414Y-15511135D01*
X6467414Y-15511135D02*
X6457890Y-15530182D01*
X6457890Y-15530182D02*
X6438842Y-15549230D01*
X6438842Y-15549230D02*
X6410271Y-15558754D01*
X6410271Y-15558754D02*
X6362652Y-15558754D01*
X6562652Y-15558754D02*
X6562652Y-15425420D01*
X6562652Y-15463516D02*
X6572176Y-15444468D01*
X6572176Y-15444468D02*
X6581699Y-15434944D01*
X6581699Y-15434944D02*
X6600747Y-15425420D01*
X6600747Y-15425420D02*
X6619795Y-15425420D01*
X6686461Y-15558754D02*
X6686461Y-15425420D01*
X6686461Y-15358754D02*
X6676937Y-15368278D01*
X6676937Y-15368278D02*
X6686461Y-15377801D01*
X6686461Y-15377801D02*
X6695985Y-15368278D01*
X6695985Y-15368278D02*
X6686461Y-15358754D01*
X6686461Y-15358754D02*
X6686461Y-15377801D01*
X6810271Y-15558754D02*
X6791223Y-15549230D01*
X6791223Y-15549230D02*
X6781699Y-15530182D01*
X6781699Y-15530182D02*
X6781699Y-15358754D01*
X6915033Y-15558754D02*
X6895985Y-15549230D01*
X6895985Y-15549230D02*
X6886461Y-15530182D01*
X6886461Y-15530182D02*
X6886461Y-15358754D01*
X7143604Y-15558754D02*
X7143604Y-15358754D01*
X7143604Y-15358754D02*
X7210271Y-15501611D01*
X7210271Y-15501611D02*
X7276937Y-15358754D01*
X7276937Y-15358754D02*
X7276937Y-15558754D01*
X7457890Y-15558754D02*
X7457890Y-15453992D01*
X7457890Y-15453992D02*
X7448366Y-15434944D01*
X7448366Y-15434944D02*
X7429318Y-15425420D01*
X7429318Y-15425420D02*
X7391223Y-15425420D01*
X7391223Y-15425420D02*
X7372176Y-15434944D01*
X7457890Y-15549230D02*
X7438842Y-15558754D01*
X7438842Y-15558754D02*
X7391223Y-15558754D01*
X7391223Y-15558754D02*
X7372176Y-15549230D01*
X7372176Y-15549230D02*
X7362652Y-15530182D01*
X7362652Y-15530182D02*
X7362652Y-15511135D01*
X7362652Y-15511135D02*
X7372176Y-15492087D01*
X7372176Y-15492087D02*
X7391223Y-15482563D01*
X7391223Y-15482563D02*
X7438842Y-15482563D01*
X7438842Y-15482563D02*
X7457890Y-15473040D01*
X7553128Y-15425420D02*
X7553128Y-15625420D01*
X7553128Y-15434944D02*
X7572176Y-15425420D01*
X7572176Y-15425420D02*
X7610271Y-15425420D01*
X7610271Y-15425420D02*
X7629318Y-15434944D01*
X7629318Y-15434944D02*
X7638842Y-15444468D01*
X7638842Y-15444468D02*
X7648366Y-15463516D01*
X7648366Y-15463516D02*
X7648366Y-15520659D01*
X7648366Y-15520659D02*
X7638842Y-15539706D01*
X7638842Y-15539706D02*
X7629318Y-15549230D01*
X7629318Y-15549230D02*
X7610271Y-15558754D01*
X7610271Y-15558754D02*
X7572176Y-15558754D01*
X7572176Y-15558754D02*
X7553128Y-15549230D01*
X7734080Y-15539706D02*
X7743604Y-15549230D01*
X7743604Y-15549230D02*
X7734080Y-15558754D01*
X7734080Y-15558754D02*
X7724557Y-15549230D01*
X7724557Y-15549230D02*
X7734080Y-15539706D01*
X7734080Y-15539706D02*
X7734080Y-15558754D01*
X7734080Y-15434944D02*
X7743604Y-15444468D01*
X7743604Y-15444468D02*
X7734080Y-15453992D01*
X7734080Y-15453992D02*
X7724557Y-15444468D01*
X7724557Y-15444468D02*
X7734080Y-15434944D01*
X7734080Y-15434944D02*
X7734080Y-15453992D01*
D12*
X6011875Y-15842270D02*
X6101875Y-15932270D01*
X6101875Y-15842270D02*
X6011875Y-15932270D01*
D11*
X6400747Y-15778754D02*
X6419795Y-15778754D01*
X6419795Y-15778754D02*
X6438842Y-15788278D01*
X6438842Y-15788278D02*
X6448366Y-15797801D01*
X6448366Y-15797801D02*
X6457890Y-15816849D01*
X6457890Y-15816849D02*
X6467414Y-15854944D01*
X6467414Y-15854944D02*
X6467414Y-15902563D01*
X6467414Y-15902563D02*
X6457890Y-15940659D01*
X6457890Y-15940659D02*
X6448366Y-15959706D01*
X6448366Y-15959706D02*
X6438842Y-15969230D01*
X6438842Y-15969230D02*
X6419795Y-15978754D01*
X6419795Y-15978754D02*
X6400747Y-15978754D01*
X6400747Y-15978754D02*
X6381699Y-15969230D01*
X6381699Y-15969230D02*
X6372176Y-15959706D01*
X6372176Y-15959706D02*
X6362652Y-15940659D01*
X6362652Y-15940659D02*
X6353128Y-15902563D01*
X6353128Y-15902563D02*
X6353128Y-15854944D01*
X6353128Y-15854944D02*
X6362652Y-15816849D01*
X6362652Y-15816849D02*
X6372176Y-15797801D01*
X6372176Y-15797801D02*
X6381699Y-15788278D01*
X6381699Y-15788278D02*
X6400747Y-15778754D01*
X6553128Y-15959706D02*
X6562652Y-15969230D01*
X6562652Y-15969230D02*
X6553128Y-15978754D01*
X6553128Y-15978754D02*
X6543604Y-15969230D01*
X6543604Y-15969230D02*
X6553128Y-15959706D01*
X6553128Y-15959706D02*
X6553128Y-15978754D01*
X6657890Y-15978754D02*
X6695985Y-15978754D01*
X6695985Y-15978754D02*
X6715033Y-15969230D01*
X6715033Y-15969230D02*
X6724557Y-15959706D01*
X6724557Y-15959706D02*
X6743604Y-15931135D01*
X6743604Y-15931135D02*
X6753128Y-15893040D01*
X6753128Y-15893040D02*
X6753128Y-15816849D01*
X6753128Y-15816849D02*
X6743604Y-15797801D01*
X6743604Y-15797801D02*
X6734080Y-15788278D01*
X6734080Y-15788278D02*
X6715033Y-15778754D01*
X6715033Y-15778754D02*
X6676937Y-15778754D01*
X6676937Y-15778754D02*
X6657890Y-15788278D01*
X6657890Y-15788278D02*
X6648366Y-15797801D01*
X6648366Y-15797801D02*
X6638842Y-15816849D01*
X6638842Y-15816849D02*
X6638842Y-15864468D01*
X6638842Y-15864468D02*
X6648366Y-15883516D01*
X6648366Y-15883516D02*
X6657890Y-15893040D01*
X6657890Y-15893040D02*
X6676937Y-15902563D01*
X6676937Y-15902563D02*
X6715033Y-15902563D01*
X6715033Y-15902563D02*
X6734080Y-15893040D01*
X6734080Y-15893040D02*
X6743604Y-15883516D01*
X6743604Y-15883516D02*
X6753128Y-15864468D01*
X6876937Y-15778754D02*
X6895985Y-15778754D01*
X6895985Y-15778754D02*
X6915033Y-15788278D01*
X6915033Y-15788278D02*
X6924557Y-15797801D01*
X6924557Y-15797801D02*
X6934080Y-15816849D01*
X6934080Y-15816849D02*
X6943604Y-15854944D01*
X6943604Y-15854944D02*
X6943604Y-15902563D01*
X6943604Y-15902563D02*
X6934080Y-15940659D01*
X6934080Y-15940659D02*
X6924557Y-15959706D01*
X6924557Y-15959706D02*
X6915033Y-15969230D01*
X6915033Y-15969230D02*
X6895985Y-15978754D01*
X6895985Y-15978754D02*
X6876937Y-15978754D01*
X6876937Y-15978754D02*
X6857890Y-15969230D01*
X6857890Y-15969230D02*
X6848366Y-15959706D01*
X6848366Y-15959706D02*
X6838842Y-15940659D01*
X6838842Y-15940659D02*
X6829318Y-15902563D01*
X6829318Y-15902563D02*
X6829318Y-15854944D01*
X6829318Y-15854944D02*
X6838842Y-15816849D01*
X6838842Y-15816849D02*
X6848366Y-15797801D01*
X6848366Y-15797801D02*
X6857890Y-15788278D01*
X6857890Y-15788278D02*
X6876937Y-15778754D01*
X7067414Y-15778754D02*
X7086461Y-15778754D01*
X7086461Y-15778754D02*
X7105509Y-15788278D01*
X7105509Y-15788278D02*
X7115033Y-15797801D01*
X7115033Y-15797801D02*
X7124557Y-15816849D01*
X7124557Y-15816849D02*
X7134080Y-15854944D01*
X7134080Y-15854944D02*
X7134080Y-15902563D01*
X7134080Y-15902563D02*
X7124557Y-15940659D01*
X7124557Y-15940659D02*
X7115033Y-15959706D01*
X7115033Y-15959706D02*
X7105509Y-15969230D01*
X7105509Y-15969230D02*
X7086461Y-15978754D01*
X7086461Y-15978754D02*
X7067414Y-15978754D01*
X7067414Y-15978754D02*
X7048366Y-15969230D01*
X7048366Y-15969230D02*
X7038842Y-15959706D01*
X7038842Y-15959706D02*
X7029318Y-15940659D01*
X7029318Y-15940659D02*
X7019795Y-15902563D01*
X7019795Y-15902563D02*
X7019795Y-15854944D01*
X7019795Y-15854944D02*
X7029318Y-15816849D01*
X7029318Y-15816849D02*
X7038842Y-15797801D01*
X7038842Y-15797801D02*
X7048366Y-15788278D01*
X7048366Y-15788278D02*
X7067414Y-15778754D01*
X7219795Y-15978754D02*
X7219795Y-15845420D01*
X7219795Y-15864468D02*
X7229318Y-15854944D01*
X7229318Y-15854944D02*
X7248366Y-15845420D01*
X7248366Y-15845420D02*
X7276938Y-15845420D01*
X7276938Y-15845420D02*
X7295985Y-15854944D01*
X7295985Y-15854944D02*
X7305509Y-15873992D01*
X7305509Y-15873992D02*
X7305509Y-15978754D01*
X7305509Y-15873992D02*
X7315033Y-15854944D01*
X7315033Y-15854944D02*
X7334080Y-15845420D01*
X7334080Y-15845420D02*
X7362652Y-15845420D01*
X7362652Y-15845420D02*
X7381699Y-15854944D01*
X7381699Y-15854944D02*
X7391223Y-15873992D01*
X7391223Y-15873992D02*
X7391223Y-15978754D01*
X7486461Y-15978754D02*
X7486461Y-15845420D01*
X7486461Y-15864468D02*
X7495985Y-15854944D01*
X7495985Y-15854944D02*
X7515033Y-15845420D01*
X7515033Y-15845420D02*
X7543604Y-15845420D01*
X7543604Y-15845420D02*
X7562652Y-15854944D01*
X7562652Y-15854944D02*
X7572176Y-15873992D01*
X7572176Y-15873992D02*
X7572176Y-15978754D01*
X7572176Y-15873992D02*
X7581699Y-15854944D01*
X7581699Y-15854944D02*
X7600747Y-15845420D01*
X7600747Y-15845420D02*
X7629318Y-15845420D01*
X7629318Y-15845420D02*
X7648366Y-15854944D01*
X7648366Y-15854944D02*
X7657890Y-15873992D01*
X7657890Y-15873992D02*
X7657890Y-15978754D01*
X8048366Y-15769230D02*
X7876938Y-16026373D01*
X8305509Y-15778754D02*
X8324557Y-15778754D01*
X8324557Y-15778754D02*
X8343604Y-15788278D01*
X8343604Y-15788278D02*
X8353128Y-15797801D01*
X8353128Y-15797801D02*
X8362652Y-15816849D01*
X8362652Y-15816849D02*
X8372176Y-15854944D01*
X8372176Y-15854944D02*
X8372176Y-15902563D01*
X8372176Y-15902563D02*
X8362652Y-15940659D01*
X8362652Y-15940659D02*
X8353128Y-15959706D01*
X8353128Y-15959706D02*
X8343604Y-15969230D01*
X8343604Y-15969230D02*
X8324557Y-15978754D01*
X8324557Y-15978754D02*
X8305509Y-15978754D01*
X8305509Y-15978754D02*
X8286461Y-15969230D01*
X8286461Y-15969230D02*
X8276938Y-15959706D01*
X8276938Y-15959706D02*
X8267414Y-15940659D01*
X8267414Y-15940659D02*
X8257890Y-15902563D01*
X8257890Y-15902563D02*
X8257890Y-15854944D01*
X8257890Y-15854944D02*
X8267414Y-15816849D01*
X8267414Y-15816849D02*
X8276938Y-15797801D01*
X8276938Y-15797801D02*
X8286461Y-15788278D01*
X8286461Y-15788278D02*
X8305509Y-15778754D01*
X8457890Y-15959706D02*
X8467414Y-15969230D01*
X8467414Y-15969230D02*
X8457890Y-15978754D01*
X8457890Y-15978754D02*
X8448366Y-15969230D01*
X8448366Y-15969230D02*
X8457890Y-15959706D01*
X8457890Y-15959706D02*
X8457890Y-15978754D01*
X8591223Y-15778754D02*
X8610271Y-15778754D01*
X8610271Y-15778754D02*
X8629319Y-15788278D01*
X8629319Y-15788278D02*
X8638843Y-15797801D01*
X8638843Y-15797801D02*
X8648366Y-15816849D01*
X8648366Y-15816849D02*
X8657890Y-15854944D01*
X8657890Y-15854944D02*
X8657890Y-15902563D01*
X8657890Y-15902563D02*
X8648366Y-15940659D01*
X8648366Y-15940659D02*
X8638843Y-15959706D01*
X8638843Y-15959706D02*
X8629319Y-15969230D01*
X8629319Y-15969230D02*
X8610271Y-15978754D01*
X8610271Y-15978754D02*
X8591223Y-15978754D01*
X8591223Y-15978754D02*
X8572176Y-15969230D01*
X8572176Y-15969230D02*
X8562652Y-15959706D01*
X8562652Y-15959706D02*
X8553128Y-15940659D01*
X8553128Y-15940659D02*
X8543604Y-15902563D01*
X8543604Y-15902563D02*
X8543604Y-15854944D01*
X8543604Y-15854944D02*
X8553128Y-15816849D01*
X8553128Y-15816849D02*
X8562652Y-15797801D01*
X8562652Y-15797801D02*
X8572176Y-15788278D01*
X8572176Y-15788278D02*
X8591223Y-15778754D01*
X8724557Y-15778754D02*
X8848366Y-15778754D01*
X8848366Y-15778754D02*
X8781700Y-15854944D01*
X8781700Y-15854944D02*
X8810271Y-15854944D01*
X8810271Y-15854944D02*
X8829319Y-15864468D01*
X8829319Y-15864468D02*
X8838843Y-15873992D01*
X8838843Y-15873992D02*
X8848366Y-15893040D01*
X8848366Y-15893040D02*
X8848366Y-15940659D01*
X8848366Y-15940659D02*
X8838843Y-15959706D01*
X8838843Y-15959706D02*
X8829319Y-15969230D01*
X8829319Y-15969230D02*
X8810271Y-15978754D01*
X8810271Y-15978754D02*
X8753128Y-15978754D01*
X8753128Y-15978754D02*
X8734081Y-15969230D01*
X8734081Y-15969230D02*
X8724557Y-15959706D01*
X9029319Y-15778754D02*
X8934081Y-15778754D01*
X8934081Y-15778754D02*
X8924557Y-15873992D01*
X8924557Y-15873992D02*
X8934081Y-15864468D01*
X8934081Y-15864468D02*
X8953128Y-15854944D01*
X8953128Y-15854944D02*
X9000747Y-15854944D01*
X9000747Y-15854944D02*
X9019795Y-15864468D01*
X9019795Y-15864468D02*
X9029319Y-15873992D01*
X9029319Y-15873992D02*
X9038843Y-15893040D01*
X9038843Y-15893040D02*
X9038843Y-15940659D01*
X9038843Y-15940659D02*
X9029319Y-15959706D01*
X9029319Y-15959706D02*
X9019795Y-15969230D01*
X9019795Y-15969230D02*
X9000747Y-15978754D01*
X9000747Y-15978754D02*
X8953128Y-15978754D01*
X8953128Y-15978754D02*
X8934081Y-15969230D01*
X8934081Y-15969230D02*
X8924557Y-15959706D01*
X9210271Y-15845420D02*
X9210271Y-15978754D01*
X9162652Y-15769230D02*
X9115033Y-15912087D01*
X9115033Y-15912087D02*
X9238843Y-15912087D01*
X9305509Y-15778754D02*
X9305509Y-15816849D01*
X9381700Y-15778754D02*
X9381700Y-15816849D01*
X9676938Y-16054944D02*
X9667414Y-16045420D01*
X9667414Y-16045420D02*
X9648366Y-16016849D01*
X9648366Y-16016849D02*
X9638843Y-15997801D01*
X9638843Y-15997801D02*
X9629319Y-15969230D01*
X9629319Y-15969230D02*
X9619795Y-15921611D01*
X9619795Y-15921611D02*
X9619795Y-15883516D01*
X9619795Y-15883516D02*
X9629319Y-15835897D01*
X9629319Y-15835897D02*
X9638843Y-15807325D01*
X9638843Y-15807325D02*
X9648366Y-15788278D01*
X9648366Y-15788278D02*
X9667414Y-15759706D01*
X9667414Y-15759706D02*
X9676938Y-15750182D01*
X9838843Y-15845420D02*
X9838843Y-15978754D01*
X9791224Y-15769230D02*
X9743605Y-15912087D01*
X9743605Y-15912087D02*
X9867414Y-15912087D01*
X10095986Y-15978754D02*
X10095986Y-15778754D01*
X10181700Y-15978754D02*
X10181700Y-15873992D01*
X10181700Y-15873992D02*
X10172176Y-15854944D01*
X10172176Y-15854944D02*
X10153128Y-15845420D01*
X10153128Y-15845420D02*
X10124557Y-15845420D01*
X10124557Y-15845420D02*
X10105509Y-15854944D01*
X10105509Y-15854944D02*
X10095986Y-15864468D01*
X10305509Y-15978754D02*
X10286462Y-15969230D01*
X10286462Y-15969230D02*
X10276938Y-15959706D01*
X10276938Y-15959706D02*
X10267414Y-15940659D01*
X10267414Y-15940659D02*
X10267414Y-15883516D01*
X10267414Y-15883516D02*
X10276938Y-15864468D01*
X10276938Y-15864468D02*
X10286462Y-15854944D01*
X10286462Y-15854944D02*
X10305509Y-15845420D01*
X10305509Y-15845420D02*
X10334081Y-15845420D01*
X10334081Y-15845420D02*
X10353128Y-15854944D01*
X10353128Y-15854944D02*
X10362652Y-15864468D01*
X10362652Y-15864468D02*
X10372176Y-15883516D01*
X10372176Y-15883516D02*
X10372176Y-15940659D01*
X10372176Y-15940659D02*
X10362652Y-15959706D01*
X10362652Y-15959706D02*
X10353128Y-15969230D01*
X10353128Y-15969230D02*
X10334081Y-15978754D01*
X10334081Y-15978754D02*
X10305509Y-15978754D01*
X10486462Y-15978754D02*
X10467414Y-15969230D01*
X10467414Y-15969230D02*
X10457890Y-15950182D01*
X10457890Y-15950182D02*
X10457890Y-15778754D01*
X10638843Y-15969230D02*
X10619795Y-15978754D01*
X10619795Y-15978754D02*
X10581700Y-15978754D01*
X10581700Y-15978754D02*
X10562652Y-15969230D01*
X10562652Y-15969230D02*
X10553128Y-15950182D01*
X10553128Y-15950182D02*
X10553128Y-15873992D01*
X10553128Y-15873992D02*
X10562652Y-15854944D01*
X10562652Y-15854944D02*
X10581700Y-15845420D01*
X10581700Y-15845420D02*
X10619795Y-15845420D01*
X10619795Y-15845420D02*
X10638843Y-15854944D01*
X10638843Y-15854944D02*
X10648367Y-15873992D01*
X10648367Y-15873992D02*
X10648367Y-15893040D01*
X10648367Y-15893040D02*
X10553128Y-15912087D01*
X10724557Y-15969230D02*
X10743605Y-15978754D01*
X10743605Y-15978754D02*
X10781700Y-15978754D01*
X10781700Y-15978754D02*
X10800748Y-15969230D01*
X10800748Y-15969230D02*
X10810271Y-15950182D01*
X10810271Y-15950182D02*
X10810271Y-15940659D01*
X10810271Y-15940659D02*
X10800748Y-15921611D01*
X10800748Y-15921611D02*
X10781700Y-15912087D01*
X10781700Y-15912087D02*
X10753128Y-15912087D01*
X10753128Y-15912087D02*
X10734081Y-15902563D01*
X10734081Y-15902563D02*
X10724557Y-15883516D01*
X10724557Y-15883516D02*
X10724557Y-15873992D01*
X10724557Y-15873992D02*
X10734081Y-15854944D01*
X10734081Y-15854944D02*
X10753128Y-15845420D01*
X10753128Y-15845420D02*
X10781700Y-15845420D01*
X10781700Y-15845420D02*
X10800748Y-15854944D01*
X10876938Y-16054944D02*
X10886462Y-16045420D01*
X10886462Y-16045420D02*
X10905509Y-16016849D01*
X10905509Y-16016849D02*
X10915033Y-15997801D01*
X10915033Y-15997801D02*
X10924557Y-15969230D01*
X10924557Y-15969230D02*
X10934081Y-15921611D01*
X10934081Y-15921611D02*
X10934081Y-15883516D01*
X10934081Y-15883516D02*
X10924557Y-15835897D01*
X10924557Y-15835897D02*
X10915033Y-15807325D01*
X10915033Y-15807325D02*
X10905509Y-15788278D01*
X10905509Y-15788278D02*
X10886462Y-15759706D01*
X10886462Y-15759706D02*
X10876938Y-15750182D01*
X11238843Y-16054944D02*
X11229319Y-16045420D01*
X11229319Y-16045420D02*
X11210271Y-16016849D01*
X11210271Y-16016849D02*
X11200747Y-15997801D01*
X11200747Y-15997801D02*
X11191224Y-15969230D01*
X11191224Y-15969230D02*
X11181700Y-15921611D01*
X11181700Y-15921611D02*
X11181700Y-15883516D01*
X11181700Y-15883516D02*
X11191224Y-15835897D01*
X11191224Y-15835897D02*
X11200747Y-15807325D01*
X11200747Y-15807325D02*
X11210271Y-15788278D01*
X11210271Y-15788278D02*
X11229319Y-15759706D01*
X11229319Y-15759706D02*
X11238843Y-15750182D01*
X11315033Y-15845420D02*
X11315033Y-15978754D01*
X11315033Y-15864468D02*
X11324557Y-15854944D01*
X11324557Y-15854944D02*
X11343605Y-15845420D01*
X11343605Y-15845420D02*
X11372176Y-15845420D01*
X11372176Y-15845420D02*
X11391224Y-15854944D01*
X11391224Y-15854944D02*
X11400747Y-15873992D01*
X11400747Y-15873992D02*
X11400747Y-15978754D01*
X11524557Y-15978754D02*
X11505509Y-15969230D01*
X11505509Y-15969230D02*
X11495986Y-15959706D01*
X11495986Y-15959706D02*
X11486462Y-15940659D01*
X11486462Y-15940659D02*
X11486462Y-15883516D01*
X11486462Y-15883516D02*
X11495986Y-15864468D01*
X11495986Y-15864468D02*
X11505509Y-15854944D01*
X11505509Y-15854944D02*
X11524557Y-15845420D01*
X11524557Y-15845420D02*
X11553128Y-15845420D01*
X11553128Y-15845420D02*
X11572176Y-15854944D01*
X11572176Y-15854944D02*
X11581700Y-15864468D01*
X11581700Y-15864468D02*
X11591224Y-15883516D01*
X11591224Y-15883516D02*
X11591224Y-15940659D01*
X11591224Y-15940659D02*
X11581700Y-15959706D01*
X11581700Y-15959706D02*
X11572176Y-15969230D01*
X11572176Y-15969230D02*
X11553128Y-15978754D01*
X11553128Y-15978754D02*
X11524557Y-15978754D01*
X11648367Y-15845420D02*
X11724557Y-15845420D01*
X11676938Y-15778754D02*
X11676938Y-15950182D01*
X11676938Y-15950182D02*
X11686462Y-15969230D01*
X11686462Y-15969230D02*
X11705509Y-15978754D01*
X11705509Y-15978754D02*
X11724557Y-15978754D01*
X11943605Y-15845420D02*
X11943605Y-16045420D01*
X11943605Y-15854944D02*
X11962652Y-15845420D01*
X11962652Y-15845420D02*
X12000748Y-15845420D01*
X12000748Y-15845420D02*
X12019795Y-15854944D01*
X12019795Y-15854944D02*
X12029319Y-15864468D01*
X12029319Y-15864468D02*
X12038843Y-15883516D01*
X12038843Y-15883516D02*
X12038843Y-15940659D01*
X12038843Y-15940659D02*
X12029319Y-15959706D01*
X12029319Y-15959706D02*
X12019795Y-15969230D01*
X12019795Y-15969230D02*
X12000748Y-15978754D01*
X12000748Y-15978754D02*
X11962652Y-15978754D01*
X11962652Y-15978754D02*
X11943605Y-15969230D01*
X12153128Y-15978754D02*
X12134081Y-15969230D01*
X12134081Y-15969230D02*
X12124557Y-15950182D01*
X12124557Y-15950182D02*
X12124557Y-15778754D01*
X12315033Y-15978754D02*
X12315033Y-15873992D01*
X12315033Y-15873992D02*
X12305509Y-15854944D01*
X12305509Y-15854944D02*
X12286462Y-15845420D01*
X12286462Y-15845420D02*
X12248367Y-15845420D01*
X12248367Y-15845420D02*
X12229319Y-15854944D01*
X12315033Y-15969230D02*
X12295986Y-15978754D01*
X12295986Y-15978754D02*
X12248367Y-15978754D01*
X12248367Y-15978754D02*
X12229319Y-15969230D01*
X12229319Y-15969230D02*
X12219795Y-15950182D01*
X12219795Y-15950182D02*
X12219795Y-15931135D01*
X12219795Y-15931135D02*
X12229319Y-15912087D01*
X12229319Y-15912087D02*
X12248367Y-15902563D01*
X12248367Y-15902563D02*
X12295986Y-15902563D01*
X12295986Y-15902563D02*
X12315033Y-15893040D01*
X12381700Y-15845420D02*
X12457890Y-15845420D01*
X12410271Y-15778754D02*
X12410271Y-15950182D01*
X12410271Y-15950182D02*
X12419795Y-15969230D01*
X12419795Y-15969230D02*
X12438843Y-15978754D01*
X12438843Y-15978754D02*
X12457890Y-15978754D01*
X12600748Y-15969230D02*
X12581700Y-15978754D01*
X12581700Y-15978754D02*
X12543605Y-15978754D01*
X12543605Y-15978754D02*
X12524557Y-15969230D01*
X12524557Y-15969230D02*
X12515033Y-15950182D01*
X12515033Y-15950182D02*
X12515033Y-15873992D01*
X12515033Y-15873992D02*
X12524557Y-15854944D01*
X12524557Y-15854944D02*
X12543605Y-15845420D01*
X12543605Y-15845420D02*
X12581700Y-15845420D01*
X12581700Y-15845420D02*
X12600748Y-15854944D01*
X12600748Y-15854944D02*
X12610271Y-15873992D01*
X12610271Y-15873992D02*
X12610271Y-15893040D01*
X12610271Y-15893040D02*
X12515033Y-15912087D01*
X12781700Y-15978754D02*
X12781700Y-15778754D01*
X12781700Y-15969230D02*
X12762652Y-15978754D01*
X12762652Y-15978754D02*
X12724557Y-15978754D01*
X12724557Y-15978754D02*
X12705509Y-15969230D01*
X12705509Y-15969230D02*
X12695986Y-15959706D01*
X12695986Y-15959706D02*
X12686462Y-15940659D01*
X12686462Y-15940659D02*
X12686462Y-15883516D01*
X12686462Y-15883516D02*
X12695986Y-15864468D01*
X12695986Y-15864468D02*
X12705509Y-15854944D01*
X12705509Y-15854944D02*
X12724557Y-15845420D01*
X12724557Y-15845420D02*
X12762652Y-15845420D01*
X12762652Y-15845420D02*
X12781700Y-15854944D01*
X12857890Y-16054944D02*
X12867414Y-16045420D01*
X12867414Y-16045420D02*
X12886462Y-16016849D01*
X12886462Y-16016849D02*
X12895986Y-15997801D01*
X12895986Y-15997801D02*
X12905509Y-15969230D01*
X12905509Y-15969230D02*
X12915033Y-15921611D01*
X12915033Y-15921611D02*
X12915033Y-15883516D01*
X12915033Y-15883516D02*
X12905509Y-15835897D01*
X12905509Y-15835897D02*
X12895986Y-15807325D01*
X12895986Y-15807325D02*
X12886462Y-15788278D01*
X12886462Y-15788278D02*
X12867414Y-15759706D01*
X12867414Y-15759706D02*
X12857890Y-15750182D01*
D13*
X6101875Y-16151270D02*
G75*
G03*
X6101875Y-16151270I-85000J0D01*
G01*
D11*
X6467414Y-16242754D02*
X6353128Y-16242754D01*
X6410271Y-16242754D02*
X6410271Y-16042754D01*
X6410271Y-16042754D02*
X6391223Y-16071325D01*
X6391223Y-16071325D02*
X6372176Y-16090373D01*
X6372176Y-16090373D02*
X6353128Y-16099897D01*
X6553128Y-16223706D02*
X6562652Y-16233230D01*
X6562652Y-16233230D02*
X6553128Y-16242754D01*
X6553128Y-16242754D02*
X6543604Y-16233230D01*
X6543604Y-16233230D02*
X6553128Y-16223706D01*
X6553128Y-16223706D02*
X6553128Y-16242754D01*
X6629318Y-16042754D02*
X6762652Y-16042754D01*
X6762652Y-16042754D02*
X6676937Y-16242754D01*
X6876937Y-16042754D02*
X6895985Y-16042754D01*
X6895985Y-16042754D02*
X6915033Y-16052278D01*
X6915033Y-16052278D02*
X6924557Y-16061801D01*
X6924557Y-16061801D02*
X6934080Y-16080849D01*
X6934080Y-16080849D02*
X6943604Y-16118944D01*
X6943604Y-16118944D02*
X6943604Y-16166563D01*
X6943604Y-16166563D02*
X6934080Y-16204659D01*
X6934080Y-16204659D02*
X6924557Y-16223706D01*
X6924557Y-16223706D02*
X6915033Y-16233230D01*
X6915033Y-16233230D02*
X6895985Y-16242754D01*
X6895985Y-16242754D02*
X6876937Y-16242754D01*
X6876937Y-16242754D02*
X6857890Y-16233230D01*
X6857890Y-16233230D02*
X6848366Y-16223706D01*
X6848366Y-16223706D02*
X6838842Y-16204659D01*
X6838842Y-16204659D02*
X6829318Y-16166563D01*
X6829318Y-16166563D02*
X6829318Y-16118944D01*
X6829318Y-16118944D02*
X6838842Y-16080849D01*
X6838842Y-16080849D02*
X6848366Y-16061801D01*
X6848366Y-16061801D02*
X6857890Y-16052278D01*
X6857890Y-16052278D02*
X6876937Y-16042754D01*
X7067414Y-16042754D02*
X7086461Y-16042754D01*
X7086461Y-16042754D02*
X7105509Y-16052278D01*
X7105509Y-16052278D02*
X7115033Y-16061801D01*
X7115033Y-16061801D02*
X7124557Y-16080849D01*
X7124557Y-16080849D02*
X7134080Y-16118944D01*
X7134080Y-16118944D02*
X7134080Y-16166563D01*
X7134080Y-16166563D02*
X7124557Y-16204659D01*
X7124557Y-16204659D02*
X7115033Y-16223706D01*
X7115033Y-16223706D02*
X7105509Y-16233230D01*
X7105509Y-16233230D02*
X7086461Y-16242754D01*
X7086461Y-16242754D02*
X7067414Y-16242754D01*
X7067414Y-16242754D02*
X7048366Y-16233230D01*
X7048366Y-16233230D02*
X7038842Y-16223706D01*
X7038842Y-16223706D02*
X7029318Y-16204659D01*
X7029318Y-16204659D02*
X7019795Y-16166563D01*
X7019795Y-16166563D02*
X7019795Y-16118944D01*
X7019795Y-16118944D02*
X7029318Y-16080849D01*
X7029318Y-16080849D02*
X7038842Y-16061801D01*
X7038842Y-16061801D02*
X7048366Y-16052278D01*
X7048366Y-16052278D02*
X7067414Y-16042754D01*
X7219795Y-16242754D02*
X7219795Y-16109420D01*
X7219795Y-16128468D02*
X7229318Y-16118944D01*
X7229318Y-16118944D02*
X7248366Y-16109420D01*
X7248366Y-16109420D02*
X7276938Y-16109420D01*
X7276938Y-16109420D02*
X7295985Y-16118944D01*
X7295985Y-16118944D02*
X7305509Y-16137992D01*
X7305509Y-16137992D02*
X7305509Y-16242754D01*
X7305509Y-16137992D02*
X7315033Y-16118944D01*
X7315033Y-16118944D02*
X7334080Y-16109420D01*
X7334080Y-16109420D02*
X7362652Y-16109420D01*
X7362652Y-16109420D02*
X7381699Y-16118944D01*
X7381699Y-16118944D02*
X7391223Y-16137992D01*
X7391223Y-16137992D02*
X7391223Y-16242754D01*
X7486461Y-16242754D02*
X7486461Y-16109420D01*
X7486461Y-16128468D02*
X7495985Y-16118944D01*
X7495985Y-16118944D02*
X7515033Y-16109420D01*
X7515033Y-16109420D02*
X7543604Y-16109420D01*
X7543604Y-16109420D02*
X7562652Y-16118944D01*
X7562652Y-16118944D02*
X7572176Y-16137992D01*
X7572176Y-16137992D02*
X7572176Y-16242754D01*
X7572176Y-16137992D02*
X7581699Y-16118944D01*
X7581699Y-16118944D02*
X7600747Y-16109420D01*
X7600747Y-16109420D02*
X7629318Y-16109420D01*
X7629318Y-16109420D02*
X7648366Y-16118944D01*
X7648366Y-16118944D02*
X7657890Y-16137992D01*
X7657890Y-16137992D02*
X7657890Y-16242754D01*
X8048366Y-16033230D02*
X7876938Y-16290373D01*
X8305509Y-16042754D02*
X8324557Y-16042754D01*
X8324557Y-16042754D02*
X8343604Y-16052278D01*
X8343604Y-16052278D02*
X8353128Y-16061801D01*
X8353128Y-16061801D02*
X8362652Y-16080849D01*
X8362652Y-16080849D02*
X8372176Y-16118944D01*
X8372176Y-16118944D02*
X8372176Y-16166563D01*
X8372176Y-16166563D02*
X8362652Y-16204659D01*
X8362652Y-16204659D02*
X8353128Y-16223706D01*
X8353128Y-16223706D02*
X8343604Y-16233230D01*
X8343604Y-16233230D02*
X8324557Y-16242754D01*
X8324557Y-16242754D02*
X8305509Y-16242754D01*
X8305509Y-16242754D02*
X8286461Y-16233230D01*
X8286461Y-16233230D02*
X8276938Y-16223706D01*
X8276938Y-16223706D02*
X8267414Y-16204659D01*
X8267414Y-16204659D02*
X8257890Y-16166563D01*
X8257890Y-16166563D02*
X8257890Y-16118944D01*
X8257890Y-16118944D02*
X8267414Y-16080849D01*
X8267414Y-16080849D02*
X8276938Y-16061801D01*
X8276938Y-16061801D02*
X8286461Y-16052278D01*
X8286461Y-16052278D02*
X8305509Y-16042754D01*
X8457890Y-16223706D02*
X8467414Y-16233230D01*
X8467414Y-16233230D02*
X8457890Y-16242754D01*
X8457890Y-16242754D02*
X8448366Y-16233230D01*
X8448366Y-16233230D02*
X8457890Y-16223706D01*
X8457890Y-16223706D02*
X8457890Y-16242754D01*
X8591223Y-16042754D02*
X8610271Y-16042754D01*
X8610271Y-16042754D02*
X8629319Y-16052278D01*
X8629319Y-16052278D02*
X8638843Y-16061801D01*
X8638843Y-16061801D02*
X8648366Y-16080849D01*
X8648366Y-16080849D02*
X8657890Y-16118944D01*
X8657890Y-16118944D02*
X8657890Y-16166563D01*
X8657890Y-16166563D02*
X8648366Y-16204659D01*
X8648366Y-16204659D02*
X8638843Y-16223706D01*
X8638843Y-16223706D02*
X8629319Y-16233230D01*
X8629319Y-16233230D02*
X8610271Y-16242754D01*
X8610271Y-16242754D02*
X8591223Y-16242754D01*
X8591223Y-16242754D02*
X8572176Y-16233230D01*
X8572176Y-16233230D02*
X8562652Y-16223706D01*
X8562652Y-16223706D02*
X8553128Y-16204659D01*
X8553128Y-16204659D02*
X8543604Y-16166563D01*
X8543604Y-16166563D02*
X8543604Y-16118944D01*
X8543604Y-16118944D02*
X8553128Y-16080849D01*
X8553128Y-16080849D02*
X8562652Y-16061801D01*
X8562652Y-16061801D02*
X8572176Y-16052278D01*
X8572176Y-16052278D02*
X8591223Y-16042754D01*
X8829319Y-16042754D02*
X8791223Y-16042754D01*
X8791223Y-16042754D02*
X8772176Y-16052278D01*
X8772176Y-16052278D02*
X8762652Y-16061801D01*
X8762652Y-16061801D02*
X8743604Y-16090373D01*
X8743604Y-16090373D02*
X8734081Y-16128468D01*
X8734081Y-16128468D02*
X8734081Y-16204659D01*
X8734081Y-16204659D02*
X8743604Y-16223706D01*
X8743604Y-16223706D02*
X8753128Y-16233230D01*
X8753128Y-16233230D02*
X8772176Y-16242754D01*
X8772176Y-16242754D02*
X8810271Y-16242754D01*
X8810271Y-16242754D02*
X8829319Y-16233230D01*
X8829319Y-16233230D02*
X8838843Y-16223706D01*
X8838843Y-16223706D02*
X8848366Y-16204659D01*
X8848366Y-16204659D02*
X8848366Y-16157040D01*
X8848366Y-16157040D02*
X8838843Y-16137992D01*
X8838843Y-16137992D02*
X8829319Y-16128468D01*
X8829319Y-16128468D02*
X8810271Y-16118944D01*
X8810271Y-16118944D02*
X8772176Y-16118944D01*
X8772176Y-16118944D02*
X8753128Y-16128468D01*
X8753128Y-16128468D02*
X8743604Y-16137992D01*
X8743604Y-16137992D02*
X8734081Y-16157040D01*
X9019795Y-16042754D02*
X8981700Y-16042754D01*
X8981700Y-16042754D02*
X8962652Y-16052278D01*
X8962652Y-16052278D02*
X8953128Y-16061801D01*
X8953128Y-16061801D02*
X8934081Y-16090373D01*
X8934081Y-16090373D02*
X8924557Y-16128468D01*
X8924557Y-16128468D02*
X8924557Y-16204659D01*
X8924557Y-16204659D02*
X8934081Y-16223706D01*
X8934081Y-16223706D02*
X8943604Y-16233230D01*
X8943604Y-16233230D02*
X8962652Y-16242754D01*
X8962652Y-16242754D02*
X9000747Y-16242754D01*
X9000747Y-16242754D02*
X9019795Y-16233230D01*
X9019795Y-16233230D02*
X9029319Y-16223706D01*
X9029319Y-16223706D02*
X9038843Y-16204659D01*
X9038843Y-16204659D02*
X9038843Y-16157040D01*
X9038843Y-16157040D02*
X9029319Y-16137992D01*
X9029319Y-16137992D02*
X9019795Y-16128468D01*
X9019795Y-16128468D02*
X9000747Y-16118944D01*
X9000747Y-16118944D02*
X8962652Y-16118944D01*
X8962652Y-16118944D02*
X8943604Y-16128468D01*
X8943604Y-16128468D02*
X8934081Y-16137992D01*
X8934081Y-16137992D02*
X8924557Y-16157040D01*
X9134081Y-16242754D02*
X9172176Y-16242754D01*
X9172176Y-16242754D02*
X9191224Y-16233230D01*
X9191224Y-16233230D02*
X9200747Y-16223706D01*
X9200747Y-16223706D02*
X9219795Y-16195135D01*
X9219795Y-16195135D02*
X9229319Y-16157040D01*
X9229319Y-16157040D02*
X9229319Y-16080849D01*
X9229319Y-16080849D02*
X9219795Y-16061801D01*
X9219795Y-16061801D02*
X9210271Y-16052278D01*
X9210271Y-16052278D02*
X9191224Y-16042754D01*
X9191224Y-16042754D02*
X9153128Y-16042754D01*
X9153128Y-16042754D02*
X9134081Y-16052278D01*
X9134081Y-16052278D02*
X9124557Y-16061801D01*
X9124557Y-16061801D02*
X9115033Y-16080849D01*
X9115033Y-16080849D02*
X9115033Y-16128468D01*
X9115033Y-16128468D02*
X9124557Y-16147516D01*
X9124557Y-16147516D02*
X9134081Y-16157040D01*
X9134081Y-16157040D02*
X9153128Y-16166563D01*
X9153128Y-16166563D02*
X9191224Y-16166563D01*
X9191224Y-16166563D02*
X9210271Y-16157040D01*
X9210271Y-16157040D02*
X9219795Y-16147516D01*
X9219795Y-16147516D02*
X9229319Y-16128468D01*
X9305509Y-16042754D02*
X9305509Y-16080849D01*
X9381700Y-16042754D02*
X9381700Y-16080849D01*
X9676938Y-16318944D02*
X9667414Y-16309420D01*
X9667414Y-16309420D02*
X9648366Y-16280849D01*
X9648366Y-16280849D02*
X9638843Y-16261801D01*
X9638843Y-16261801D02*
X9629319Y-16233230D01*
X9629319Y-16233230D02*
X9619795Y-16185611D01*
X9619795Y-16185611D02*
X9619795Y-16147516D01*
X9619795Y-16147516D02*
X9629319Y-16099897D01*
X9629319Y-16099897D02*
X9638843Y-16071325D01*
X9638843Y-16071325D02*
X9648366Y-16052278D01*
X9648366Y-16052278D02*
X9667414Y-16023706D01*
X9667414Y-16023706D02*
X9676938Y-16014182D01*
X9838843Y-16109420D02*
X9838843Y-16242754D01*
X9791224Y-16033230D02*
X9743605Y-16176087D01*
X9743605Y-16176087D02*
X9867414Y-16176087D01*
X9934081Y-16061801D02*
X9943605Y-16052278D01*
X9943605Y-16052278D02*
X9962652Y-16042754D01*
X9962652Y-16042754D02*
X10010271Y-16042754D01*
X10010271Y-16042754D02*
X10029319Y-16052278D01*
X10029319Y-16052278D02*
X10038843Y-16061801D01*
X10038843Y-16061801D02*
X10048366Y-16080849D01*
X10048366Y-16080849D02*
X10048366Y-16099897D01*
X10048366Y-16099897D02*
X10038843Y-16128468D01*
X10038843Y-16128468D02*
X9924557Y-16242754D01*
X9924557Y-16242754D02*
X10048366Y-16242754D01*
X10286462Y-16242754D02*
X10286462Y-16042754D01*
X10372176Y-16242754D02*
X10372176Y-16137992D01*
X10372176Y-16137992D02*
X10362652Y-16118944D01*
X10362652Y-16118944D02*
X10343605Y-16109420D01*
X10343605Y-16109420D02*
X10315033Y-16109420D01*
X10315033Y-16109420D02*
X10295986Y-16118944D01*
X10295986Y-16118944D02*
X10286462Y-16128468D01*
X10495986Y-16242754D02*
X10476938Y-16233230D01*
X10476938Y-16233230D02*
X10467414Y-16223706D01*
X10467414Y-16223706D02*
X10457890Y-16204659D01*
X10457890Y-16204659D02*
X10457890Y-16147516D01*
X10457890Y-16147516D02*
X10467414Y-16128468D01*
X10467414Y-16128468D02*
X10476938Y-16118944D01*
X10476938Y-16118944D02*
X10495986Y-16109420D01*
X10495986Y-16109420D02*
X10524557Y-16109420D01*
X10524557Y-16109420D02*
X10543605Y-16118944D01*
X10543605Y-16118944D02*
X10553128Y-16128468D01*
X10553128Y-16128468D02*
X10562652Y-16147516D01*
X10562652Y-16147516D02*
X10562652Y-16204659D01*
X10562652Y-16204659D02*
X10553128Y-16223706D01*
X10553128Y-16223706D02*
X10543605Y-16233230D01*
X10543605Y-16233230D02*
X10524557Y-16242754D01*
X10524557Y-16242754D02*
X10495986Y-16242754D01*
X10676938Y-16242754D02*
X10657890Y-16233230D01*
X10657890Y-16233230D02*
X10648367Y-16214182D01*
X10648367Y-16214182D02*
X10648367Y-16042754D01*
X10829319Y-16233230D02*
X10810271Y-16242754D01*
X10810271Y-16242754D02*
X10772176Y-16242754D01*
X10772176Y-16242754D02*
X10753128Y-16233230D01*
X10753128Y-16233230D02*
X10743605Y-16214182D01*
X10743605Y-16214182D02*
X10743605Y-16137992D01*
X10743605Y-16137992D02*
X10753128Y-16118944D01*
X10753128Y-16118944D02*
X10772176Y-16109420D01*
X10772176Y-16109420D02*
X10810271Y-16109420D01*
X10810271Y-16109420D02*
X10829319Y-16118944D01*
X10829319Y-16118944D02*
X10838843Y-16137992D01*
X10838843Y-16137992D02*
X10838843Y-16157040D01*
X10838843Y-16157040D02*
X10743605Y-16176087D01*
X10915033Y-16233230D02*
X10934081Y-16242754D01*
X10934081Y-16242754D02*
X10972176Y-16242754D01*
X10972176Y-16242754D02*
X10991224Y-16233230D01*
X10991224Y-16233230D02*
X11000748Y-16214182D01*
X11000748Y-16214182D02*
X11000748Y-16204659D01*
X11000748Y-16204659D02*
X10991224Y-16185611D01*
X10991224Y-16185611D02*
X10972176Y-16176087D01*
X10972176Y-16176087D02*
X10943605Y-16176087D01*
X10943605Y-16176087D02*
X10924557Y-16166563D01*
X10924557Y-16166563D02*
X10915033Y-16147516D01*
X10915033Y-16147516D02*
X10915033Y-16137992D01*
X10915033Y-16137992D02*
X10924557Y-16118944D01*
X10924557Y-16118944D02*
X10943605Y-16109420D01*
X10943605Y-16109420D02*
X10972176Y-16109420D01*
X10972176Y-16109420D02*
X10991224Y-16118944D01*
X11067414Y-16318944D02*
X11076938Y-16309420D01*
X11076938Y-16309420D02*
X11095986Y-16280849D01*
X11095986Y-16280849D02*
X11105509Y-16261801D01*
X11105509Y-16261801D02*
X11115033Y-16233230D01*
X11115033Y-16233230D02*
X11124557Y-16185611D01*
X11124557Y-16185611D02*
X11124557Y-16147516D01*
X11124557Y-16147516D02*
X11115033Y-16099897D01*
X11115033Y-16099897D02*
X11105509Y-16071325D01*
X11105509Y-16071325D02*
X11095986Y-16052278D01*
X11095986Y-16052278D02*
X11076938Y-16023706D01*
X11076938Y-16023706D02*
X11067414Y-16014182D01*
X11429319Y-16318944D02*
X11419795Y-16309420D01*
X11419795Y-16309420D02*
X11400747Y-16280849D01*
X11400747Y-16280849D02*
X11391224Y-16261801D01*
X11391224Y-16261801D02*
X11381700Y-16233230D01*
X11381700Y-16233230D02*
X11372176Y-16185611D01*
X11372176Y-16185611D02*
X11372176Y-16147516D01*
X11372176Y-16147516D02*
X11381700Y-16099897D01*
X11381700Y-16099897D02*
X11391224Y-16071325D01*
X11391224Y-16071325D02*
X11400747Y-16052278D01*
X11400747Y-16052278D02*
X11419795Y-16023706D01*
X11419795Y-16023706D02*
X11429319Y-16014182D01*
X11505509Y-16109420D02*
X11505509Y-16242754D01*
X11505509Y-16128468D02*
X11515033Y-16118944D01*
X11515033Y-16118944D02*
X11534081Y-16109420D01*
X11534081Y-16109420D02*
X11562652Y-16109420D01*
X11562652Y-16109420D02*
X11581700Y-16118944D01*
X11581700Y-16118944D02*
X11591224Y-16137992D01*
X11591224Y-16137992D02*
X11591224Y-16242754D01*
X11715033Y-16242754D02*
X11695986Y-16233230D01*
X11695986Y-16233230D02*
X11686462Y-16223706D01*
X11686462Y-16223706D02*
X11676938Y-16204659D01*
X11676938Y-16204659D02*
X11676938Y-16147516D01*
X11676938Y-16147516D02*
X11686462Y-16128468D01*
X11686462Y-16128468D02*
X11695986Y-16118944D01*
X11695986Y-16118944D02*
X11715033Y-16109420D01*
X11715033Y-16109420D02*
X11743605Y-16109420D01*
X11743605Y-16109420D02*
X11762652Y-16118944D01*
X11762652Y-16118944D02*
X11772176Y-16128468D01*
X11772176Y-16128468D02*
X11781700Y-16147516D01*
X11781700Y-16147516D02*
X11781700Y-16204659D01*
X11781700Y-16204659D02*
X11772176Y-16223706D01*
X11772176Y-16223706D02*
X11762652Y-16233230D01*
X11762652Y-16233230D02*
X11743605Y-16242754D01*
X11743605Y-16242754D02*
X11715033Y-16242754D01*
X11838843Y-16109420D02*
X11915033Y-16109420D01*
X11867414Y-16042754D02*
X11867414Y-16214182D01*
X11867414Y-16214182D02*
X11876938Y-16233230D01*
X11876938Y-16233230D02*
X11895986Y-16242754D01*
X11895986Y-16242754D02*
X11915033Y-16242754D01*
X12134081Y-16109420D02*
X12134081Y-16309420D01*
X12134081Y-16118944D02*
X12153128Y-16109420D01*
X12153128Y-16109420D02*
X12191224Y-16109420D01*
X12191224Y-16109420D02*
X12210271Y-16118944D01*
X12210271Y-16118944D02*
X12219795Y-16128468D01*
X12219795Y-16128468D02*
X12229319Y-16147516D01*
X12229319Y-16147516D02*
X12229319Y-16204659D01*
X12229319Y-16204659D02*
X12219795Y-16223706D01*
X12219795Y-16223706D02*
X12210271Y-16233230D01*
X12210271Y-16233230D02*
X12191224Y-16242754D01*
X12191224Y-16242754D02*
X12153128Y-16242754D01*
X12153128Y-16242754D02*
X12134081Y-16233230D01*
X12343605Y-16242754D02*
X12324557Y-16233230D01*
X12324557Y-16233230D02*
X12315033Y-16214182D01*
X12315033Y-16214182D02*
X12315033Y-16042754D01*
X12505509Y-16242754D02*
X12505509Y-16137992D01*
X12505509Y-16137992D02*
X12495986Y-16118944D01*
X12495986Y-16118944D02*
X12476938Y-16109420D01*
X12476938Y-16109420D02*
X12438843Y-16109420D01*
X12438843Y-16109420D02*
X12419795Y-16118944D01*
X12505509Y-16233230D02*
X12486462Y-16242754D01*
X12486462Y-16242754D02*
X12438843Y-16242754D01*
X12438843Y-16242754D02*
X12419795Y-16233230D01*
X12419795Y-16233230D02*
X12410271Y-16214182D01*
X12410271Y-16214182D02*
X12410271Y-16195135D01*
X12410271Y-16195135D02*
X12419795Y-16176087D01*
X12419795Y-16176087D02*
X12438843Y-16166563D01*
X12438843Y-16166563D02*
X12486462Y-16166563D01*
X12486462Y-16166563D02*
X12505509Y-16157040D01*
X12572176Y-16109420D02*
X12648367Y-16109420D01*
X12600748Y-16042754D02*
X12600748Y-16214182D01*
X12600748Y-16214182D02*
X12610271Y-16233230D01*
X12610271Y-16233230D02*
X12629319Y-16242754D01*
X12629319Y-16242754D02*
X12648367Y-16242754D01*
X12791224Y-16233230D02*
X12772176Y-16242754D01*
X12772176Y-16242754D02*
X12734081Y-16242754D01*
X12734081Y-16242754D02*
X12715033Y-16233230D01*
X12715033Y-16233230D02*
X12705509Y-16214182D01*
X12705509Y-16214182D02*
X12705509Y-16137992D01*
X12705509Y-16137992D02*
X12715033Y-16118944D01*
X12715033Y-16118944D02*
X12734081Y-16109420D01*
X12734081Y-16109420D02*
X12772176Y-16109420D01*
X12772176Y-16109420D02*
X12791224Y-16118944D01*
X12791224Y-16118944D02*
X12800748Y-16137992D01*
X12800748Y-16137992D02*
X12800748Y-16157040D01*
X12800748Y-16157040D02*
X12705509Y-16176087D01*
X12972176Y-16242754D02*
X12972176Y-16042754D01*
X12972176Y-16233230D02*
X12953129Y-16242754D01*
X12953129Y-16242754D02*
X12915033Y-16242754D01*
X12915033Y-16242754D02*
X12895986Y-16233230D01*
X12895986Y-16233230D02*
X12886462Y-16223706D01*
X12886462Y-16223706D02*
X12876938Y-16204659D01*
X12876938Y-16204659D02*
X12876938Y-16147516D01*
X12876938Y-16147516D02*
X12886462Y-16128468D01*
X12886462Y-16128468D02*
X12895986Y-16118944D01*
X12895986Y-16118944D02*
X12915033Y-16109420D01*
X12915033Y-16109420D02*
X12953129Y-16109420D01*
X12953129Y-16109420D02*
X12972176Y-16118944D01*
X13048367Y-16318944D02*
X13057890Y-16309420D01*
X13057890Y-16309420D02*
X13076938Y-16280849D01*
X13076938Y-16280849D02*
X13086462Y-16261801D01*
X13086462Y-16261801D02*
X13095986Y-16233230D01*
X13095986Y-16233230D02*
X13105509Y-16185611D01*
X13105509Y-16185611D02*
X13105509Y-16147516D01*
X13105509Y-16147516D02*
X13095986Y-16099897D01*
X13095986Y-16099897D02*
X13086462Y-16071325D01*
X13086462Y-16071325D02*
X13076938Y-16052278D01*
X13076938Y-16052278D02*
X13057890Y-16023706D01*
X13057890Y-16023706D02*
X13048367Y-16014182D01*
X6001875Y-16341270D02*
X6001875Y-16541270D01*
X5901875Y-16441270D02*
X6101875Y-16441270D01*
X6448366Y-16399420D02*
X6448366Y-16532754D01*
X6400747Y-16323230D02*
X6353128Y-16466087D01*
X6353128Y-16466087D02*
X6476937Y-16466087D01*
X6553128Y-16513706D02*
X6562652Y-16523230D01*
X6562652Y-16523230D02*
X6553128Y-16532754D01*
X6553128Y-16532754D02*
X6543604Y-16523230D01*
X6543604Y-16523230D02*
X6553128Y-16513706D01*
X6553128Y-16513706D02*
X6553128Y-16532754D01*
X6686461Y-16332754D02*
X6705509Y-16332754D01*
X6705509Y-16332754D02*
X6724557Y-16342278D01*
X6724557Y-16342278D02*
X6734080Y-16351801D01*
X6734080Y-16351801D02*
X6743604Y-16370849D01*
X6743604Y-16370849D02*
X6753128Y-16408944D01*
X6753128Y-16408944D02*
X6753128Y-16456563D01*
X6753128Y-16456563D02*
X6743604Y-16494659D01*
X6743604Y-16494659D02*
X6734080Y-16513706D01*
X6734080Y-16513706D02*
X6724557Y-16523230D01*
X6724557Y-16523230D02*
X6705509Y-16532754D01*
X6705509Y-16532754D02*
X6686461Y-16532754D01*
X6686461Y-16532754D02*
X6667414Y-16523230D01*
X6667414Y-16523230D02*
X6657890Y-16513706D01*
X6657890Y-16513706D02*
X6648366Y-16494659D01*
X6648366Y-16494659D02*
X6638842Y-16456563D01*
X6638842Y-16456563D02*
X6638842Y-16408944D01*
X6638842Y-16408944D02*
X6648366Y-16370849D01*
X6648366Y-16370849D02*
X6657890Y-16351801D01*
X6657890Y-16351801D02*
X6667414Y-16342278D01*
X6667414Y-16342278D02*
X6686461Y-16332754D01*
X6876937Y-16332754D02*
X6895985Y-16332754D01*
X6895985Y-16332754D02*
X6915033Y-16342278D01*
X6915033Y-16342278D02*
X6924557Y-16351801D01*
X6924557Y-16351801D02*
X6934080Y-16370849D01*
X6934080Y-16370849D02*
X6943604Y-16408944D01*
X6943604Y-16408944D02*
X6943604Y-16456563D01*
X6943604Y-16456563D02*
X6934080Y-16494659D01*
X6934080Y-16494659D02*
X6924557Y-16513706D01*
X6924557Y-16513706D02*
X6915033Y-16523230D01*
X6915033Y-16523230D02*
X6895985Y-16532754D01*
X6895985Y-16532754D02*
X6876937Y-16532754D01*
X6876937Y-16532754D02*
X6857890Y-16523230D01*
X6857890Y-16523230D02*
X6848366Y-16513706D01*
X6848366Y-16513706D02*
X6838842Y-16494659D01*
X6838842Y-16494659D02*
X6829318Y-16456563D01*
X6829318Y-16456563D02*
X6829318Y-16408944D01*
X6829318Y-16408944D02*
X6838842Y-16370849D01*
X6838842Y-16370849D02*
X6848366Y-16351801D01*
X6848366Y-16351801D02*
X6857890Y-16342278D01*
X6857890Y-16342278D02*
X6876937Y-16332754D01*
X7067414Y-16332754D02*
X7086461Y-16332754D01*
X7086461Y-16332754D02*
X7105509Y-16342278D01*
X7105509Y-16342278D02*
X7115033Y-16351801D01*
X7115033Y-16351801D02*
X7124557Y-16370849D01*
X7124557Y-16370849D02*
X7134080Y-16408944D01*
X7134080Y-16408944D02*
X7134080Y-16456563D01*
X7134080Y-16456563D02*
X7124557Y-16494659D01*
X7124557Y-16494659D02*
X7115033Y-16513706D01*
X7115033Y-16513706D02*
X7105509Y-16523230D01*
X7105509Y-16523230D02*
X7086461Y-16532754D01*
X7086461Y-16532754D02*
X7067414Y-16532754D01*
X7067414Y-16532754D02*
X7048366Y-16523230D01*
X7048366Y-16523230D02*
X7038842Y-16513706D01*
X7038842Y-16513706D02*
X7029318Y-16494659D01*
X7029318Y-16494659D02*
X7019795Y-16456563D01*
X7019795Y-16456563D02*
X7019795Y-16408944D01*
X7019795Y-16408944D02*
X7029318Y-16370849D01*
X7029318Y-16370849D02*
X7038842Y-16351801D01*
X7038842Y-16351801D02*
X7048366Y-16342278D01*
X7048366Y-16342278D02*
X7067414Y-16332754D01*
X7219795Y-16532754D02*
X7219795Y-16399420D01*
X7219795Y-16418468D02*
X7229318Y-16408944D01*
X7229318Y-16408944D02*
X7248366Y-16399420D01*
X7248366Y-16399420D02*
X7276938Y-16399420D01*
X7276938Y-16399420D02*
X7295985Y-16408944D01*
X7295985Y-16408944D02*
X7305509Y-16427992D01*
X7305509Y-16427992D02*
X7305509Y-16532754D01*
X7305509Y-16427992D02*
X7315033Y-16408944D01*
X7315033Y-16408944D02*
X7334080Y-16399420D01*
X7334080Y-16399420D02*
X7362652Y-16399420D01*
X7362652Y-16399420D02*
X7381699Y-16408944D01*
X7381699Y-16408944D02*
X7391223Y-16427992D01*
X7391223Y-16427992D02*
X7391223Y-16532754D01*
X7486461Y-16532754D02*
X7486461Y-16399420D01*
X7486461Y-16418468D02*
X7495985Y-16408944D01*
X7495985Y-16408944D02*
X7515033Y-16399420D01*
X7515033Y-16399420D02*
X7543604Y-16399420D01*
X7543604Y-16399420D02*
X7562652Y-16408944D01*
X7562652Y-16408944D02*
X7572176Y-16427992D01*
X7572176Y-16427992D02*
X7572176Y-16532754D01*
X7572176Y-16427992D02*
X7581699Y-16408944D01*
X7581699Y-16408944D02*
X7600747Y-16399420D01*
X7600747Y-16399420D02*
X7629318Y-16399420D01*
X7629318Y-16399420D02*
X7648366Y-16408944D01*
X7648366Y-16408944D02*
X7657890Y-16427992D01*
X7657890Y-16427992D02*
X7657890Y-16532754D01*
X8048366Y-16323230D02*
X7876938Y-16580373D01*
X8305509Y-16332754D02*
X8324557Y-16332754D01*
X8324557Y-16332754D02*
X8343604Y-16342278D01*
X8343604Y-16342278D02*
X8353128Y-16351801D01*
X8353128Y-16351801D02*
X8362652Y-16370849D01*
X8362652Y-16370849D02*
X8372176Y-16408944D01*
X8372176Y-16408944D02*
X8372176Y-16456563D01*
X8372176Y-16456563D02*
X8362652Y-16494659D01*
X8362652Y-16494659D02*
X8353128Y-16513706D01*
X8353128Y-16513706D02*
X8343604Y-16523230D01*
X8343604Y-16523230D02*
X8324557Y-16532754D01*
X8324557Y-16532754D02*
X8305509Y-16532754D01*
X8305509Y-16532754D02*
X8286461Y-16523230D01*
X8286461Y-16523230D02*
X8276938Y-16513706D01*
X8276938Y-16513706D02*
X8267414Y-16494659D01*
X8267414Y-16494659D02*
X8257890Y-16456563D01*
X8257890Y-16456563D02*
X8257890Y-16408944D01*
X8257890Y-16408944D02*
X8267414Y-16370849D01*
X8267414Y-16370849D02*
X8276938Y-16351801D01*
X8276938Y-16351801D02*
X8286461Y-16342278D01*
X8286461Y-16342278D02*
X8305509Y-16332754D01*
X8457890Y-16513706D02*
X8467414Y-16523230D01*
X8467414Y-16523230D02*
X8457890Y-16532754D01*
X8457890Y-16532754D02*
X8448366Y-16523230D01*
X8448366Y-16523230D02*
X8457890Y-16513706D01*
X8457890Y-16513706D02*
X8457890Y-16532754D01*
X8657890Y-16532754D02*
X8543604Y-16532754D01*
X8600747Y-16532754D02*
X8600747Y-16332754D01*
X8600747Y-16332754D02*
X8581700Y-16361325D01*
X8581700Y-16361325D02*
X8562652Y-16380373D01*
X8562652Y-16380373D02*
X8543604Y-16389897D01*
X8838843Y-16332754D02*
X8743604Y-16332754D01*
X8743604Y-16332754D02*
X8734081Y-16427992D01*
X8734081Y-16427992D02*
X8743604Y-16418468D01*
X8743604Y-16418468D02*
X8762652Y-16408944D01*
X8762652Y-16408944D02*
X8810271Y-16408944D01*
X8810271Y-16408944D02*
X8829319Y-16418468D01*
X8829319Y-16418468D02*
X8838843Y-16427992D01*
X8838843Y-16427992D02*
X8848366Y-16447040D01*
X8848366Y-16447040D02*
X8848366Y-16494659D01*
X8848366Y-16494659D02*
X8838843Y-16513706D01*
X8838843Y-16513706D02*
X8829319Y-16523230D01*
X8829319Y-16523230D02*
X8810271Y-16532754D01*
X8810271Y-16532754D02*
X8762652Y-16532754D01*
X8762652Y-16532754D02*
X8743604Y-16523230D01*
X8743604Y-16523230D02*
X8734081Y-16513706D01*
X8915033Y-16332754D02*
X9048366Y-16332754D01*
X9048366Y-16332754D02*
X8962652Y-16532754D01*
X9219795Y-16332754D02*
X9124557Y-16332754D01*
X9124557Y-16332754D02*
X9115033Y-16427992D01*
X9115033Y-16427992D02*
X9124557Y-16418468D01*
X9124557Y-16418468D02*
X9143604Y-16408944D01*
X9143604Y-16408944D02*
X9191224Y-16408944D01*
X9191224Y-16408944D02*
X9210271Y-16418468D01*
X9210271Y-16418468D02*
X9219795Y-16427992D01*
X9219795Y-16427992D02*
X9229319Y-16447040D01*
X9229319Y-16447040D02*
X9229319Y-16494659D01*
X9229319Y-16494659D02*
X9219795Y-16513706D01*
X9219795Y-16513706D02*
X9210271Y-16523230D01*
X9210271Y-16523230D02*
X9191224Y-16532754D01*
X9191224Y-16532754D02*
X9143604Y-16532754D01*
X9143604Y-16532754D02*
X9124557Y-16523230D01*
X9124557Y-16523230D02*
X9115033Y-16513706D01*
X9305509Y-16332754D02*
X9305509Y-16370849D01*
X9381700Y-16332754D02*
X9381700Y-16370849D01*
X9676938Y-16608944D02*
X9667414Y-16599420D01*
X9667414Y-16599420D02*
X9648366Y-16570849D01*
X9648366Y-16570849D02*
X9638843Y-16551801D01*
X9638843Y-16551801D02*
X9629319Y-16523230D01*
X9629319Y-16523230D02*
X9619795Y-16475611D01*
X9619795Y-16475611D02*
X9619795Y-16437516D01*
X9619795Y-16437516D02*
X9629319Y-16389897D01*
X9629319Y-16389897D02*
X9638843Y-16361325D01*
X9638843Y-16361325D02*
X9648366Y-16342278D01*
X9648366Y-16342278D02*
X9667414Y-16313706D01*
X9667414Y-16313706D02*
X9676938Y-16304182D01*
X9743605Y-16351801D02*
X9753128Y-16342278D01*
X9753128Y-16342278D02*
X9772176Y-16332754D01*
X9772176Y-16332754D02*
X9819795Y-16332754D01*
X9819795Y-16332754D02*
X9838843Y-16342278D01*
X9838843Y-16342278D02*
X9848366Y-16351801D01*
X9848366Y-16351801D02*
X9857890Y-16370849D01*
X9857890Y-16370849D02*
X9857890Y-16389897D01*
X9857890Y-16389897D02*
X9848366Y-16418468D01*
X9848366Y-16418468D02*
X9734081Y-16532754D01*
X9734081Y-16532754D02*
X9857890Y-16532754D01*
X10048366Y-16532754D02*
X9934081Y-16532754D01*
X9991224Y-16532754D02*
X9991224Y-16332754D01*
X9991224Y-16332754D02*
X9972176Y-16361325D01*
X9972176Y-16361325D02*
X9953128Y-16380373D01*
X9953128Y-16380373D02*
X9934081Y-16389897D01*
X10286462Y-16532754D02*
X10286462Y-16332754D01*
X10372176Y-16532754D02*
X10372176Y-16427992D01*
X10372176Y-16427992D02*
X10362652Y-16408944D01*
X10362652Y-16408944D02*
X10343605Y-16399420D01*
X10343605Y-16399420D02*
X10315033Y-16399420D01*
X10315033Y-16399420D02*
X10295986Y-16408944D01*
X10295986Y-16408944D02*
X10286462Y-16418468D01*
X10495986Y-16532754D02*
X10476938Y-16523230D01*
X10476938Y-16523230D02*
X10467414Y-16513706D01*
X10467414Y-16513706D02*
X10457890Y-16494659D01*
X10457890Y-16494659D02*
X10457890Y-16437516D01*
X10457890Y-16437516D02*
X10467414Y-16418468D01*
X10467414Y-16418468D02*
X10476938Y-16408944D01*
X10476938Y-16408944D02*
X10495986Y-16399420D01*
X10495986Y-16399420D02*
X10524557Y-16399420D01*
X10524557Y-16399420D02*
X10543605Y-16408944D01*
X10543605Y-16408944D02*
X10553128Y-16418468D01*
X10553128Y-16418468D02*
X10562652Y-16437516D01*
X10562652Y-16437516D02*
X10562652Y-16494659D01*
X10562652Y-16494659D02*
X10553128Y-16513706D01*
X10553128Y-16513706D02*
X10543605Y-16523230D01*
X10543605Y-16523230D02*
X10524557Y-16532754D01*
X10524557Y-16532754D02*
X10495986Y-16532754D01*
X10676938Y-16532754D02*
X10657890Y-16523230D01*
X10657890Y-16523230D02*
X10648367Y-16504182D01*
X10648367Y-16504182D02*
X10648367Y-16332754D01*
X10829319Y-16523230D02*
X10810271Y-16532754D01*
X10810271Y-16532754D02*
X10772176Y-16532754D01*
X10772176Y-16532754D02*
X10753128Y-16523230D01*
X10753128Y-16523230D02*
X10743605Y-16504182D01*
X10743605Y-16504182D02*
X10743605Y-16427992D01*
X10743605Y-16427992D02*
X10753128Y-16408944D01*
X10753128Y-16408944D02*
X10772176Y-16399420D01*
X10772176Y-16399420D02*
X10810271Y-16399420D01*
X10810271Y-16399420D02*
X10829319Y-16408944D01*
X10829319Y-16408944D02*
X10838843Y-16427992D01*
X10838843Y-16427992D02*
X10838843Y-16447040D01*
X10838843Y-16447040D02*
X10743605Y-16466087D01*
X10915033Y-16523230D02*
X10934081Y-16532754D01*
X10934081Y-16532754D02*
X10972176Y-16532754D01*
X10972176Y-16532754D02*
X10991224Y-16523230D01*
X10991224Y-16523230D02*
X11000748Y-16504182D01*
X11000748Y-16504182D02*
X11000748Y-16494659D01*
X11000748Y-16494659D02*
X10991224Y-16475611D01*
X10991224Y-16475611D02*
X10972176Y-16466087D01*
X10972176Y-16466087D02*
X10943605Y-16466087D01*
X10943605Y-16466087D02*
X10924557Y-16456563D01*
X10924557Y-16456563D02*
X10915033Y-16437516D01*
X10915033Y-16437516D02*
X10915033Y-16427992D01*
X10915033Y-16427992D02*
X10924557Y-16408944D01*
X10924557Y-16408944D02*
X10943605Y-16399420D01*
X10943605Y-16399420D02*
X10972176Y-16399420D01*
X10972176Y-16399420D02*
X10991224Y-16408944D01*
X11067414Y-16608944D02*
X11076938Y-16599420D01*
X11076938Y-16599420D02*
X11095986Y-16570849D01*
X11095986Y-16570849D02*
X11105509Y-16551801D01*
X11105509Y-16551801D02*
X11115033Y-16523230D01*
X11115033Y-16523230D02*
X11124557Y-16475611D01*
X11124557Y-16475611D02*
X11124557Y-16437516D01*
X11124557Y-16437516D02*
X11115033Y-16389897D01*
X11115033Y-16389897D02*
X11105509Y-16361325D01*
X11105509Y-16361325D02*
X11095986Y-16342278D01*
X11095986Y-16342278D02*
X11076938Y-16313706D01*
X11076938Y-16313706D02*
X11067414Y-16304182D01*
X11429319Y-16608944D02*
X11419795Y-16599420D01*
X11419795Y-16599420D02*
X11400747Y-16570849D01*
X11400747Y-16570849D02*
X11391224Y-16551801D01*
X11391224Y-16551801D02*
X11381700Y-16523230D01*
X11381700Y-16523230D02*
X11372176Y-16475611D01*
X11372176Y-16475611D02*
X11372176Y-16437516D01*
X11372176Y-16437516D02*
X11381700Y-16389897D01*
X11381700Y-16389897D02*
X11391224Y-16361325D01*
X11391224Y-16361325D02*
X11400747Y-16342278D01*
X11400747Y-16342278D02*
X11419795Y-16313706D01*
X11419795Y-16313706D02*
X11429319Y-16304182D01*
X11505509Y-16399420D02*
X11505509Y-16532754D01*
X11505509Y-16418468D02*
X11515033Y-16408944D01*
X11515033Y-16408944D02*
X11534081Y-16399420D01*
X11534081Y-16399420D02*
X11562652Y-16399420D01*
X11562652Y-16399420D02*
X11581700Y-16408944D01*
X11581700Y-16408944D02*
X11591224Y-16427992D01*
X11591224Y-16427992D02*
X11591224Y-16532754D01*
X11715033Y-16532754D02*
X11695986Y-16523230D01*
X11695986Y-16523230D02*
X11686462Y-16513706D01*
X11686462Y-16513706D02*
X11676938Y-16494659D01*
X11676938Y-16494659D02*
X11676938Y-16437516D01*
X11676938Y-16437516D02*
X11686462Y-16418468D01*
X11686462Y-16418468D02*
X11695986Y-16408944D01*
X11695986Y-16408944D02*
X11715033Y-16399420D01*
X11715033Y-16399420D02*
X11743605Y-16399420D01*
X11743605Y-16399420D02*
X11762652Y-16408944D01*
X11762652Y-16408944D02*
X11772176Y-16418468D01*
X11772176Y-16418468D02*
X11781700Y-16437516D01*
X11781700Y-16437516D02*
X11781700Y-16494659D01*
X11781700Y-16494659D02*
X11772176Y-16513706D01*
X11772176Y-16513706D02*
X11762652Y-16523230D01*
X11762652Y-16523230D02*
X11743605Y-16532754D01*
X11743605Y-16532754D02*
X11715033Y-16532754D01*
X11838843Y-16399420D02*
X11915033Y-16399420D01*
X11867414Y-16332754D02*
X11867414Y-16504182D01*
X11867414Y-16504182D02*
X11876938Y-16523230D01*
X11876938Y-16523230D02*
X11895986Y-16532754D01*
X11895986Y-16532754D02*
X11915033Y-16532754D01*
X12134081Y-16399420D02*
X12134081Y-16599420D01*
X12134081Y-16408944D02*
X12153128Y-16399420D01*
X12153128Y-16399420D02*
X12191224Y-16399420D01*
X12191224Y-16399420D02*
X12210271Y-16408944D01*
X12210271Y-16408944D02*
X12219795Y-16418468D01*
X12219795Y-16418468D02*
X12229319Y-16437516D01*
X12229319Y-16437516D02*
X12229319Y-16494659D01*
X12229319Y-16494659D02*
X12219795Y-16513706D01*
X12219795Y-16513706D02*
X12210271Y-16523230D01*
X12210271Y-16523230D02*
X12191224Y-16532754D01*
X12191224Y-16532754D02*
X12153128Y-16532754D01*
X12153128Y-16532754D02*
X12134081Y-16523230D01*
X12343605Y-16532754D02*
X12324557Y-16523230D01*
X12324557Y-16523230D02*
X12315033Y-16504182D01*
X12315033Y-16504182D02*
X12315033Y-16332754D01*
X12505509Y-16532754D02*
X12505509Y-16427992D01*
X12505509Y-16427992D02*
X12495986Y-16408944D01*
X12495986Y-16408944D02*
X12476938Y-16399420D01*
X12476938Y-16399420D02*
X12438843Y-16399420D01*
X12438843Y-16399420D02*
X12419795Y-16408944D01*
X12505509Y-16523230D02*
X12486462Y-16532754D01*
X12486462Y-16532754D02*
X12438843Y-16532754D01*
X12438843Y-16532754D02*
X12419795Y-16523230D01*
X12419795Y-16523230D02*
X12410271Y-16504182D01*
X12410271Y-16504182D02*
X12410271Y-16485135D01*
X12410271Y-16485135D02*
X12419795Y-16466087D01*
X12419795Y-16466087D02*
X12438843Y-16456563D01*
X12438843Y-16456563D02*
X12486462Y-16456563D01*
X12486462Y-16456563D02*
X12505509Y-16447040D01*
X12572176Y-16399420D02*
X12648367Y-16399420D01*
X12600748Y-16332754D02*
X12600748Y-16504182D01*
X12600748Y-16504182D02*
X12610271Y-16523230D01*
X12610271Y-16523230D02*
X12629319Y-16532754D01*
X12629319Y-16532754D02*
X12648367Y-16532754D01*
X12791224Y-16523230D02*
X12772176Y-16532754D01*
X12772176Y-16532754D02*
X12734081Y-16532754D01*
X12734081Y-16532754D02*
X12715033Y-16523230D01*
X12715033Y-16523230D02*
X12705509Y-16504182D01*
X12705509Y-16504182D02*
X12705509Y-16427992D01*
X12705509Y-16427992D02*
X12715033Y-16408944D01*
X12715033Y-16408944D02*
X12734081Y-16399420D01*
X12734081Y-16399420D02*
X12772176Y-16399420D01*
X12772176Y-16399420D02*
X12791224Y-16408944D01*
X12791224Y-16408944D02*
X12800748Y-16427992D01*
X12800748Y-16427992D02*
X12800748Y-16447040D01*
X12800748Y-16447040D02*
X12705509Y-16466087D01*
X12972176Y-16532754D02*
X12972176Y-16332754D01*
X12972176Y-16523230D02*
X12953129Y-16532754D01*
X12953129Y-16532754D02*
X12915033Y-16532754D01*
X12915033Y-16532754D02*
X12895986Y-16523230D01*
X12895986Y-16523230D02*
X12886462Y-16513706D01*
X12886462Y-16513706D02*
X12876938Y-16494659D01*
X12876938Y-16494659D02*
X12876938Y-16437516D01*
X12876938Y-16437516D02*
X12886462Y-16418468D01*
X12886462Y-16418468D02*
X12895986Y-16408944D01*
X12895986Y-16408944D02*
X12915033Y-16399420D01*
X12915033Y-16399420D02*
X12953129Y-16399420D01*
X12953129Y-16399420D02*
X12972176Y-16408944D01*
X13048367Y-16608944D02*
X13057890Y-16599420D01*
X13057890Y-16599420D02*
X13076938Y-16570849D01*
X13076938Y-16570849D02*
X13086462Y-16551801D01*
X13086462Y-16551801D02*
X13095986Y-16523230D01*
X13095986Y-16523230D02*
X13105509Y-16475611D01*
X13105509Y-16475611D02*
X13105509Y-16437516D01*
X13105509Y-16437516D02*
X13095986Y-16389897D01*
X13095986Y-16389897D02*
X13086462Y-16361325D01*
X13086462Y-16361325D02*
X13076938Y-16342278D01*
X13076938Y-16342278D02*
X13057890Y-16313706D01*
X13057890Y-16313706D02*
X13048367Y-16304182D01*
M02*
