M48
; DRILL file {KiCad 7.0.8} date 2023-10-24T16:55:24 CEST
; FORMAT={-:-/ absolute / metric / decimal}
; #@! TF.CreationDate,2023-10-24T16:55:24+02:00
; #@! TF.GenerationSoftware,Kicad,Pcbnew,7.0.8
; #@! TF.FileFunction,NonPlated,1,2,NPTH
FMAT,2
METRIC
; #@! TA.AperFunction,NonPlated,NPTH,ComponentDrill
T1C0.900
; #@! TA.AperFunction,NonPlated,NPTH,ComponentDrill
T2C1.700
; #@! TA.AperFunction,NonPlated,NPTH,ComponentDrill
T3C4.000
%
G90
G05
T1
X192.9Y-90.775
X192.9Y-90.775
X192.9Y-93.775
X192.9Y-93.775
T2
X64.92Y-77.125
X64.92Y-96.125
X64.92Y-115.125
X75.08Y-77.125
X75.08Y-96.125
X75.08Y-115.125
X83.92Y-77.125
X83.92Y-96.125
X83.92Y-115.125
X94.08Y-77.125
X94.08Y-96.125
X94.08Y-115.125
X102.92Y-72.375
X102.92Y-91.375
X102.92Y-110.375
X113.08Y-72.375
X113.08Y-91.375
X113.08Y-110.375
X121.92Y-70.0
X121.92Y-89.0
X121.92Y-108.0
X131.42Y-129.938
X132.08Y-70.0
X132.08Y-89.0
X132.08Y-108.0
X140.92Y-72.375
X140.92Y-91.375
X140.92Y-110.375
X141.58Y-129.938
X151.08Y-72.375
X151.08Y-91.375
X151.08Y-110.375
X152.156Y-131.81
X159.92Y-74.75
X159.92Y-93.75
X159.92Y-112.75
X161.969Y-134.44
X170.08Y-74.75
X170.08Y-93.75
X170.08Y-112.75
X177.397Y-140.899
X182.477Y-132.101
T3
X70.0Y-77.125
X70.0Y-96.125
X70.0Y-115.125
X89.0Y-77.125
X89.0Y-96.125
X89.0Y-115.125
X108.0Y-72.375
X108.0Y-91.375
X108.0Y-110.375
X127.0Y-70.0
X127.0Y-89.0
X127.0Y-108.0
X136.5Y-129.938
X146.0Y-72.375
X146.0Y-91.375
X146.0Y-110.375
X157.062Y-133.125
X165.0Y-74.75
X165.0Y-93.75
X165.0Y-112.75
X179.938Y-136.5
T0
M30
