G04 #@! TF.GenerationSoftware,KiCad,Pcbnew,7.0.8*
G04 #@! TF.CreationDate,2023-10-24T16:55:22+02:00*
G04 #@! TF.ProjectId,corne-chocolate,636f726e-652d-4636-986f-636f6c617465,2.1*
G04 #@! TF.SameCoordinates,Original*
G04 #@! TF.FileFunction,Soldermask,Bot*
G04 #@! TF.FilePolarity,Negative*
%FSLAX46Y46*%
G04 Gerber Fmt 4.6, Leading zero omitted, Abs format (unit mm)*
G04 Created by KiCad (PCBNEW 7.0.8) date 2023-10-24 16:55:22*
%MOMM*%
%LPD*%
G01*
G04 APERTURE LIST*
G04 Aperture macros list*
%AMRoundRect*
0 Rectangle with rounded corners*
0 $1 Rounding radius*
0 $2 $3 $4 $5 $6 $7 $8 $9 X,Y pos of 4 corners*
0 Add a 4 corners polygon primitive as box body*
4,1,4,$2,$3,$4,$5,$6,$7,$8,$9,$2,$3,0*
0 Add four circle primitives for the rounded corners*
1,1,$1+$1,$2,$3*
1,1,$1+$1,$4,$5*
1,1,$1+$1,$6,$7*
1,1,$1+$1,$8,$9*
0 Add four rect primitives between the rounded corners*
20,1,$1+$1,$2,$3,$4,$5,0*
20,1,$1+$1,$4,$5,$6,$7,0*
20,1,$1+$1,$6,$7,$8,$9,0*
20,1,$1+$1,$8,$9,$2,$3,0*%
G04 Aperture macros list end*
%ADD10RoundRect,0.200000X-0.650000X-0.475000X0.650000X-0.475000X0.650000X0.475000X-0.650000X0.475000X0*%
%ADD11RoundRect,0.200000X-0.750791X-0.290582X0.504913X-0.627047X0.750791X0.290582X-0.504913X0.627047X0*%
%ADD12RoundRect,0.200000X0.086362X-0.800417X0.736362X0.325417X-0.086362X0.800417X-0.736362X-0.325417X0*%
%ADD13C,2.100000*%
%ADD14C,4.400000*%
%ADD15C,2.800000*%
%ADD16C,6.400000*%
%ADD17C,1.900000*%
%ADD18C,1.300000*%
%ADD19O,3.150000X2.200000*%
%ADD20C,1.797000*%
%ADD21RoundRect,0.200000X-0.571500X0.317500X-0.571500X-0.317500X0.571500X-0.317500X0.571500X0.317500X0*%
%ADD22RoundRect,0.200000X-0.400000X0.500000X-0.400000X-0.500000X0.400000X-0.500000X0.400000X0.500000X0*%
%ADD23RoundRect,0.200000X-0.750000X0.350000X-0.750000X-0.350000X0.750000X-0.350000X0.750000X0.350000X0*%
G04 APERTURE END LIST*
D10*
X87225000Y-82468750D03*
X90775000Y-82468750D03*
X106225000Y-77718750D03*
X109775000Y-77718750D03*
X125225000Y-75343750D03*
X128775000Y-75343750D03*
X144225000Y-77718750D03*
X147775000Y-77718750D03*
X163225000Y-80093750D03*
X166775000Y-80093750D03*
X87225000Y-101468750D03*
X90775000Y-101468750D03*
X106225000Y-96718750D03*
X109775000Y-96718750D03*
X125225000Y-94343750D03*
X128775000Y-94343750D03*
X144225000Y-96718750D03*
X147775000Y-96718750D03*
X163225000Y-99093750D03*
X166775000Y-99093750D03*
X87225000Y-120468750D03*
X90775000Y-120468750D03*
X106225000Y-115718750D03*
X109775000Y-115718750D03*
X125225000Y-113343750D03*
X128775000Y-113343750D03*
X144225000Y-115718750D03*
X147775000Y-115718750D03*
X163225000Y-118093750D03*
X166775000Y-118093750D03*
X134725000Y-135312500D03*
X138275000Y-135312500D03*
D11*
X153785482Y-137821846D03*
X157214518Y-138740654D03*
D12*
X183706250Y-141005945D03*
X185481250Y-137931555D03*
D13*
X83920000Y-77125000D03*
D14*
X89000000Y-77125000D03*
D13*
X94080000Y-77125000D03*
D15*
X85190000Y-74585000D03*
X86460000Y-72045000D03*
X91540000Y-72045000D03*
X92810000Y-74585000D03*
D13*
X102920000Y-72375000D03*
D14*
X108000000Y-72375000D03*
D13*
X113080000Y-72375000D03*
D15*
X104190000Y-69835000D03*
X105460000Y-67295000D03*
X110540000Y-67295000D03*
X111810000Y-69835000D03*
D13*
X121920000Y-70000000D03*
D14*
X127000000Y-70000000D03*
D13*
X132080000Y-70000000D03*
D15*
X123190000Y-67460000D03*
X124460000Y-64920000D03*
X129540000Y-64920000D03*
X130810000Y-67460000D03*
D13*
X140920000Y-72375000D03*
D14*
X146000000Y-72375000D03*
D13*
X151080000Y-72375000D03*
D15*
X142190000Y-69835000D03*
X143460000Y-67295000D03*
X148540000Y-67295000D03*
X149810000Y-69835000D03*
D13*
X159920000Y-74750000D03*
D14*
X165000000Y-74750000D03*
D13*
X170080000Y-74750000D03*
D15*
X161190000Y-72210000D03*
X162460000Y-69670000D03*
X167540000Y-69670000D03*
X168810000Y-72210000D03*
D13*
X83920000Y-96125000D03*
D14*
X89000000Y-96125000D03*
D13*
X94080000Y-96125000D03*
D15*
X85190000Y-93585000D03*
X86460000Y-91045000D03*
X91540000Y-91045000D03*
X92810000Y-93585000D03*
D13*
X102920000Y-91375000D03*
D14*
X108000000Y-91375000D03*
D13*
X113080000Y-91375000D03*
D15*
X104190000Y-88835000D03*
X105460000Y-86295000D03*
X110540000Y-86295000D03*
X111810000Y-88835000D03*
D13*
X121920000Y-89000000D03*
D14*
X127000000Y-89000000D03*
D13*
X132080000Y-89000000D03*
D15*
X123190000Y-86460000D03*
X124460000Y-83920000D03*
X129540000Y-83920000D03*
X130810000Y-86460000D03*
D13*
X140920000Y-91375000D03*
D14*
X146000000Y-91375000D03*
D13*
X151080000Y-91375000D03*
D15*
X142190000Y-88835000D03*
X143460000Y-86295000D03*
X148540000Y-86295000D03*
X149810000Y-88835000D03*
D13*
X159920000Y-93750000D03*
D14*
X165000000Y-93750000D03*
D13*
X170080000Y-93750000D03*
D15*
X161190000Y-91210000D03*
X162460000Y-88670000D03*
X167540000Y-88670000D03*
X168810000Y-91210000D03*
D13*
X83920000Y-115125000D03*
D14*
X89000000Y-115125000D03*
D13*
X94080000Y-115125000D03*
D15*
X85190000Y-112585000D03*
X86460000Y-110045000D03*
X91540000Y-110045000D03*
X92810000Y-112585000D03*
D13*
X102920000Y-110375000D03*
D14*
X108000000Y-110375000D03*
D13*
X113080000Y-110375000D03*
D15*
X104190000Y-107835000D03*
X105460000Y-105295000D03*
X110540000Y-105295000D03*
X111810000Y-107835000D03*
D13*
X121920000Y-108000000D03*
D14*
X127000000Y-108000000D03*
D13*
X132080000Y-108000000D03*
D15*
X123190000Y-105460000D03*
X124460000Y-102920000D03*
X129540000Y-102920000D03*
X130810000Y-105460000D03*
D13*
X140920000Y-110375000D03*
D14*
X146000000Y-110375000D03*
D13*
X151080000Y-110375000D03*
D15*
X142190000Y-107835000D03*
X143460000Y-105295000D03*
X148540000Y-105295000D03*
X149810000Y-107835000D03*
D13*
X159920000Y-112750000D03*
D14*
X165000000Y-112750000D03*
D13*
X170080000Y-112750000D03*
D15*
X161190000Y-110210000D03*
X162460000Y-107670000D03*
X167540000Y-107670000D03*
X168810000Y-110210000D03*
D13*
X131420000Y-129937500D03*
D14*
X136500000Y-129937500D03*
D13*
X141580000Y-129937500D03*
D15*
X132690000Y-127397500D03*
X133960000Y-124857500D03*
X139040000Y-124857500D03*
X140310000Y-127397500D03*
D13*
X152155597Y-131810199D03*
D14*
X157062500Y-133125000D03*
D13*
X161969403Y-134439801D03*
D15*
X154039723Y-129685448D03*
X155923849Y-127560696D03*
X160830752Y-128875497D03*
X161400078Y-131657649D03*
D13*
X177397500Y-140899409D03*
D14*
X179937500Y-136500000D03*
D13*
X182477500Y-132100591D03*
D15*
X175832795Y-138529557D03*
X174268091Y-136159705D03*
X176808091Y-131760295D03*
X179642795Y-131930443D03*
D14*
X176593752Y-110828003D03*
D16*
X169250000Y-130500032D03*
D17*
X176500000Y-93625000D03*
D16*
X155510000Y-83000000D03*
D10*
X68225000Y-101468750D03*
X71775000Y-101468750D03*
D13*
X64920000Y-96125000D03*
D14*
X70000000Y-96125000D03*
D13*
X75080000Y-96125000D03*
D15*
X66190000Y-93585000D03*
X67460000Y-91045000D03*
X72540000Y-91045000D03*
X73810000Y-93585000D03*
D14*
X192593752Y-120828003D03*
D16*
X79510000Y-86750000D03*
D14*
X192593752Y-110828003D03*
D18*
X192900000Y-93775000D03*
X192900000Y-90775000D03*
D16*
X122750000Y-122750000D03*
D13*
X64920000Y-77125000D03*
D14*
X70000000Y-77125000D03*
D13*
X75080000Y-77125000D03*
D15*
X66190000Y-74585000D03*
X67460000Y-72045000D03*
X72540000Y-72045000D03*
X73810000Y-74585000D03*
D13*
X64920000Y-115125000D03*
D14*
X70000000Y-115125000D03*
D13*
X75080000Y-115125000D03*
D15*
X66190000Y-112585000D03*
X67460000Y-110045000D03*
X72540000Y-110045000D03*
X73810000Y-112585000D03*
D14*
X176593752Y-120828003D03*
D10*
X68225000Y-120468750D03*
X71775000Y-120468750D03*
D14*
X176593752Y-100828003D03*
D17*
X176500000Y-91625000D03*
D10*
X68225000Y-82468750D03*
X71775000Y-82468750D03*
D16*
X79510000Y-105750000D03*
D14*
X192593752Y-100828003D03*
D19*
X176498750Y-71286250D03*
X176498750Y-73826250D03*
X176498750Y-76366250D03*
X176498750Y-78906250D03*
X176498750Y-81446250D03*
X176498750Y-83986250D03*
X176498750Y-86526250D03*
X192688750Y-86526250D03*
X192688750Y-83986250D03*
X192688750Y-81446250D03*
X192688750Y-78906250D03*
X192688750Y-76366250D03*
X192688750Y-73826250D03*
X192688750Y-71286250D03*
D20*
X183323750Y-70334250D03*
X185863750Y-70334250D03*
X183323750Y-72874250D03*
X185863750Y-72874250D03*
X180148750Y-78589250D03*
X189038750Y-78589250D03*
X180148750Y-76684250D03*
X189038750Y-76684250D03*
D21*
X183406250Y-81968370D03*
X183406250Y-82969130D03*
D22*
X194000000Y-88625000D03*
X191790000Y-88625000D03*
D18*
X192900000Y-90775000D03*
X192900000Y-93775000D03*
D22*
X194000000Y-95925000D03*
X191790000Y-95925000D03*
D23*
X191140000Y-90025000D03*
X191140000Y-93025000D03*
X191140000Y-94525000D03*
D21*
X185781250Y-81968370D03*
X185781250Y-82969130D03*
M02*
