M48
; DRILL file {KiCad 7.0.8} date 2023-10-24T16:55:24 CEST
; FORMAT={-:-/ absolute / metric / decimal}
; #@! TF.CreationDate,2023-10-24T16:55:24+02:00
; #@! TF.GenerationSoftware,Kicad,Pcbnew,7.0.8
; #@! TF.FileFunction,Plated,1,2,PTH
FMAT,2
METRIC
; #@! TA.AperFunction,Plated,PTH,ViaDrill
T1C0.400
; #@! TA.AperFunction,Plated,PTH,ComponentDrill
T2C0.700
; #@! TA.AperFunction,Plated,PTH,ComponentDrill
T3C1.000
; #@! TA.AperFunction,Plated,PTH,ComponentDrill
T4C1.016
; #@! TA.AperFunction,Plated,PTH,ComponentDrill
T5C1.400
; #@! TA.AperFunction,Plated,PTH,ComponentDrill
T6C2.200
; #@! TA.AperFunction,Plated,PTH,ComponentDrill
T7C4.100
%
G90
G05
T1
X68.225Y-82.469
X68.225Y-101.469
X68.225Y-120.469
X71.775Y-82.469
X71.775Y-101.469
X71.775Y-120.469
X84.813Y-99.094
X86.062Y-99.094
X87.225Y-82.469
X87.225Y-101.469
X87.225Y-120.469
X90.775Y-82.469
X90.775Y-101.469
X90.775Y-120.469
X103.813Y-94.344
X103.813Y-95.531
X105.062Y-94.344
X105.062Y-95.531
X106.225Y-77.719
X106.225Y-96.719
X106.225Y-115.719
X109.775Y-77.719
X109.775Y-96.719
X109.775Y-115.719
X122.813Y-72.969
X122.813Y-91.969
X122.813Y-93.156
X124.062Y-72.969
X124.062Y-91.969
X124.062Y-93.156
X125.225Y-75.344
X125.225Y-94.344
X125.225Y-113.344
X128.775Y-75.344
X128.775Y-94.344
X128.775Y-113.344
X134.725Y-135.312
X138.275Y-135.312
X141.813Y-75.344
X141.813Y-76.531
X141.813Y-94.344
X141.813Y-95.531
X143.062Y-75.344
X143.062Y-76.531
X143.062Y-94.344
X143.062Y-95.531
X144.225Y-77.719
X144.225Y-96.719
X144.225Y-115.719
X147.775Y-77.719
X147.775Y-96.719
X147.775Y-115.719
X153.785Y-137.822
X157.215Y-138.741
X160.813Y-77.719
X160.813Y-78.906
X160.813Y-96.719
X160.813Y-97.906
X160.813Y-115.719
X162.062Y-77.719
X162.062Y-78.906
X162.062Y-96.719
X162.062Y-97.906
X162.062Y-115.719
X163.225Y-80.094
X163.225Y-99.094
X163.225Y-118.094
X166.775Y-80.094
X166.775Y-99.094
X166.775Y-118.094
X169.75Y-116.875
X170.0Y-115.625
X170.938Y-97.906
X180.604Y-81.146
X181.6Y-82.146
X183.406Y-82.969
X183.706Y-141.006
X185.481Y-137.932
X185.781Y-82.969
X186.604Y-88.141
X187.604Y-87.625
X188.604Y-92.336
X189.594Y-90.285
X192.604Y-92.146
T2
X176.5Y-91.625
X176.5Y-93.625
T3
X176.974Y-71.286
X176.974Y-73.826
X176.974Y-76.366
X176.974Y-78.906
X176.974Y-81.446
X176.974Y-83.986
X176.974Y-86.526
X192.214Y-71.286
X192.214Y-73.826
X192.214Y-76.366
X192.214Y-78.906
X192.214Y-81.446
X192.214Y-83.986
X192.214Y-86.526
T4
X180.149Y-76.684
X180.149Y-78.589
X183.324Y-70.334
X183.324Y-72.874
X185.864Y-70.334
X185.864Y-72.874
X189.039Y-76.684
X189.039Y-78.589
T5
X66.19Y-74.585
X66.19Y-93.585
X66.19Y-112.585
X67.46Y-72.045
X67.46Y-91.045
X67.46Y-110.045
X72.54Y-72.045
X72.54Y-91.045
X72.54Y-110.045
X73.81Y-74.585
X73.81Y-93.585
X73.81Y-112.585
X85.19Y-74.585
X85.19Y-93.585
X85.19Y-112.585
X86.46Y-72.045
X86.46Y-91.045
X86.46Y-110.045
X91.54Y-72.045
X91.54Y-91.045
X91.54Y-110.045
X92.81Y-74.585
X92.81Y-93.585
X92.81Y-112.585
X104.19Y-69.835
X104.19Y-88.835
X104.19Y-107.835
X105.46Y-67.295
X105.46Y-86.295
X105.46Y-105.295
X110.54Y-67.295
X110.54Y-86.295
X110.54Y-105.295
X111.81Y-69.835
X111.81Y-88.835
X111.81Y-107.835
X123.19Y-67.46
X123.19Y-86.46
X123.19Y-105.46
X124.46Y-64.92
X124.46Y-83.92
X124.46Y-102.92
X129.54Y-64.92
X129.54Y-83.92
X129.54Y-102.92
X130.81Y-67.46
X130.81Y-86.46
X130.81Y-105.46
X132.69Y-127.397
X133.96Y-124.857
X139.04Y-124.857
X140.31Y-127.397
X142.19Y-69.835
X142.19Y-88.835
X142.19Y-107.835
X143.46Y-67.295
X143.46Y-86.295
X143.46Y-105.295
X148.54Y-67.295
X148.54Y-86.295
X148.54Y-105.295
X149.81Y-69.835
X149.81Y-88.835
X149.81Y-107.835
X154.04Y-129.685
X155.924Y-127.561
X160.831Y-128.875
X161.19Y-72.21
X161.19Y-91.21
X161.19Y-110.21
X161.4Y-131.658
X162.46Y-69.67
X162.46Y-88.67
X162.46Y-107.67
X167.54Y-69.67
X167.54Y-88.67
X167.54Y-107.67
X168.81Y-72.21
X168.81Y-91.21
X168.81Y-110.21
X174.268Y-136.16
X175.833Y-138.53
X176.808Y-131.76
X179.643Y-131.93
T6
X176.594Y-100.828
X176.594Y-110.828
X176.594Y-120.828
X192.594Y-100.828
X192.594Y-110.828
X192.594Y-120.828
T7
X79.51Y-86.75
X79.51Y-105.75
X122.75Y-122.75
X155.51Y-83.0
X169.25Y-130.5
T0
M30
